<svg xmlns="http://www.w3.org/2000/svg" width="current" height="current" viewBox="0 0 85 85" fill="none">
  <path d="M85 42.5C85 19.0279 65.9721 0 42.5 0C19.0279 0 0 19.0279 0 42.5C0 65.9721 19.0279 85 42.5 85C65.9721 85 85 65.9721 85 42.5Z" fill="#FCF6EE"/>
  <mask id="mask0_1198_1945" style="mask-type:luminance" maskUnits="userSpaceOnUse" x="0" y="0" width="85" height="85">
    <path d="M85 42.5C85 19.0279 65.9721 0 42.5 0C19.0279 0 0 19.0279 0 42.5C0 65.9721 19.0279 85 42.5 85C65.9721 85 85 65.9721 85 42.5Z" fill="white"/>
  </mask>
  <g mask="url(#mask0_1198_1945)">
    <path d="M28.5151 135.677C26.2297 135.045 24.0708 134.022 22.1341 132.654C22.0187 132.701 21.8955 132.724 21.7711 132.724H0.451118C0.0344124 133.121 -0.503067 133.368 -1.07588 133.424C-4.97588 133.818 -12.5279 134.498 -19.3489 134.632C-20.1576 134.648 -20.9222 134.656 -21.6429 134.656C-29.3359 134.656 -32.1429 133.784 -33.2179 132.721H-52.1569C-52.4149 132.721 -52.6624 132.619 -52.8449 132.436C-53.0274 132.254 -53.1299 132.006 -53.1299 131.748C-53.1299 131.49 -53.0274 131.243 -52.8449 131.06C-52.6624 130.878 -52.4149 130.775 -52.1569 130.775H-33.9499C-33.9691 130.108 -33.7388 129.456 -33.3039 128.949C-31.3219 126.62 -25.2859 127.328 -24.0949 127.493C-23.8392 127.529 -23.6081 127.665 -23.4525 127.87C-23.2968 128.076 -23.2293 128.336 -23.2649 128.591C-23.3004 128.847 -23.4361 129.078 -23.642 129.234C-23.8479 129.389 -24.1072 129.457 -24.3629 129.421C-26.8849 129.072 -30.8629 129.087 -31.8219 130.211C-31.9619 130.375 -32.0989 130.638 -31.9219 131.221C-31.9169 131.238 -31.2609 132.916 -19.3889 132.686C-12.6359 132.554 -5.14088 131.879 -1.27388 131.486C-1.13114 131.473 -0.996941 131.412 -0.8923 131.314C-0.787659 131.216 -0.718487 131.086 -0.695618 130.945C-0.672749 130.803 -0.697475 130.658 -0.765926 130.532C-0.834377 130.406 -0.942684 130.306 -1.07388 130.248C-3.06202 129.567 -5.1659 129.288 -7.26288 129.428C-7.41301 129.428 -7.56107 129.393 -7.6961 129.328C-7.83113 129.262 -7.94965 129.167 -8.04288 129.049C-8.21083 129.687 -8.58516 130.252 -9.10754 130.655C-9.62992 131.059 -10.271 131.278 -10.9309 131.278H-19.7519C-20.5423 131.278 -21.3 130.963 -21.8589 130.404C-22.4178 129.845 -22.7321 129.088 -22.7329 128.297V127.278H-25.4409C-26.0444 127.278 -26.623 127.038 -27.0497 126.611C-27.4764 126.184 -27.7164 125.606 -27.7169 125.002V121.429C-27.7169 121.429 -27.7169 121.42 -27.7169 121.416V114C-27.7161 113.359 -27.461 112.744 -27.0075 112.291C-26.554 111.837 -25.9392 111.582 -25.2979 111.581H-6.38488C-5.74357 111.582 -5.12875 111.837 -4.67527 112.291C-4.22179 112.744 -3.96667 113.359 -3.96588 114V115.184L-1.06588 115.923C-0.714596 116.013 -0.403091 116.216 -0.180676 116.503C0.0417404 116.789 0.162369 117.141 0.162117 117.503V120.045C0.161236 120.458 0.0607834 120.864 -0.130718 121.23C-0.32222 121.596 -0.59911 121.91 -0.937881 122.145L-0.983883 122.174L-3.97388 124.019V124.319C-3.97494 125.104 -4.28724 125.857 -4.84231 126.412C-5.39737 126.967 -6.1499 127.279 -6.93488 127.28H-7.95088V127.756C-7.7729 127.585 -7.53613 127.487 -7.28888 127.484C-4.91301 127.34 -2.53232 127.675 -0.288883 128.47C0.130161 128.656 0.492744 128.949 0.762131 129.319C1.03152 129.69 1.19814 130.125 1.24512 130.581C1.25179 130.648 1.25578 130.713 1.25712 130.775H19.7211C14.4031 126.163 10.5841 119.639 8.42812 115.281C3.79811 105.929 0.987118 95.0813 1.26712 87.6433C1.78012 74.0163 3.98912 72.1083 12.9061 69.1613C11.2025 67.3234 10.1062 65.0055 9.76628 62.5227C9.42633 60.0398 9.85923 57.5125 11.0061 55.2843C12.8469 51.8585 15.0654 48.6496 17.6201 45.7173C16.8471 45.2875 16.1839 44.6847 15.6824 43.9562C15.1809 43.2276 14.8546 42.3929 14.7291 41.5173C14.3381 37.3243 19.7171 33.3473 22.1091 31.7963C17.5981 26.7773 15.9241 22.3963 17.1351 18.7573C18.6001 14.3653 24.1001 11.3273 33.4831 9.73433C38.3255 8.90927 43.2581 8.75214 48.1431 9.26733C48.5412 7.60497 49.5164 6.13787 50.8951 5.12733C51.3442 4.86505 51.8437 4.70092 52.3608 4.64576C52.8779 4.5906 53.4008 4.64567 53.8951 4.80733C55.3351 5.24133 55.7341 6.04233 55.8151 6.63733C55.9981 7.97733 54.6251 9.30933 53.5691 10.1193C54.7571 10.3687 55.9351 10.6587 57.1031 10.9893C65.8121 13.4743 70.9311 17.3173 72.3181 22.4113C74.0421 28.7273 69.4311 34.8273 67.8931 36.6273C69.4471 39.6013 76.1511 52.5273 78.6051 58.9003C79.4351 61.0541 79.7826 63.3637 79.6231 65.6663C79.4769 67.8238 78.6744 69.885 77.3231 71.5733C79.3041 72.1623 82.1011 73.9913 83.3411 79.5073C85.0571 87.1443 76.4501 123.515 74.6951 130.778H120.24C120.498 130.778 120.746 130.881 120.928 131.063C121.111 131.246 121.213 131.493 121.213 131.751C121.213 132.009 121.111 132.257 120.928 132.439C120.746 132.622 120.498 132.724 120.24 132.724H38.6231C38.5597 132.724 38.4964 132.718 38.4341 132.706C37.9375 133.247 37.3925 133.741 36.8061 134.182C35.2258 135.399 33.2874 136.058 31.2931 136.057C30.3545 136.052 29.4207 135.924 28.5151 135.677ZM3.21512 87.7213C2.95112 94.7483 5.74812 105.478 10.1751 114.421C13.2341 120.599 19.7491 131.332 29.0181 133.795C30.1349 134.145 31.3194 134.222 32.472 134.019C33.6245 133.815 34.7114 133.338 35.6411 132.627C43.0651 127.087 44.5471 108.209 44.7991 103.639H43.9701C43.9343 103.637 43.8985 103.633 43.8631 103.627L31.7461 102.313H29.4181L21.7921 120.927C21.689 121.158 21.5002 121.34 21.2656 121.434C21.0309 121.528 20.7689 121.527 20.535 121.431C20.3011 121.335 20.1137 121.152 20.0123 120.921C19.911 120.689 19.9038 120.427 19.9921 120.19L25.2251 107.419C25.071 107.301 24.956 107.139 24.8951 106.954L16.8001 82.5473C16.7188 82.3023 16.7382 82.035 16.854 81.8042C16.9698 81.5734 17.1726 81.3981 17.4176 81.3168C17.6627 81.2355 17.93 81.2549 18.1608 81.3707C18.3915 81.4865 18.5668 81.6893 18.6481 81.9343L26.2601 104.887L27.8601 100.971C27.9339 100.793 28.0589 100.642 28.2191 100.535C28.3793 100.428 28.5676 100.371 28.7601 100.371H31.0811L38.1451 77.6273L31.7011 76.9473C31.5715 76.9374 31.4453 76.9016 31.3297 76.8421C31.2142 76.7826 31.1118 76.7006 31.0285 76.6008C30.9452 76.5011 30.8827 76.3856 30.8447 76.2613C30.8068 76.137 30.7941 76.0064 30.8075 75.8771C30.8208 75.7478 30.86 75.6226 30.9225 75.5087C30.9851 75.3948 31.0699 75.2946 31.1718 75.2139C31.2737 75.1333 31.3908 75.074 31.5161 75.0393C31.6413 75.0047 31.7722 74.9955 31.9011 75.0123L39.5241 75.8123C39.6671 75.8274 39.805 75.8741 39.9278 75.9489C40.0507 76.0237 40.1554 76.1247 40.2345 76.2449C40.3136 76.365 40.3651 76.5011 40.3852 76.6435C40.4054 76.7859 40.3937 76.931 40.3511 77.0683L33.0821 100.5L43.2701 101.607L51.1881 74.9073C51.1935 74.373 51.008 73.8542 50.6651 73.4443C49.6311 71.9623 46.2651 69.1873 35.3361 67.2513C35.1676 67.2221 35.0098 67.1491 34.8785 67.0396C34.7472 66.93 34.6471 66.7878 34.5881 66.6273L30.8881 56.4803C30.5881 55.7253 30.0381 55.0043 29.8121 54.9803C29.8121 54.9803 29.6391 55.0293 29.3521 55.4383C30.0289 56.6367 30.5775 57.903 30.9891 59.2163C31.5472 60.9028 32.0145 62.6179 32.3891 64.3543C32.4415 64.6071 32.3913 64.8703 32.2496 65.086C32.108 65.3018 31.8864 65.4524 31.6336 65.5048C31.3809 65.5572 31.1177 65.507 30.9019 65.3654C30.6861 65.2237 30.5355 65.0021 30.4831 64.7493C30.123 63.0843 29.6753 61.4393 29.1421 59.8213C27.6621 55.4213 26.6171 55.2763 26.6071 55.2743C26.3371 55.2483 26.1751 55.2873 26.1391 55.3343C25.9885 55.9693 26.0478 56.6359 26.3081 57.2343C27.064 58.3781 27.6759 59.6108 28.1301 60.9043C28.7572 62.5862 29.2861 64.3031 29.7141 66.0463C29.7468 66.1717 29.7541 66.3024 29.7356 66.4307C29.7172 66.5589 29.6732 66.6822 29.6064 66.7933C29.5397 66.9043 29.4514 67.0009 29.3467 67.0774C29.2421 67.1539 29.1233 67.2087 28.9972 67.2386C28.8711 67.2685 28.7403 67.2729 28.6124 67.2516C28.4846 67.2302 28.3623 67.1836 28.2528 67.1143C28.1432 67.0451 28.0486 66.9547 27.9745 66.8484C27.9004 66.7421 27.8482 66.6221 27.8211 66.4953C27.4096 64.8296 26.9038 63.1886 26.3061 61.5803C25.0821 58.3673 24.2161 57.7083 23.9131 57.5743C23.7981 57.9953 23.6441 59.5853 25.1741 64.7123C26.1541 67.9983 27.3291 71.0653 27.3411 71.0963C27.3471 71.1113 27.3521 71.1273 27.3571 71.1433L28.4871 74.6003C28.5316 74.7231 28.551 74.8535 28.544 74.9839C28.537 75.1143 28.5039 75.242 28.4465 75.3593C28.3892 75.4766 28.3088 75.5811 28.2102 75.6667C28.1116 75.7523 27.9967 75.8172 27.8725 75.8575C27.7483 75.8978 27.6173 75.9126 27.4872 75.9012C27.3572 75.8898 27.2307 75.8523 27.1154 75.791C27.0002 75.7297 26.8984 75.6458 26.8162 75.5443C26.734 75.4428 26.6731 75.3258 26.6371 75.2003L26.0541 73.4173L24.5541 73.0323C24.4811 73.2642 24.3238 73.4602 24.1133 73.5819C23.9029 73.7035 23.6545 73.7418 23.4171 73.6893L19.2091 72.7643C17.5366 72.3965 15.9602 71.681 14.5821 70.6643C5.39611 73.6133 3.71412 74.3753 3.21112 87.7213H3.21512ZM72.7001 130.779C74.1001 124.993 83.0911 87.2353 81.4501 79.9353C80.0411 73.6653 76.5911 73.2353 75.6501 73.2433C74.0474 74.5135 72.0917 75.2581 70.0501 75.3753C69.8654 75.386 69.6844 75.3913 69.5071 75.3913C68.7033 75.3982 67.9033 75.2812 67.1351 75.0443C65.1304 76.2852 62.8198 76.9431 60.4621 76.9443C59.2992 77.0063 58.1361 76.8248 57.0473 76.4116C55.9586 75.9983 54.968 75.3623 54.1391 74.5443C52.7561 72.9763 51.2111 69.4253 56.4061 63.2703C60.4541 58.4703 60.7171 52.9033 59.8421 48.3213L58.8091 44.4823C58.6091 43.8993 58.3981 43.3493 58.1901 42.8433C56.0749 43.4758 53.8843 43.8212 51.6771 43.8703C50.7662 43.8778 49.8573 43.7839 48.9671 43.5903L47.4671 44.2813C44.5015 45.6739 41.1887 46.1529 37.9501 45.6573C36.3422 45.4712 34.8089 44.8756 33.4971 43.9273L33.3531 43.9593L29.4691 46.6593C28.2399 47.5254 26.7728 47.9896 25.2691 47.9883C25.1805 47.9883 25.0918 47.9883 25.0031 47.9883C24.7771 48.8883 24.0631 52.0473 24.5591 54.1973L24.5881 54.1573C24.8478 53.8348 25.1897 53.5884 25.5778 53.4441C25.9659 53.2998 26.3858 53.2629 26.7931 53.3373C27.2728 53.3922 27.7253 53.5886 28.0931 53.9013C28.3102 53.623 28.5899 53.3997 28.9094 53.2496C29.2289 53.0995 29.5793 53.0268 29.9321 53.0373C31.6041 53.1373 32.5401 55.3543 32.7111 55.7973L36.2241 65.4273C47.1161 67.4273 51.0361 70.3923 52.4011 72.5403C52.6978 72.9452 52.9098 73.4057 53.0244 73.8944C53.139 74.383 53.1539 74.8898 53.0681 75.3843L45.2681 101.684H45.8131C45.9432 101.684 46.072 101.71 46.1918 101.761C46.3117 101.811 46.4201 101.886 46.5109 101.979C46.6016 102.072 46.6727 102.182 46.7199 102.304C46.7672 102.425 46.7897 102.554 46.7861 102.684C46.7611 103.557 46.1661 121.605 39.9491 130.773L72.7001 130.779ZM-25.7669 125.009C-25.7666 125.097 -25.7319 125.18 -25.6702 125.242C-25.6086 125.303 -25.5251 125.338 -25.4379 125.338H-21.7599C-21.5018 125.338 -21.2543 125.441 -21.0719 125.623C-20.8894 125.806 -20.7869 126.053 -20.7869 126.311V128.302C-20.7866 128.577 -20.6775 128.84 -20.4835 129.034C-20.2895 129.228 -20.0264 129.338 -19.7519 129.338H-10.9299C-10.792 129.338 -10.6555 129.311 -10.5284 129.257C-10.4013 129.204 -10.2862 129.126 -10.1898 129.027C-10.0934 128.929 -10.0176 128.812 -9.96697 128.683C-9.91633 128.555 -9.89182 128.418 -9.89488 128.28V126.31C-9.89488 126.052 -9.79237 125.805 -9.6099 125.622C-9.42743 125.44 -9.17994 125.337 -8.92188 125.337H-6.92188C-6.65285 125.337 -6.39499 125.23 -6.20475 125.039C-6.01452 124.849 -5.90741 124.591 -5.90688 124.322V123.522C-5.90688 123.497 -5.90688 123.472 -5.90688 123.447V115.993C-5.90688 115.963 -5.90688 115.932 -5.90688 115.9V114.005C-5.90715 113.88 -5.95707 113.76 -6.04571 113.671C-6.13436 113.583 -6.25452 113.533 -6.37988 113.532H-25.2949C-25.4202 113.533 -25.5402 113.583 -25.6287 113.671C-25.7172 113.76 -25.7669 113.88 -25.7669 114.005V121.667V125.009ZM-3.96688 121.74L-2.02688 120.54C-1.95012 120.483 -1.88782 120.409 -1.84493 120.323C-1.80204 120.238 -1.77977 120.143 -1.77988 120.047V117.747L-3.96688 117.191V121.74ZM57.1911 40.9543L57.3471 40.9843L57.3201 40.9293L57.1911 40.9543ZM51.1911 9.67733C51.2558 9.44537 51.4044 9.24576 51.6081 9.11733C52.5443 8.59867 53.328 7.84354 53.8811 6.92733C53.7176 6.80468 53.5303 6.71749 53.3311 6.67133C53.0947 6.58583 52.8423 6.55334 52.5919 6.57615C52.3415 6.59896 52.0992 6.67652 51.8821 6.80333C51.0125 7.49064 50.3882 8.44046 50.1021 9.51133C50.4681 9.562 50.8321 9.617 51.1941 9.67633L51.1911 9.67733ZM61.4911 115.777C61.3028 115.601 61.1923 115.357 61.1838 115.099C61.1754 114.841 61.2697 114.59 61.4461 114.401C67.2281 108.234 70.0261 101.501 69.7611 94.3913C69.6823 91.3022 68.9499 88.2648 67.6121 85.4793C67.4987 85.2549 67.4766 84.9952 67.5505 84.7548C67.6243 84.5145 67.7884 84.312 68.0082 84.1899C68.2281 84.0678 68.4866 84.0356 68.7297 84.1C68.9728 84.1644 69.1815 84.3204 69.3121 84.5353C70.7961 87.553 71.6107 90.8557 71.7001 94.2173C71.9181 99.5013 70.5611 107.524 62.8641 115.734C62.7767 115.828 62.6717 115.903 62.5552 115.955C62.4388 116.008 62.313 116.037 62.1852 116.042C62.0574 116.046 61.9301 116.024 61.8105 115.979C61.6909 115.934 61.5813 115.866 61.4881 115.778L61.4911 115.777ZM44.9911 60.6373C44.8499 60.4213 44.8003 60.158 44.8531 59.9054C44.906 59.6528 45.0571 59.4316 45.2731 59.2903C45.4891 59.1491 45.7524 59.0995 46.005 59.1524C46.2576 59.2052 46.4789 59.3563 46.6201 59.5723C46.6931 59.6723 47.9801 61.3553 51.7051 59.5833C51.9382 59.4726 52.2058 59.459 52.4489 59.5456C52.6921 59.6321 52.8909 59.8117 53.0016 60.0448C53.1123 60.278 53.1259 60.5455 53.0394 60.7887C52.9528 61.0318 52.7732 61.2306 52.5401 61.3413C51.3426 61.958 50.0225 62.2996 48.6761 62.3413C47.9703 62.3786 47.2661 62.2425 46.625 61.945C45.9838 61.6474 45.4253 61.1974 44.9981 60.6343L44.9911 60.6373ZM39.9911 57.3863C39.8613 57.2971 39.755 57.1777 39.6815 57.0383C39.608 56.899 39.5694 56.7439 39.5691 56.5863V50.5273C39.5691 50.2693 39.6716 50.0218 39.8541 49.8393C40.0366 49.6568 40.2841 49.5543 40.5421 49.5543C40.8002 49.5543 41.0477 49.6568 41.2301 49.8393C41.4126 50.0218 41.5151 50.2693 41.5151 50.5273V55.1603L44.3661 54.0603C44.4854 54.0144 44.6126 53.9924 44.7404 53.9955C44.8682 53.9987 44.9942 54.0271 45.111 54.0789C45.2279 54.1308 45.3334 54.2052 45.4215 54.2978C45.5096 54.3904 45.5787 54.4995 45.6246 54.6188C45.6706 54.7381 45.6926 54.8653 45.6894 54.9931C45.6862 55.121 45.6579 55.2469 45.606 55.3637C45.5541 55.4806 45.4798 55.5861 45.3871 55.6742C45.2945 55.7624 45.1854 55.8314 45.0661 55.8773L40.8921 57.4773C40.7447 57.5336 40.5858 57.5533 40.4291 57.5349C40.2724 57.5164 40.1225 57.4603 39.9921 57.3713L39.9911 57.3863ZM34.4771 53.5743C34.1899 53.5229 33.9157 53.415 33.6704 53.2569C33.4251 53.0989 33.2136 52.8937 33.0481 52.6533L30.9941 49.6873C30.8472 49.4752 30.7906 49.2133 30.8367 48.9594C30.8828 48.7055 31.0279 48.4803 31.2401 48.3333C31.4523 48.1864 31.7141 48.1298 31.9681 48.1759C32.222 48.222 32.4472 48.3672 32.5941 48.5793L34.6481 51.5453C34.6685 51.5754 34.6948 51.601 34.7254 51.6206C34.756 51.6402 34.7903 51.6534 34.8261 51.6593C34.8616 51.6666 34.8983 51.6665 34.9337 51.6589C34.9692 51.6514 35.0027 51.6365 35.0321 51.6153C35.0901 51.576 35.1306 51.5158 35.1451 51.4473L35.8701 48.1073C35.8923 47.9779 35.9405 47.8543 36.0118 47.7439C36.0831 47.6336 36.1759 47.5389 36.2848 47.4654C36.3937 47.3919 36.5163 47.3413 36.6453 47.3165C36.7743 47.2917 36.9069 47.2932 37.0353 47.321C37.1636 47.3489 37.285 47.4024 37.3922 47.4784C37.4993 47.5544 37.5899 47.6513 37.6585 47.7633C37.7272 47.8753 37.7725 48 37.7917 48.1299C37.8108 48.2598 37.8035 48.3923 37.7701 48.5193L37.0471 51.8553C36.9261 52.4192 36.5901 52.9138 36.1105 53.2341C35.6309 53.5545 35.0454 53.6754 34.4781 53.5713L34.4771 53.5743ZM49.8381 50.4923L47.7841 47.5263C47.6372 47.3142 47.5806 47.0523 47.6267 46.7984C47.6728 46.5445 47.8179 46.3193 48.0301 46.1723C48.2423 46.0254 48.5041 45.9688 48.7581 46.0149C49.012 46.061 49.2372 46.2062 49.3841 46.4183L51.4381 49.3853C51.4685 49.4307 51.5116 49.466 51.5621 49.4868C51.6125 49.5076 51.668 49.513 51.7215 49.5023C51.775 49.4916 51.8242 49.4653 51.8627 49.4267C51.9013 49.388 51.9275 49.3389 51.9381 49.2853L52.6611 45.9493C52.7249 45.7068 52.8798 45.4983 53.0935 45.3673C53.3072 45.2362 53.5633 45.1927 53.8083 45.2458C54.0534 45.2989 54.2684 45.4446 54.4087 45.6524C54.5489 45.8603 54.6035 46.1142 54.5611 46.3613L53.8381 49.6973C53.7468 50.1211 53.5334 50.5088 53.2245 50.8128C52.9155 51.1169 52.5243 51.3239 52.0992 51.4084C51.674 51.4929 51.2334 51.4512 50.8317 51.2884C50.4299 51.1256 50.0846 50.8489 49.8381 50.4923Z" fill="#FF6F00" stroke="#FCF0E1" stroke-width="0.5"/>
  </g>
</svg>