<svg width="34" height="48" viewBox="0 0 34 48" fill="none" xmlns="http://www.w3.org/2000/svg">
<mask id="mask0_968_752" style="mask-type:luminance" maskUnits="userSpaceOnUse" x="0" y="0" width="34" height="48">
<path d="M33.894 0H0.10498V48H33.894V0Z" fill="white"/>
</mask>
<g mask="url(#mask0_968_752)">
<path d="M32.485 47.9961C32.2074 47.996 31.936 47.9139 31.705 47.7601L16.999 37.9961L2.29398 47.7641C2.08211 47.9049 1.83606 47.9858 1.58194 47.9981C1.32783 48.0103 1.07513 47.9536 0.850676 47.8338C0.626218 47.714 0.438375 47.5357 0.307085 47.3178C0.175794 47.0999 0.105955 46.8505 0.10498 46.5961L0.10498 6.35809C0.106039 4.6718 0.77611 3.05482 1.96812 1.86206C3.16013 0.669301 4.77669 -0.00178746 6.46298 -0.00390625L27.535 -0.00390625C29.2206 -0.00178933 30.8365 0.668749 32.0284 1.86065C33.2203 3.05254 33.8909 4.6685 33.893 6.35409V46.5961C33.8906 46.968 33.7412 47.324 33.4775 47.5862C33.2137 47.8485 32.8569 47.9958 32.485 47.9961ZM6.46298 2.81809C5.52452 2.81942 4.62488 3.1928 3.96128 3.8564C3.29769 4.51999 2.9243 5.41963 2.92298 6.35809V43.9581L16.223 35.1221C16.4541 34.9685 16.7255 34.8865 17.003 34.8865C17.2805 34.8865 17.5519 34.9685 17.783 35.1221L31.083 43.9581V6.35809C31.0817 5.41825 30.7072 4.51739 30.0418 3.85357C29.3765 3.18975 28.4748 2.8173 27.535 2.81809H6.46298Z" fill="#FF6F00" stroke="#FF6F00" stroke-width="3" stroke-linecap="round"/>
</g>
</svg>
