<svg width="current" height="current" viewBox="0 0 48 48" fill="none" xmlns="http://www.w3.org/2000/svg">
<mask id="mask0_968_744" style="mask-type:luminance" maskUnits="userSpaceOnUse" x="0" y="0" width="48" height="48">
<path d="M48 0H0V47.068H48V0Z" fill="white"/>
</mask>
<g mask="url(#mask0_968_744)">
<path d="M24 25.4561C26.944 25.4547 29.7964 24.4325 32.0712 22.5638C34.3461 20.6951 35.9026 18.0954 36.4755 15.2077C37.0485 12.32 36.6025 9.32301 35.2135 6.7273C33.8245 4.1316 31.5784 2.09781 28.858 0.972467C26.1376 -0.152875 23.1112 -0.300144 20.2944 0.555753C17.4775 1.41165 15.0446 3.21776 13.4102 5.66634C11.7757 8.11492 11.0408 11.0545 11.3307 13.9841C11.6206 16.9138 12.9174 19.6523 15 21.7331C16.1811 22.9157 17.5842 23.8534 19.1287 24.4923C20.6731 25.1312 22.3286 25.4587 24 25.4561ZM17.982 6.71211C19.1724 5.52171 20.6891 4.71105 22.3403 4.38264C23.9914 4.05423 25.7029 4.22281 27.2583 4.86707C28.8136 5.51133 30.143 6.60234 31.0783 8.00212C32.0136 9.40191 32.5128 11.0476 32.5128 12.7311C32.5128 14.4146 32.0136 16.0603 31.0783 17.4601C30.143 18.8599 28.8136 19.9509 27.2583 20.5951C25.7029 21.2394 23.9914 21.408 22.3403 21.0796C20.6891 20.7512 19.1724 19.9405 17.982 18.7501C17.1848 17.9635 16.5519 17.0263 16.1198 15.9931C15.6878 14.9598 15.4653 13.851 15.4653 12.7311C15.4653 11.6112 15.6878 10.5024 16.1198 9.46913C16.5519 8.43587 17.1848 7.49873 17.982 6.71211Z" fill="#FF6F00"/>
<path d="M46.618 42.6931C44.7371 38.2492 41.5889 34.4578 37.5663 31.7923C33.5437 29.1268 28.8251 27.7053 23.9995 27.7053C19.1739 27.7053 14.4553 29.1268 10.4327 31.7923C6.41014 34.4578 3.26187 38.2492 1.381 42.6931C0.78406 44.1048 0.321677 45.5696 0 47.0681H4.471C5.61053 42.758 8.14393 38.9459 11.6764 36.226C15.2088 33.5062 19.5418 32.0313 24 32.0313C28.4582 32.0313 32.7912 33.5062 36.3236 36.226C39.8561 38.9459 42.3895 42.758 43.529 47.0681H48C47.678 45.5696 47.2153 44.1047 46.618 42.6931Z" fill="#FF6F00"/>
</g>
</svg>
