<svg width="85" height="92" viewBox="0 0 85 92" fill="none" xmlns="http://www.w3.org/2000/svg">
<path d="M15.16 51.9288C15.0296 51.9286 14.9001 51.9063 14.777 51.8628C9.91304 50.1528 7.30704 47.7838 7.03104 44.8188C6.47004 38.7948 15.938 33.1448 17.019 32.5188C17.2843 32.3655 17.5995 32.3238 17.8954 32.403C18.1914 32.4821 18.4437 32.6756 18.597 32.9408C18.7503 33.206 18.792 33.5213 18.7129 33.8172C18.6337 34.1131 18.4402 34.3655 18.175 34.5188C15.593 36.0128 8.97505 40.7358 9.33205 44.6028C9.51805 46.5878 11.607 48.2958 15.544 49.6788C15.801 49.7696 16.0177 49.9482 16.1557 50.1832C16.2938 50.4182 16.3444 50.6945 16.2986 50.9631C16.2528 51.2318 16.1135 51.4756 15.9053 51.6516C15.6972 51.8276 15.4336 51.9243 15.161 51.9248" fill="#FF6F00"/>
<path d="M15.16 51.9288C15.0296 51.9286 14.9001 51.9063 14.777 51.8628C9.91304 50.1528 7.30704 47.7838 7.03104 44.8188C6.47004 38.7948 15.938 33.1448 17.019 32.5188C17.2843 32.3655 17.5995 32.3238 17.8954 32.403C18.1914 32.4821 18.4437 32.6756 18.597 32.9408C18.7503 33.206 18.792 33.5213 18.7129 33.8172C18.6337 34.1131 18.4402 34.3655 18.175 34.5188C15.593 36.0128 8.97505 40.7358 9.33205 44.6028C9.51805 46.5878 11.607 48.2958 15.544 49.6788C15.801 49.7696 16.0177 49.9482 16.1557 50.1832C16.2938 50.4182 16.3444 50.6945 16.2986 50.9631C16.2528 51.2318 16.1135 51.4756 15.9053 51.6516C15.6972 51.8276 15.4336 51.9243 15.161 51.9248" stroke="#FF6F00" stroke-width="0.5"/>
<path d="M19.547 52.496C18.3212 52.4967 17.1093 52.2362 15.992 51.732C15.2759 51.4817 14.6404 51.0432 14.1523 50.4625C13.6642 49.8818 13.3414 49.1804 13.218 48.432C12.852 45.393 16.46 42.403 16.873 42.072C17.1131 41.8967 17.4115 41.8206 17.7062 41.8596C18.001 41.8986 18.2694 42.0496 18.4556 42.2813C18.6419 42.513 18.7317 42.8076 18.7065 43.1038C18.6812 43.4 18.5428 43.6751 18.32 43.872C17.148 44.817 15.35 46.815 15.512 48.155C15.537 48.364 15.612 49.001 16.956 49.626C17.9612 50.0759 19.0662 50.2565 20.1624 50.1501C21.2585 50.0437 22.3081 49.6539 23.208 49.019L29.527 44.629C29.779 44.4542 30.09 44.3867 30.3918 44.4412C30.6935 44.4958 30.9612 44.668 31.136 44.92C31.3108 45.1719 31.3783 45.483 31.3237 45.7847C31.2692 46.0865 31.097 46.3542 30.845 46.529L24.534 50.913C23.0741 51.942 21.3311 52.4933 19.545 52.491" fill="#FF6F00"/>
<path d="M19.547 52.496C18.3212 52.4967 17.1093 52.2362 15.992 51.732C15.2759 51.4817 14.6404 51.0432 14.1523 50.4625C13.6642 49.8818 13.3414 49.1804 13.218 48.432C12.852 45.393 16.46 42.403 16.873 42.072C17.1131 41.8967 17.4115 41.8206 17.7062 41.8596C18.001 41.8986 18.2694 42.0496 18.4556 42.2813C18.6419 42.513 18.7317 42.8076 18.7065 43.1038C18.6812 43.4 18.5428 43.6751 18.32 43.872C17.148 44.817 15.35 46.815 15.512 48.155C15.537 48.364 15.612 49.001 16.956 49.626C17.9612 50.0759 19.0662 50.2565 20.1624 50.1501C21.2585 50.0437 22.3081 49.6539 23.208 49.019L29.527 44.629C29.779 44.4542 30.09 44.3867 30.3918 44.4412C30.6935 44.4958 30.9612 44.668 31.136 44.92C31.3108 45.1719 31.3783 45.483 31.3237 45.7847C31.2692 46.0865 31.097 46.3542 30.845 46.529L24.534 50.913C23.0741 51.942 21.3311 52.4933 19.545 52.491" stroke="#FF6F00" stroke-width="0.5"/>
<path d="M37.574 49.9519C36.5811 49.9515 35.5897 49.8763 34.6081 49.7269C31.1711 49.1839 28.8581 47.8669 27.7271 45.8129C27.2913 44.9342 27.0461 43.9734 27.0073 42.9934C26.9685 42.0134 27.1371 41.0362 27.5021 40.1259C27.6262 39.8494 27.854 39.6327 28.1364 39.5225C28.4187 39.4123 28.7331 39.4174 29.0117 39.5367C29.2903 39.656 29.511 39.88 29.6261 40.1604C29.7411 40.4408 29.7415 40.7552 29.6271 41.0359C29.3986 41.6263 29.2927 42.257 29.3157 42.8896C29.3388 43.5223 29.4903 44.1436 29.7611 44.7159C30.5351 46.1029 32.2851 47.0159 34.9611 47.4439C38.3537 47.9605 41.8234 47.4568 44.9291 45.9969L46.7621 45.1509C47.0405 45.0225 47.3586 45.01 47.6463 45.1162C47.934 45.2223 48.1677 45.4384 48.2961 45.7169C48.4244 45.9953 48.4369 46.3134 48.3308 46.6011C48.2246 46.8888 48.0085 47.1225 47.7301 47.2509L45.9041 48.0939C43.2974 49.3184 40.453 49.9534 37.5731 49.9539" fill="#FF6F00"/>
<path d="M37.574 49.9519C36.5811 49.9515 35.5897 49.8763 34.6081 49.7269C31.1711 49.1839 28.8581 47.8669 27.7271 45.8129C27.2913 44.9342 27.0461 43.9734 27.0073 42.9934C26.9685 42.0134 27.1371 41.0362 27.5021 40.1259C27.6262 39.8494 27.854 39.6327 28.1364 39.5225C28.4187 39.4123 28.7331 39.4174 29.0117 39.5367C29.2903 39.656 29.511 39.88 29.6261 40.1604C29.7411 40.4408 29.7415 40.7552 29.6271 41.0359C29.3986 41.6263 29.2927 42.257 29.3157 42.8896C29.3388 43.5223 29.4903 44.1436 29.7611 44.7159C30.5351 46.1029 32.2851 47.0159 34.9611 47.4439C38.3537 47.9605 41.8234 47.4568 44.9291 45.9969L46.7621 45.1509C47.0405 45.0225 47.3586 45.01 47.6463 45.1162C47.934 45.2223 48.1677 45.4384 48.2961 45.7169C48.4244 45.9953 48.4369 46.3134 48.3308 46.6011C48.2246 46.8888 48.0085 47.1225 47.7301 47.2509L45.9041 48.0939C43.2974 49.3184 40.453 49.9534 37.5731 49.9539" stroke="#FF6F00" stroke-width="0.5"/>
<path d="M50.906 47.6039C48.6957 47.6957 46.5066 47.1418 44.606 46.0099C43.7947 45.5101 43.0988 44.8438 42.5644 44.0549C42.03 43.266 41.6692 42.3726 41.506 41.4339C41.4719 41.1289 41.5604 40.8228 41.752 40.583C41.9435 40.3433 42.2225 40.1894 42.5275 40.1554C42.8325 40.1213 43.1386 40.2098 43.3783 40.4013C43.6181 40.5929 43.7719 40.8719 43.806 41.1769C43.9338 41.7859 44.1881 42.3614 44.5524 42.866C44.9168 43.3705 45.383 43.793 45.921 44.1059C47.833 45.3159 51.809 46.2059 59.895 43.5929C60.0395 43.5461 60.1917 43.5283 60.343 43.5403C60.4944 43.5524 60.6419 43.5942 60.7771 43.6633C60.9123 43.7324 61.0326 43.8274 61.131 43.943C61.2295 44.0586 61.3043 44.1924 61.351 44.3369C61.3978 44.4813 61.4156 44.6336 61.4035 44.7849C61.3914 44.9362 61.3496 45.0837 61.2805 45.2189C61.2115 45.3541 61.1164 45.4744 61.0008 45.5729C60.8853 45.6714 60.7515 45.7461 60.607 45.7929C57.4856 46.8903 54.2141 47.5015 50.907 47.6049" fill="#FF6F00"/>
<path d="M50.906 47.6039C48.6957 47.6957 46.5066 47.1418 44.606 46.0099C43.7947 45.5101 43.0988 44.8438 42.5644 44.0549C42.03 43.266 41.6692 42.3726 41.506 41.4339C41.4719 41.1289 41.5604 40.8228 41.752 40.583C41.9435 40.3433 42.2225 40.1894 42.5275 40.1554C42.8325 40.1213 43.1386 40.2098 43.3783 40.4013C43.6181 40.5929 43.7719 40.8719 43.806 41.1769C43.9338 41.7859 44.1881 42.3614 44.5524 42.866C44.9168 43.3705 45.383 43.793 45.921 44.1059C47.833 45.3159 51.809 46.2059 59.895 43.5929C60.0395 43.5461 60.1917 43.5283 60.343 43.5403C60.4944 43.5524 60.6419 43.5942 60.7771 43.6633C60.9123 43.7324 61.0326 43.8274 61.131 43.943C61.2295 44.0586 61.3043 44.1924 61.351 44.3369C61.3978 44.4813 61.4156 44.6336 61.4035 44.7849C61.3914 44.9362 61.3496 45.0837 61.2805 45.2189C61.2114 45.3541 61.1164 45.4744 61.0008 45.5729C60.8853 45.6714 60.7515 45.7461 60.607 45.7929C57.4856 46.8903 54.2141 47.5015 50.907 47.6049" stroke="#FF6F00" stroke-width="0.5"/>
<path d="M61.334 86.886C58.3 86.886 55.493 85.926 53.825 84.033C52.182 82.171 50.348 77.954 56.518 70.643C66.795 58.464 56.533 42.098 56.429 41.935C56.2635 41.6771 56.2073 41.364 56.2726 41.0646C56.338 40.7652 56.5196 40.504 56.7775 40.3385C57.0355 40.173 57.3486 40.1167 57.648 40.1821C57.9474 40.2475 58.2085 40.4291 58.374 40.687C60.3349 43.9531 61.7742 47.5052 62.64 51.215C64.52 59.297 63.013 66.531 58.285 72.134C54.542 76.57 53.574 80.253 55.559 82.505C57.939 85.205 64.059 85.247 68.145 82.594C68.2723 82.507 68.4156 82.4464 68.5667 82.4157C68.7177 82.3849 68.8734 82.3847 69.0245 82.415C69.1756 82.4453 69.3192 82.5055 69.4467 82.5921C69.5742 82.6787 69.6831 82.79 69.767 82.9193C69.8509 83.0486 69.9081 83.1933 69.9352 83.3451C69.9623 83.4968 69.9588 83.6524 69.9249 83.8028C69.891 83.9532 69.8273 84.0952 69.7377 84.2206C69.6481 84.346 69.5343 84.4522 69.403 84.533C66.9915 86.068 64.1926 86.8842 61.334 86.886Z" fill="#FF6F00" stroke="#FF6F00" stroke-width="0.5"/>
<path d="M72.076 85.0368C69.9429 85.0702 67.8769 84.2918 66.2961 82.8592C64.7153 81.4266 63.738 79.4468 63.562 77.3208C63.5296 77.0158 63.6198 76.7104 63.8126 76.4719C64.0054 76.2333 64.285 76.0811 64.59 76.0488C64.895 76.0164 65.2004 76.1065 65.4389 76.2993C65.6775 76.4921 65.8297 76.7718 65.862 77.0768C65.93 77.6878 66.695 83.0358 72.593 82.7108C75.0045 82.5319 77.2683 81.481 78.9614 79.7546C80.6546 78.0282 81.6611 75.7443 81.793 73.3298C81.9589 70.9336 81.5974 68.5301 80.734 66.2888C77.544 58.0118 67.847 39.5558 67.75 39.3698C67.6133 39.0991 67.5884 38.7854 67.6808 38.4965C67.7732 38.2077 67.9754 37.9667 68.2438 37.8255C68.5122 37.6843 68.8254 37.6543 69.1158 37.7419C69.4061 37.8295 69.6504 38.0277 69.796 38.2938C70.196 39.0558 79.654 57.0558 82.89 65.4558C83.8755 68.0135 84.2882 70.7563 84.099 73.4908C83.9273 76.4667 82.6776 79.2782 80.5835 81.3997C78.4895 83.5212 75.6945 84.8074 72.721 85.0178C72.5017 85.0298 72.2867 85.0368 72.076 85.0368Z" fill="#FF6F00" stroke="#FF6F00" stroke-width="0.5"/>
<path d="M17.598 83.051C17.5143 83.0511 17.4308 83.042 17.349 83.024L12.349 81.924C10.1848 81.4475 8.159 80.4801 6.42802 79.0964C4.69705 77.7127 3.30718 75.9497 2.36572 73.9436C1.42427 71.9375 0.95641 69.7419 0.998244 67.5262C1.04008 65.3105 1.59049 63.1341 2.60701 61.165C5.02592 56.6817 7.98094 52.509 11.407 48.739C11.6181 48.5227 11.9055 48.3977 12.2076 48.3907C12.5098 48.3837 12.8027 48.4954 13.0235 48.7017C13.2443 48.908 13.3756 49.1926 13.3891 49.4945C13.4027 49.7965 13.2975 50.0917 13.096 50.317C9.8216 53.9381 6.98907 57.9354 4.658 62.225C3.80392 63.8795 3.34145 65.7082 3.30627 67.5699C3.2711 69.4315 3.66418 71.2764 4.45515 72.962C5.24613 74.6477 6.41385 76.129 7.86819 77.2917C9.32253 78.4545 11.0246 79.2675 12.843 79.668L17.843 80.768C18.1202 80.8301 18.3648 80.9921 18.5301 81.2231C18.6955 81.4541 18.77 81.7379 18.7395 82.0203C18.7089 82.3027 18.5755 82.564 18.3646 82.7543C18.1537 82.9446 17.8801 83.0505 17.596 83.052" fill="#FF6F00"/>
<path d="M17.598 83.051C17.5143 83.0511 17.4308 83.042 17.349 83.024L12.349 81.924C10.1848 81.4475 8.159 80.4801 6.42802 79.0964C4.69705 77.7127 3.30718 75.9497 2.36572 73.9436C1.42427 71.9375 0.95641 69.7419 0.998244 67.5262C1.04008 65.3105 1.59049 63.1341 2.60701 61.165C5.02592 56.6817 7.98094 52.509 11.407 48.739C11.6181 48.5227 11.9055 48.3977 12.2076 48.3907C12.5098 48.3837 12.8027 48.4954 13.0235 48.7017C13.2443 48.908 13.3756 49.1926 13.3891 49.4945C13.4027 49.7965 13.2975 50.0917 13.096 50.317C9.8216 53.9381 6.98907 57.9354 4.658 62.225C3.80392 63.8795 3.34145 65.7082 3.30627 67.5699C3.2711 69.4315 3.66418 71.2764 4.45515 72.962C5.24613 74.6477 6.41385 76.129 7.86819 77.2917C9.32254 78.4545 11.0246 79.2675 12.843 79.668L17.843 80.768C18.1202 80.8301 18.3648 80.9921 18.5301 81.2231C18.6955 81.4541 18.77 81.7379 18.7395 82.0203C18.7089 82.3027 18.5755 82.564 18.3646 82.7543C18.1537 82.9446 17.8801 83.0505 17.596 83.052" stroke="#FF6F00" stroke-width="0.5"/>
<path d="M37.696 63.8558C37.5442 63.8559 37.3938 63.8261 37.2535 63.7681C37.1132 63.71 36.9857 63.6249 36.8783 63.5175C36.771 63.4101 36.6858 63.2827 36.6278 63.1423C36.5697 63.002 36.5399 62.8516 36.54 62.6998V55.5158C36.5489 55.2152 36.6745 54.9299 36.8902 54.7205C37.106 54.511 37.3949 54.3938 37.6956 54.3938C37.9963 54.3938 38.2851 54.511 38.5009 54.7205C38.7166 54.9299 38.8422 55.2152 38.851 55.5158V61.0158L42.238 59.7158C42.5231 59.6111 42.8379 59.6227 43.1144 59.7481C43.3909 59.8736 43.607 60.1028 43.7159 60.3863C43.8248 60.6698 43.8178 60.9847 43.6964 61.2631C43.575 61.5414 43.3489 61.7608 43.067 61.8738L38.11 63.7738C37.9779 63.8245 37.8376 63.8506 37.696 63.8508" fill="#FF6F00"/>
<path d="M37.696 63.8558C37.5442 63.8559 37.3938 63.8261 37.2535 63.7681C37.1132 63.71 36.9857 63.6249 36.8783 63.5175C36.771 63.4101 36.6858 63.2827 36.6278 63.1423C36.5697 63.002 36.5399 62.8516 36.54 62.6998V55.5158C36.5489 55.2152 36.6745 54.9299 36.8902 54.7205C37.106 54.511 37.3949 54.3938 37.6956 54.3938C37.9963 54.3938 38.2851 54.511 38.5009 54.7205C38.7166 54.9299 38.8422 55.2152 38.851 55.5158V61.0158L42.238 59.7158C42.5231 59.6111 42.8379 59.6227 43.1144 59.7481C43.3909 59.8736 43.607 60.1028 43.7159 60.3863C43.8248 60.6698 43.8178 60.9847 43.6964 61.2631C43.575 61.5414 43.3489 61.7608 43.067 61.8738L38.11 63.7738C37.9779 63.8245 37.8376 63.8506 37.696 63.8508" stroke="#FF6F00" stroke-width="0.1"/>
<path d="M30.97 59.17C30.8097 59.1701 30.6497 59.1557 30.492 59.127C30.1503 59.0662 29.8241 58.9383 29.5323 58.7505C29.2405 58.5627 28.9889 58.3188 28.792 58.033L26.353 54.511C26.1878 54.2588 26.1275 53.9521 26.1852 53.6562C26.2428 53.3603 26.4138 53.0986 26.6616 52.9269C26.9095 52.7553 27.2146 52.6872 27.5118 52.7373C27.8091 52.7874 28.0751 52.9516 28.253 53.195L30.692 56.717C30.7162 56.7527 30.7474 56.7832 30.7836 56.8065C30.8199 56.8299 30.8605 56.8457 30.903 56.853C30.9453 56.8614 30.9889 56.861 31.031 56.8519C31.0731 56.8428 31.113 56.8251 31.148 56.8C31.2166 56.7529 31.2646 56.6813 31.282 56.6L32.14 52.638C32.1721 52.4896 32.2331 52.3491 32.3196 52.2243C32.406 52.0996 32.5162 51.9931 32.6437 51.9109C32.7713 51.8287 32.9138 51.7725 33.0632 51.7454C33.2125 51.7183 33.3657 51.7209 33.514 51.753C33.6623 51.7851 33.8029 51.8461 33.9276 51.9325C34.0524 52.0189 34.1589 52.1291 34.2411 52.2567C34.3233 52.3843 34.3795 52.5268 34.4066 52.6761C34.4337 52.8254 34.4311 52.9786 34.399 53.127L33.54 57.088C33.4126 57.6762 33.088 58.2032 32.62 58.5817C32.1521 58.9601 31.5689 59.1673 30.967 59.169" fill="#FF6F00"/>
<path d="M30.97 59.17C30.8097 59.1701 30.6497 59.1557 30.492 59.127C30.1503 59.0662 29.8241 58.9383 29.5323 58.7505C29.2405 58.5627 28.9889 58.3188 28.792 58.033L26.353 54.511C26.1878 54.2588 26.1275 53.9521 26.1852 53.6562C26.2428 53.3603 26.4138 53.0986 26.6616 52.9269C26.9095 52.7553 27.2146 52.6872 27.5118 52.7373C27.8091 52.7874 28.0751 52.9516 28.253 53.195L30.692 56.717C30.7162 56.7527 30.7474 56.7832 30.7836 56.8065C30.8199 56.8299 30.8605 56.8457 30.903 56.853C30.9453 56.8614 30.9889 56.861 31.031 56.8519C31.0731 56.8428 31.113 56.8251 31.148 56.8C31.2166 56.7529 31.2646 56.6813 31.282 56.6L32.14 52.638C32.1721 52.4896 32.2331 52.3491 32.3196 52.2243C32.406 52.0996 32.5162 51.9931 32.6437 51.9109C32.7713 51.8287 32.9138 51.7725 33.0632 51.7454C33.2125 51.7183 33.3657 51.7209 33.514 51.753C33.6623 51.7851 33.8029 51.8461 33.9276 51.9325C34.0524 52.0189 34.1589 52.1291 34.2411 52.2567C34.3233 52.3843 34.3795 52.5268 34.4066 52.6761C34.4337 52.8254 34.4311 52.9786 34.399 53.127L33.54 57.088C33.4126 57.6762 33.088 58.2032 32.62 58.5817C32.1521 58.9601 31.5689 59.1673 30.967 59.169" stroke="#FF6F00" stroke-width="0.1"/>
<path d="M50.909 56.601C50.4819 56.6017 50.061 56.4987 49.6825 56.3008C49.304 56.1029 48.9792 55.8161 48.736 55.465L46.297 51.942C46.1317 51.6899 46.0715 51.3831 46.1291 51.0872C46.1868 50.7913 46.3578 50.5296 46.6056 50.358C46.8534 50.1863 47.1585 50.1183 47.4558 50.1683C47.7531 50.2184 48.0191 50.3826 48.197 50.626L50.636 54.149C50.6722 54.2016 50.7231 54.2424 50.7822 54.2664C50.8414 54.2905 50.9063 54.2966 50.969 54.2842C51.0316 54.2717 51.0892 54.2412 51.1347 54.1964C51.1802 54.1516 51.2116 54.0944 51.225 54.032L52.084 50.07C52.1129 49.9186 52.1719 49.7745 52.2574 49.6462C52.3428 49.5179 52.4531 49.408 52.5817 49.3229C52.7103 49.2379 52.8546 49.1794 53.0061 49.1509C53.1576 49.1225 53.3133 49.1247 53.464 49.1573C53.6147 49.1899 53.7573 49.2523 53.8835 49.3409C54.0097 49.4294 54.1169 49.5424 54.1988 49.673C54.2807 49.8036 54.3356 49.9492 54.3604 50.1014C54.3852 50.2536 54.3792 50.4092 54.343 50.559L53.485 54.521C53.3578 55.1096 53.0329 55.637 52.5645 56.0154C52.096 56.3938 51.5112 56.6004 50.909 56.601Z" fill="#FF6F00" stroke="#FF6F00" stroke-width="0.1"/>
<path d="M47.355 69.5408C46.5153 69.5867 45.6772 69.4259 44.9141 69.0725C44.151 68.7191 43.4862 68.1838 42.9781 67.5137C42.8196 67.2572 42.7676 66.9489 42.8333 66.6546C42.8989 66.3604 43.0769 66.1033 43.3293 65.9384C43.5818 65.7735 43.8887 65.7138 44.1845 65.772C44.4804 65.8301 44.7418 66.0016 44.9131 66.2498C44.9991 66.3708 46.5281 68.3667 50.9521 66.2627C51.0895 66.1945 51.2392 66.1544 51.3923 66.1447C51.5455 66.1349 51.6991 66.1558 51.8441 66.206C51.9891 66.2562 52.1226 66.3348 52.2369 66.4372C52.3513 66.5396 52.444 66.6637 52.5099 66.8023C52.5757 66.9409 52.6133 67.0912 52.6205 67.2445C52.6276 67.3978 52.6042 67.551 52.5515 67.6951C52.4988 67.8392 52.418 67.9715 52.3137 68.084C52.2094 68.1966 52.0838 68.2873 51.9441 68.3508C50.5221 69.0843 48.9543 69.4912 47.355 69.5418" fill="#FF6F00"/>
<path d="M47.355 69.5408C46.5153 69.5867 45.6772 69.4259 44.9141 69.0725C44.151 68.7191 43.4862 68.1838 42.9781 67.5137C42.8196 67.2572 42.7676 66.9489 42.8333 66.6546C42.8989 66.3604 43.0769 66.1033 43.3293 65.9384C43.5818 65.7735 43.8887 65.7138 44.1845 65.772C44.4804 65.8301 44.7418 66.0016 44.9131 66.2498C44.9991 66.3708 46.5281 68.3667 50.9521 66.2627C51.0895 66.1945 51.2392 66.1544 51.3923 66.1447C51.5455 66.1349 51.6991 66.1558 51.8441 66.206C51.9891 66.2562 52.1226 66.3348 52.2369 66.4372C52.3513 66.5396 52.444 66.6637 52.5099 66.8023C52.5757 66.9409 52.6133 67.0912 52.6205 67.2445C52.6276 67.3978 52.6042 67.551 52.5515 67.6951C52.4988 67.8392 52.418 67.9715 52.3137 68.084C52.2094 68.1966 52.0838 68.2873 51.9441 68.3508C50.5221 69.0843 48.9543 69.4912 47.355 69.5418" stroke="#FF6F00" stroke-width="0.1"/>
<path d="M22.267 85.6108C22.0227 85.6108 21.7846 85.5334 21.5869 85.3897C21.3893 85.246 21.2423 85.0433 21.167 84.8108L19.834 80.7318C18.479 77.2028 14.257 65.6128 15.98 62.5788C16.1241 62.3125 16.3265 62.0821 16.572 61.9048C16.8175 61.7275 17.0999 61.6078 17.398 61.5548C19.423 61.2068 21.181 63.1988 22.941 67.8258C23.6853 69.8235 24.3133 71.8626 24.822 73.9328C24.8571 74.0804 24.8627 74.2335 24.8386 74.3833C24.8146 74.5331 24.7612 74.6766 24.6816 74.8058C24.6021 74.935 24.4978 75.0472 24.3748 75.1361C24.2519 75.225 24.1127 75.2888 23.965 75.3238C23.8174 75.3589 23.6644 75.3645 23.5146 75.3404C23.3648 75.3163 23.2212 75.263 23.092 75.1834C22.9629 75.1038 22.8507 74.9996 22.7618 74.8766C22.6729 74.7537 22.6091 74.6144 22.574 74.4668C22.0847 72.4887 21.4837 70.54 20.774 68.6298C19.321 64.8148 18.291 64.0298 17.932 63.8728C17.796 64.3728 17.613 66.2608 19.432 72.3498C20.596 76.2498 21.991 79.8948 22.006 79.9318C22.013 79.9498 22.02 79.9688 22.025 79.9878L23.367 84.0938C23.4238 84.2675 23.4386 84.4521 23.4101 84.6326C23.3817 84.813 23.311 84.9842 23.2036 85.132C23.0963 85.2798 22.9555 85.4001 22.7927 85.483C22.6299 85.5659 22.4497 85.609 22.267 85.6088" fill="#FF6F00"/>
<path d="M22.267 85.6108C22.0227 85.6108 21.7846 85.5334 21.5869 85.3897C21.3893 85.246 21.2423 85.0433 21.167 84.8108L19.834 80.7318C18.479 77.2028 14.257 65.6128 15.98 62.5788C16.1241 62.3125 16.3265 62.0821 16.572 61.9048C16.8175 61.7275 17.0999 61.6078 17.398 61.5548C19.423 61.2068 21.181 63.1988 22.941 67.8258C23.6853 69.8235 24.3133 71.8626 24.822 73.9328C24.8571 74.0804 24.8627 74.2335 24.8386 74.3833C24.8146 74.5331 24.7612 74.6766 24.6816 74.8058C24.6021 74.935 24.4978 75.0472 24.3748 75.1361C24.2519 75.225 24.1127 75.2888 23.965 75.3238C23.8174 75.3589 23.6644 75.3645 23.5146 75.3404C23.3648 75.3163 23.2212 75.263 23.092 75.1834C22.9629 75.1038 22.8507 74.9996 22.7618 74.8766C22.6729 74.7537 22.6091 74.6144 22.574 74.4668C22.0847 72.4887 21.4837 70.54 20.774 68.6298C19.321 64.8148 18.291 64.0298 17.932 63.8728C17.796 64.3728 17.613 66.2608 19.432 72.3498C20.596 76.2498 21.991 79.8948 22.006 79.9318C22.013 79.9498 22.02 79.9688 22.025 79.9878L23.367 84.0938C23.4238 84.2675 23.4386 84.4521 23.4101 84.6326C23.3817 84.813 23.311 84.9842 23.2036 85.132C23.0963 85.2798 22.9555 85.4001 22.7927 85.483C22.6299 85.5659 22.4497 85.609 22.267 85.6088" stroke="#FF6F00" stroke-width="0.5"/>
<path d="M26.867 73.3159C26.6014 73.3157 26.3439 73.224 26.1379 73.0563C25.9319 72.8886 25.79 72.655 25.736 72.3949C25.3079 70.4173 24.7762 68.4636 24.143 66.5419C22.386 61.3229 21.143 61.1419 21.132 61.1419C20.811 61.1109 20.619 61.1569 20.576 61.2139C20.3944 62.0198 20.4826 62.863 20.827 63.6139C20.9369 63.8999 20.9288 64.2179 20.8042 64.4979C20.6797 64.7779 20.449 64.997 20.163 65.1069C19.877 65.2168 19.559 65.2086 19.279 65.0841C18.999 64.9596 18.7799 64.7289 18.67 64.4429C18.476 63.9429 17.57 61.3529 18.736 59.8149C19.0444 59.4318 19.4506 59.1392 19.9116 58.9677C20.3725 58.7963 20.8712 58.7525 21.355 58.8409C23.215 59.0209 24.799 61.2409 26.339 65.8219C27.0004 67.8242 27.5543 69.8604 27.998 71.9219C28.0328 72.0901 28.0296 72.2639 27.9888 72.4307C27.948 72.5975 27.8705 72.7531 27.762 72.8863C27.6535 73.0194 27.5167 73.1267 27.3615 73.2003C27.2064 73.2739 27.0367 73.312 26.865 73.3119" fill="#FF6F00"/>
<path d="M26.867 73.3159C26.6014 73.3157 26.3439 73.224 26.1379 73.0563C25.9319 72.8886 25.79 72.655 25.736 72.3949C25.3079 70.4173 24.7762 68.4636 24.143 66.5419C22.386 61.3229 21.143 61.1419 21.132 61.1419C20.811 61.1109 20.619 61.1569 20.576 61.2139C20.3944 62.0198 20.4826 62.863 20.827 63.6139C20.9369 63.8999 20.9288 64.2179 20.8042 64.4979C20.6797 64.7779 20.449 64.997 20.163 65.1069C19.877 65.2168 19.559 65.2086 19.279 65.0841C18.999 64.9596 18.7799 64.7289 18.67 64.4429C18.476 63.9429 17.57 61.3529 18.736 59.8149C19.0444 59.4318 19.4506 59.1392 19.9116 58.9677C20.3725 58.7963 20.8712 58.7525 21.355 58.8409C23.215 59.0209 24.799 61.2409 26.339 65.8219C27.0004 67.8242 27.5543 69.8604 27.998 71.9219C28.0328 72.0901 28.0296 72.2639 27.9888 72.4307C27.948 72.5975 27.8705 72.7531 27.762 72.8863C27.6535 73.0194 27.5167 73.1267 27.3615 73.2003C27.2064 73.2739 27.0367 73.312 26.865 73.3119" stroke="#FF6F00" stroke-width="0.5"/>
<path d="M17.596 33.523C17.596 33.523 42.778 26.184 68.773 38.836C68.773 38.836 88.104 18.536 57.039 9.66697C48.0821 7.13056 38.6711 6.63101 29.496 8.20497C16.581 10.397 1.42199 16.505 17.596 33.523Z" fill="#FF6F00" stroke="#FF6F00" stroke-width="0.5"/>
<path d="M51.449 8.46388C51.1988 8.46356 50.9555 8.38207 50.7555 8.23166C50.5556 8.08124 50.4099 7.87003 50.3402 7.62972C50.2705 7.38941 50.2808 7.13299 50.3693 6.89897C50.4578 6.66495 50.6198 6.46595 50.831 6.33188C52.152 5.49488 53.454 4.23188 53.531 3.73188C53.3364 3.58791 53.114 3.48577 52.878 3.43188C52.5972 3.33029 52.2975 3.2917 52.0001 3.31883C51.7026 3.34596 51.4148 3.43815 51.157 3.58888C49.791 4.38888 49.013 6.72888 48.829 7.56188C48.7637 7.86131 48.582 8.12251 48.3241 8.28801C48.0661 8.45351 47.7529 8.50976 47.4535 8.44438C47.1541 8.379 46.8929 8.19736 46.7274 7.9394C46.5619 7.68145 46.5057 7.36831 46.571 7.06888C46.659 6.66288 47.506 3.05588 49.981 1.59888C50.5144 1.28747 51.1077 1.0926 51.7218 1.0271C52.3359 0.961599 52.957 1.02696 53.544 1.21888C55.254 1.73388 55.728 2.68588 55.825 3.39288C56.119 5.54888 53.025 7.68788 52.065 8.29288C51.8808 8.40977 51.6672 8.47185 51.449 8.47188" fill="#FF6F00"/>
<path d="M51.449 8.46388C51.1988 8.46356 50.9555 8.38207 50.7555 8.23166C50.5556 8.08124 50.4099 7.87003 50.3402 7.62972C50.2705 7.38941 50.2808 7.13299 50.3693 6.89897C50.4578 6.66495 50.6198 6.46595 50.831 6.33188C52.152 5.49488 53.454 4.23188 53.531 3.73188C53.3364 3.58791 53.114 3.48577 52.878 3.43188C52.5972 3.33029 52.2975 3.2917 52.0001 3.31883C51.7026 3.34596 51.4148 3.43815 51.157 3.58888C49.791 4.38888 49.013 6.72888 48.829 7.56188C48.7637 7.86131 48.582 8.12251 48.3241 8.28801C48.0661 8.45351 47.7529 8.50976 47.4535 8.44438C47.1541 8.379 46.8929 8.19736 46.7274 7.9394C46.5619 7.68145 46.5057 7.36831 46.571 7.06888C46.659 6.66288 47.506 3.05588 49.981 1.59888C50.5144 1.28747 51.1077 1.0926 51.7218 1.0271C52.3359 0.961599 52.957 1.02696 53.544 1.21888C55.254 1.73388 55.728 2.68588 55.825 3.39288C56.119 5.54888 53.025 7.68788 52.065 8.29288C51.8808 8.40977 51.6672 8.47185 51.449 8.47188" stroke="#FF6F00" stroke-width="0.5"/>
<path d="M68.773 39.9909C68.598 39.9911 68.4253 39.9514 68.268 39.8749C43.001 27.5749 18.168 34.5599 17.92 34.6319C17.7164 34.691 17.5005 34.693 17.2959 34.6376C17.0913 34.5822 16.9059 34.4716 16.76 34.3179C10.68 27.9179 8.36797 22.3599 9.88897 17.7899C11.629 12.5639 18.161 8.95587 29.304 7.06487C38.6494 5.47509 48.2315 5.98404 57.356 8.55487C67.699 11.5069 73.778 16.0699 75.426 22.1189C77.815 30.8859 69.948 39.2789 69.612 39.6319C69.5041 39.7453 69.3742 39.8356 69.2304 39.8974C69.0865 39.9591 68.9315 39.9909 68.775 39.9909M35.546 30.2509C46.9167 30.1981 58.1602 32.6434 68.482 37.4139C70.14 35.4229 74.908 28.9889 73.194 22.7139C71.769 17.5029 66.228 13.4859 56.724 10.7739C47.9314 8.29751 38.6983 7.80735 29.693 9.33887C22.655 10.5379 13.885 13.0989 12.081 18.5199C10.887 22.1079 12.867 26.7199 17.966 32.2269C23.0286 31.0295 28.2046 30.3764 33.406 30.2789C34.091 30.2609 34.806 30.2509 35.544 30.2509" fill="#FF6F00"/>
<path d="M68.773 39.9909C68.598 39.9911 68.4253 39.9514 68.268 39.8749C43.001 27.5749 18.168 34.5599 17.92 34.6319C17.7164 34.691 17.5005 34.693 17.2959 34.6376C17.0913 34.5822 16.9059 34.4716 16.76 34.3179C10.68 27.9179 8.36797 22.3599 9.88897 17.7899C11.629 12.5639 18.161 8.95587 29.304 7.06487C38.6494 5.47509 48.2315 5.98404 57.356 8.55487C67.699 11.5069 73.778 16.0699 75.426 22.1189C77.815 30.8859 69.948 39.2789 69.612 39.6319C69.5041 39.7453 69.3742 39.8356 69.2304 39.8974C69.0865 39.9591 68.9315 39.9909 68.775 39.9909M35.546 30.2509C46.9167 30.1981 58.1602 32.6434 68.482 37.4139C70.14 35.4229 74.908 28.9889 73.194 22.7139C71.769 17.5029 66.228 13.4859 56.724 10.7739C47.9314 8.29751 38.6983 7.80735 29.693 9.33887C22.655 10.5379 13.885 13.0989 12.081 18.5199C10.887 22.1079 12.867 26.7199 17.966 32.2269C23.0286 31.0295 28.2046 30.3764 33.406 30.2789C34.091 30.2609 34.806 30.2509 35.544 30.2509" stroke="#FF6F00" stroke-width="0.5"/>
<mask id="mask0_968_761" style="mask-type:luminance" maskUnits="userSpaceOnUse" x="8" y="57" width="61" height="35">
<path d="M68.424 57.5779H8.70398V91.2379H68.424V57.5779Z" fill="white"/>
</mask>
<g mask="url(#mask0_968_761)">
<path d="M41.757 118.581C41.7152 118.581 41.6735 118.578 41.632 118.574L27.183 117.004C27.0135 116.985 26.8503 116.93 26.7049 116.841C26.5595 116.752 26.4356 116.632 26.342 116.489C26.2484 116.347 26.1875 116.185 26.1637 116.016C26.1398 115.848 26.1536 115.676 26.204 115.513L34.84 87.6889L27.186 86.8809C26.881 86.8488 26.6013 86.6968 26.4083 86.4585C26.2153 86.2201 26.1249 85.9149 26.157 85.6099C26.1891 85.3049 26.341 85.0251 26.5794 84.8321C26.8177 84.6392 27.123 84.5488 27.428 84.5809L36.481 85.5359C36.6508 85.5539 36.8146 85.6094 36.9604 85.6982C37.1063 85.7871 37.2306 85.9072 37.3245 86.0499C37.4184 86.1925 37.4795 86.3542 37.5035 86.5233C37.5274 86.6924 37.5136 86.8648 37.463 87.0279L28.826 114.857L40.926 116.171L50.326 84.4579C50.3323 83.8234 50.1121 83.2075 49.705 82.7209C48.477 80.9609 44.478 77.6659 31.505 75.3659C31.3055 75.3306 31.1188 75.2434 30.9637 75.1132C30.8085 74.983 30.6904 74.8142 30.621 74.6239L26.222 62.5809C25.871 61.6809 25.212 60.8279 24.944 60.7979C24.944 60.7979 24.595 60.8979 24.055 61.9079C23.9836 62.0418 23.8866 62.1603 23.7694 62.2567C23.6522 62.353 23.5172 62.4254 23.3721 62.4696C23.2269 62.5138 23.0745 62.529 22.9235 62.5143C22.7725 62.4996 22.6259 62.4553 22.492 62.3839C22.3581 62.3125 22.2396 62.2155 22.1432 62.0983C22.0469 61.9811 21.9745 61.8461 21.9303 61.701C21.8861 61.5558 21.8709 61.4034 21.8856 61.2524C21.9003 61.1014 21.9446 60.9548 22.016 60.8209C22.878 59.2039 23.906 58.4209 25.085 58.4909C27.071 58.6119 28.185 61.2429 28.385 61.7689L32.559 73.2159C45.494 75.5959 50.15 79.1159 51.771 81.6629C52.1236 82.1435 52.3755 82.6903 52.5118 83.2705C52.6481 83.8508 52.6658 84.4526 52.564 85.0399L42.864 117.759C42.7931 117.998 42.6471 118.207 42.4477 118.356C42.2482 118.505 42.006 118.586 41.757 118.586" fill="#FF6F00"/>
<path d="M41.757 118.581C41.7152 118.581 41.6735 118.578 41.632 118.574L27.183 117.004C27.0135 116.985 26.8503 116.93 26.7049 116.841C26.5595 116.752 26.4356 116.632 26.342 116.489C26.2484 116.347 26.1875 116.185 26.1637 116.016C26.1398 115.848 26.1536 115.676 26.204 115.513L34.84 87.6889L27.186 86.8809C26.881 86.8488 26.6013 86.6968 26.4083 86.4585C26.2153 86.2201 26.1249 85.9149 26.157 85.6099C26.1891 85.3049 26.341 85.0251 26.5794 84.8321C26.8177 84.6392 27.123 84.5488 27.428 84.5809L36.481 85.5359C36.6508 85.5539 36.8146 85.6094 36.9604 85.6982C37.1063 85.7871 37.2306 85.9072 37.3245 86.0499C37.4184 86.1925 37.4795 86.3542 37.5035 86.5233C37.5274 86.6924 37.5136 86.8648 37.463 87.0279L28.826 114.857L40.926 116.171L50.326 84.4579C50.3323 83.8234 50.1121 83.2075 49.705 82.7209C48.477 80.9609 44.478 77.6659 31.505 75.3659C31.3055 75.3306 31.1188 75.2434 30.9637 75.1132C30.8085 74.983 30.6904 74.8142 30.621 74.6239L26.222 62.5809C25.871 61.6809 25.212 60.8279 24.944 60.7979C24.944 60.7979 24.595 60.8979 24.055 61.9079C23.9836 62.0418 23.8866 62.1603 23.7694 62.2567C23.6522 62.353 23.5172 62.4254 23.3721 62.4696C23.2269 62.5138 23.0745 62.529 22.9235 62.5143C22.7725 62.4996 22.6259 62.4553 22.492 62.3839C22.3581 62.3125 22.2396 62.2155 22.1432 62.0983C22.0469 61.9811 21.9745 61.8461 21.9303 61.701C21.8861 61.5558 21.8709 61.4034 21.8856 61.2524C21.9003 61.1014 21.9446 60.9548 22.016 60.8209C22.878 59.2039 23.906 58.4209 25.085 58.4909C27.071 58.6119 28.185 61.2429 28.385 61.7689L32.559 73.2159C45.494 75.5959 50.15 79.1159 51.771 81.6629C52.1236 82.1435 52.3755 82.6903 52.5118 83.2705C52.6481 83.8508 52.6658 84.4526 52.564 85.0399L42.864 117.759C42.7931 117.998 42.6471 118.207 42.4477 118.356C42.2482 118.505 42.006 118.586 41.757 118.586" stroke="#FF6F00" stroke-width="0.5"/>
</g>
</svg>
