<svg width="current" height="current" viewBox="0 0 17 17" fill="none" xmlns="http://www.w3.org/2000/svg">
<g id="&#237;&#140;&#168;&#236;&#138;&#164; 163">
<path d="M15.914 15.329L11.035 10.446C11.7239 9.59373 12.1573 8.56372 12.2849 7.47529C12.4125 6.38685 12.2291 5.28455 11.756 4.29605C11.2829 3.30755 10.5394 2.47332 9.61166 1.88998C8.68394 1.30664 7.60993 0.998067 6.51405 1.00001C5.36583 0.999104 4.24318 1.33903 3.28832 1.97672C2.33346 2.6144 1.58936 3.52116 1.15028 4.58211C0.711209 5.64306 0.596921 6.81047 0.821897 7.93643C1.04687 9.06239 1.60099 10.0962 2.41405 10.907C3.42626 11.9202 4.77753 12.523 6.20765 12.5995C7.63777 12.6759 9.04561 12.2205 10.16 11.321L15.043 16.2C15.1602 16.3103 15.3158 16.3707 15.4767 16.3682C15.6376 16.3658 15.7912 16.3008 15.905 16.187C16.0188 16.0732 16.0838 15.9196 16.0863 15.7586C16.0887 15.5977 16.0284 15.4422 15.918 15.325M3.28905 10.031C2.65064 9.39258 2.21588 8.57917 2.03975 7.69365C1.86362 6.80813 1.95403 5.89027 2.29955 5.05614C2.64507 4.222 3.23018 3.50906 3.98089 3.00745C4.73159 2.50585 5.61418 2.23812 6.51705 2.23812C7.41991 2.23812 8.3025 2.50585 9.05321 3.00745C9.80391 3.50906 10.389 4.222 10.7345 5.05614C11.0801 5.89027 11.1705 6.80813 10.9943 7.69365C10.8182 8.57917 10.3835 9.39258 9.74505 10.031C8.88829 10.8859 7.72738 11.3661 6.51705 11.3661C5.30671 11.3661 4.1458 10.8859 3.28905 10.031Z" fill="#FF8D00"/>
<path d="M15.914 15.329L11.035 10.446C11.7239 9.59373 12.1573 8.56372 12.2849 7.47529C12.4125 6.38685 12.2291 5.28455 11.756 4.29605C11.2829 3.30755 10.5394 2.47332 9.61166 1.88998C8.68394 1.30664 7.60993 0.998067 6.51405 1.00001C5.36583 0.999104 4.24318 1.33903 3.28832 1.97672C2.33346 2.6144 1.58936 3.52116 1.15028 4.58211C0.711209 5.64306 0.596921 6.81047 0.821897 7.93643C1.04687 9.06239 1.60099 10.0962 2.41405 10.907C3.42626 11.9202 4.77753 12.523 6.20765 12.5995C7.63777 12.6759 9.04561 12.2205 10.16 11.321L15.043 16.2C15.1602 16.3103 15.3158 16.3707 15.4767 16.3682C15.6376 16.3658 15.7912 16.3008 15.905 16.187C16.0188 16.0732 16.0838 15.9196 16.0863 15.7586C16.0887 15.5977 16.0284 15.4422 15.918 15.325M3.28905 10.031C2.65064 9.39258 2.21588 8.57917 2.03975 7.69365C1.86362 6.80813 1.95403 5.89027 2.29955 5.05614C2.64507 4.222 3.23018 3.50906 3.98089 3.00745C4.73159 2.50585 5.61418 2.23812 6.51705 2.23812C7.41991 2.23812 8.3025 2.50585 9.05321 3.00745C9.80391 3.50906 10.389 4.222 10.7345 5.05614C11.0801 5.89027 11.1705 6.80813 10.9943 7.69365C10.8182 8.57917 10.3835 9.39258 9.74505 10.031C8.88829 10.8859 7.72738 11.3661 6.51705 11.3661C5.30671 11.3661 4.1458 10.8859 3.28905 10.031Z" stroke="#FF8D00" stroke-width="0.5" stroke-linecap="round"/>
</g>
</svg>
