<svg width="25" height="24" viewBox="0 0 25 24" fill="none" xmlns="http://www.w3.org/2000/svg">
<mask id="mask0_968_738" style="mask-type:luminance" maskUnits="userSpaceOnUse" x="0" y="0" width="25" height="24">
<path d="M24.097 0H0.985962V23.111H24.097V0Z" fill="white"/>
</mask>
<g mask="url(#mask0_968_738)">
<path d="M23.825 21.524L16.486 14.189C17.518 12.9086 18.1668 11.3625 18.3575 9.72907C18.5482 8.09567 18.2731 6.44163 17.5638 4.95794C16.8545 3.47426 15.7401 2.22144 14.3491 1.34415C12.9582 0.466854 11.3475 0.000869883 9.70296 5.17801e-09C7.97886 -5.9407e-05 6.29346 0.511152 4.8599 1.46898C3.42634 2.42682 2.30901 3.78825 1.64922 5.38111C0.989426 6.97397 0.8168 8.72671 1.15317 10.4177C1.48954 12.1087 2.31981 13.6619 3.53896 14.881C5.05995 16.4021 7.08959 17.3071 9.23758 17.4221C11.3856 17.5371 13.5002 16.854 15.175 15.504L22.51 22.839C22.5957 22.9279 22.6983 22.9989 22.8118 23.0478C22.9253 23.0966 23.0474 23.1223 23.171 23.1235C23.2945 23.1246 23.4171 23.1011 23.5314 23.0543C23.6458 23.0075 23.7497 22.9385 23.8371 22.8511C23.9244 22.7637 23.9935 22.6598 24.0403 22.5455C24.087 22.4311 24.1105 22.3086 24.1094 22.185C24.1083 22.0615 24.0826 21.9394 24.0337 21.8259C23.9849 21.7124 23.9139 21.6098 23.825 21.524ZM4.85396 13.566C3.89504 12.6068 3.24206 11.3848 2.9776 10.0546C2.71313 8.72429 2.84905 7.34547 3.36817 6.09245C3.8873 4.83942 4.7663 3.76846 5.89405 3.01497C7.02181 2.26149 8.34766 1.85932 9.70396 1.85932C11.0603 1.85932 12.3861 2.26149 13.5139 3.01497C14.6416 3.76846 15.5206 4.83942 16.0397 6.09245C16.5589 7.34547 16.6948 8.72429 16.4303 10.0546C16.1659 11.3848 15.5129 12.6068 14.554 13.566C13.2669 14.8508 11.5226 15.5724 9.70396 15.5724C7.88535 15.5724 6.14105 14.8508 4.85396 13.566Z" fill="#FF8D00"/>
</g>
</svg>
