<svg width="current" height="current" viewBox="0 0 38 39" fill="none" xmlns="http://www.w3.org/2000/svg">
<path d="M38 19C38 8.50659 29.4934 0 19 0C8.50659 0 0 8.50659 0 19V20C0 30.4934 8.50659 39 19 39C29.4934 39 38 30.4934 38 20V19Z" fill="white"/>
<path d="M37.25 19C37.25 8.9208 29.0792 0.75 19 0.75C8.9208 0.75 0.75 8.9208 0.75 19V20C0.75 30.0792 8.9208 38.25 19 38.25C29.0792 38.25 37.25 30.0792 37.25 20V19Z" stroke="#FF8D00" stroke-width="1.5"/>
<path d="M15.462 16.7302L15.854 16.6812L16.0353 16.3302L18.9781 10.6339L21.9197 16.3263L22.101 16.6772L22.493 16.7262L28.3479 17.4579L23.9348 21.9015L23.6657 22.1725L23.7266 22.5496L24.6766 28.4332L19.3296 25.606L18.979 25.4206L18.6285 25.606L13.2803 28.4334L14.2294 22.5535L14.2903 22.1765L14.0212 21.9055L9.60806 17.4619L15.462 16.7302Z" stroke="#FF8D00" stroke-width="1.5"/>
</svg>
