<svg width="current" height="current" viewBox="0 0 38 39" fill="none" xmlns="http://www.w3.org/2000/svg">
<path d="M38 19C38 8.50659 29.4934 0 19 0C8.50659 0 0 8.50659 0 19V20C0 30.4934 8.50659 39 19 39C29.4934 39 38 30.4934 38 20V19Z" fill="white"/>
<path d="M37.25 19C37.25 8.9208 29.0792 0.75 19 0.75C8.9208 0.75 0.75 8.9208 0.75 19V20C0.75 30.0792 8.9208 38.25 19 38.25C29.0792 38.25 37.25 30.0792 37.25 20V19Z" stroke="#FF8D00" stroke-width="1.5"/>
<path d="M18.978 8L15.369 14.986L8 15.907L13.489 21.434L12.3 28.8L18.979 25.269L25.657 28.8L24.467 21.43L29.956 15.903L22.586 14.982L18.978 8Z" fill="#FF8D00"/>
</svg>
