<svg width="34" height="34" viewBox="0 0 34 34" fill="none" xmlns="http://www.w3.org/2000/svg">
<mask id="mask0_968_1294" style="mask-type:luminance" maskUnits="userSpaceOnUse" x="0" y="0" width="34" height="34">
<path d="M34 0H0V34H34V0Z" fill="white"/>
</mask>
<g mask="url(#mask0_968_1294)">
<path d="M33.6 31.665L22.809 20.874C24.3277 18.99 25.2825 16.7148 25.5629 14.3112C25.8433 11.9077 25.438 9.47377 24.3938 7.29078C23.3496 5.10779 21.709 3.26477 19.6617 1.97464C17.6144 0.684521 15.2439 -5.66521e-05 12.824 4.94083e-08C10.2874 -0.000222563 7.80777 0.751807 5.69863 2.16097C3.5895 3.57014 1.94564 5.57314 0.974973 7.91664C0.00430387 10.2601 -0.249573 12.8389 0.245451 15.3267C0.740476 17.8145 1.96217 20.0996 3.756 21.893C5.99372 24.1305 8.97958 25.4617 12.1395 25.6308C15.2994 25.7999 18.4103 24.7949 20.874 22.809L31.665 33.6C31.9216 33.8566 32.2696 34.0008 32.6325 34.0008C32.9954 34.0008 33.3434 33.8566 33.6 33.6C33.8566 33.3434 34.0008 32.9954 34.0008 32.6325C34.0008 32.2696 33.8566 31.9216 33.6 31.665ZM5.691 19.958C4.28003 18.547 3.31915 16.7493 2.92986 14.7923C2.54057 12.8352 2.74037 10.8066 3.50398 8.96311C4.26759 7.11958 5.56073 5.5439 7.21985 4.4353C8.87898 3.32671 10.8296 2.735 12.825 2.735C14.8204 2.735 16.771 3.32671 18.4302 4.4353C20.0893 5.5439 21.3824 7.11958 22.146 8.96311C22.9096 10.8066 23.1094 12.8352 22.7201 14.7923C22.3309 16.7493 21.37 18.547 19.959 19.958C18.0655 21.8474 15.4999 22.9085 12.825 22.9085C10.1501 22.9085 7.58448 21.8474 5.691 19.958Z" fill="#FF6F00" stroke="#FF6F00" stroke-linecap="round" stroke-linejoin="round"/>
</g>
</svg>
