<svg width="100%" height="100%" viewBox="0 0 17 16" fill="none" xmlns="http://www.w3.org/2000/svg">
<path d="M16.0099 14.47L11.2499 9.709C11.9199 8.87786 12.3411 7.87411 12.4648 6.81372C12.5886 5.75334 12.4098 4.67958 11.9491 3.71651C11.4884 2.75344 10.7647 1.94035 9.86146 1.37118C8.95826 0.80201 7.91246 0.499986 6.84488 0.5C5.72587 0.500123 4.63201 0.832061 3.70164 1.45384C2.77127 2.07562 2.04617 2.95932 1.61802 3.99319C1.18987 5.02706 1.07791 6.16467 1.29629 7.26217C1.51467 8.35967 2.05358 9.36777 2.84488 10.159C3.83269 11.1454 5.15023 11.7319 6.54425 11.8057C7.93828 11.8796 9.3104 11.4355 10.3969 10.559L15.1579 15.32C15.271 15.4331 15.4244 15.4967 15.5844 15.4967C15.7444 15.4967 15.8978 15.4331 16.0109 15.32C16.124 15.2069 16.1875 15.0535 16.1875 14.8935C16.1875 14.7335 16.124 14.5801 16.0109 14.467M3.69788 9.305C3.07545 8.6825 2.65158 7.8894 2.47987 7.02601C2.30817 6.16261 2.39634 5.26769 2.73324 4.4544C3.07014 3.64112 3.64064 2.94599 4.37259 2.45693C5.10454 1.96787 5.96508 1.70684 6.84538 1.70684C7.72569 1.70684 8.58622 1.96787 9.31818 2.45693C10.0501 2.94599 10.6206 3.64112 10.9575 4.4544C11.2944 5.26769 11.3826 6.16261 11.2109 7.02601C11.0392 7.8894 10.6153 8.6825 9.99288 9.305C9.1575 10.1386 8.02554 10.6068 6.84538 10.6068C5.66523 10.6068 4.53327 10.1386 3.69788 9.305Z" fill="black"/>
<path d="M16.0099 14.47L11.2499 9.709C11.9199 8.87786 12.3411 7.87411 12.4648 6.81372C12.5886 5.75334 12.4098 4.67958 11.9491 3.71651C11.4884 2.75344 10.7647 1.94035 9.86146 1.37118C8.95826 0.80201 7.91246 0.499986 6.84488 0.5C5.72587 0.500123 4.63201 0.832061 3.70164 1.45384C2.77127 2.07562 2.04617 2.95932 1.61802 3.99319C1.18987 5.02706 1.07791 6.16467 1.29629 7.26217C1.51467 8.35967 2.05358 9.36777 2.84488 10.159C3.83269 11.1454 5.15023 11.7319 6.54425 11.8057C7.93828 11.8796 9.3104 11.4355 10.3969 10.559L15.1579 15.32C15.271 15.4331 15.4244 15.4967 15.5844 15.4967C15.7444 15.4967 15.8978 15.4331 16.0109 15.32C16.124 15.2069 16.1875 15.0535 16.1875 14.8935C16.1875 14.7335 16.124 14.5801 16.0109 14.467M3.69788 9.305C3.07545 8.6825 2.65158 7.8894 2.47987 7.02601C2.30817 6.16261 2.39634 5.26769 2.73324 4.4544C3.07014 3.64112 3.64064 2.94599 4.37259 2.45693C5.10454 1.96787 5.96508 1.70684 6.84538 1.70684C7.72569 1.70684 8.58622 1.96787 9.31818 2.45693C10.0501 2.94599 10.6206 3.64112 10.9575 4.4544C11.2944 5.26769 11.3826 6.16261 11.2109 7.02601C11.0392 7.8894 10.6153 8.6825 9.99288 9.305C9.1575 10.1386 8.02554 10.6068 6.84538 10.6068C5.66523 10.6068 4.53327 10.1386 3.69788 9.305Z" stroke="black" stroke-width="0.5" stroke-linecap="round"/>
</svg>
