<svg width="19" height="18" viewBox="0 0 19 18" fill="none" xmlns="http://www.w3.org/2000/svg">
<mask id="mask0_1183_1934" style="mask-type:luminance" maskUnits="userSpaceOnUse" x="0" y="0" width="19" height="18">
<path d="M18.647 0H0V17.13H18.647V0Z" fill="white"/>
</mask>
<g mask="url(#mask0_1183_1934)">
<path d="M9.323 0C4.174 0 0 3.3 0 7.371C0 10.02 1.768 12.343 4.423 13.642C4.228 14.37 3.717 16.279 3.615 16.687C3.488 17.194 3.8 17.187 4.005 17.052C4.166 16.945 6.56 15.317 7.593 14.614C8.16609 14.6988 8.74466 14.7413 9.324 14.741C14.473 14.741 18.647 11.441 18.647 7.371C18.647 3.301 14.473 0 9.323 0Z" fill="#371C1D"/>
</g>
</svg>
