<svg width="28" height="26" viewBox="0 0 28 26" fill="none" xmlns="http://www.w3.org/2000/svg">
<mask id="mask0_968_946" style="mask-type:luminance" maskUnits="userSpaceOnUse" x="0" y="0" width="28" height="26">
<path d="M27.987 0H0V25.711H27.987V0Z" fill="white"/>
</mask>
<g mask="url(#mask0_968_946)">
<path d="M13.993 0C6.265 0 0 4.952 0 11.063C0 15.04 2.654 18.525 6.639 20.475C6.346 21.567 5.579 24.433 5.426 25.046C5.236 25.807 5.704 25.797 6.012 25.593C6.253 25.432 9.846 22.993 11.397 21.934C12.2578 22.0616 13.1268 22.1254 13.997 22.125C21.725 22.125 27.99 17.173 27.99 11.063C27.99 4.953 21.722 0 13.993 0Z" fill="#371C1D"/>
</g>
</svg>
