<svg width="686" height="590" viewBox="0 0 498 591" fill="none" xmlns="http://www.w3.org/2000/svg">
<mask id="mask0_968_1452" style="mask-type:luminance" maskUnits="userSpaceOnUse" x="-190" y="0" width="688" height="591">
<path d="M497.011 0H-189.866V590.088H497.011V0Z" fill="white"/>
</mask>
<g mask="url(#mask0_968_1452)">
<path d="M325.839 287.491C317.016 264.591 293.667 219.099 285.476 203.331L284.821 198.28C284.78 198.256 284.74 198.233 284.7 198.208L284.3 201.074C283.592 199.716 283.083 198.744 282.812 198.227L284.294 197.901C284.064 197.698 283.861 197.468 283.687 197.216C274.044 192.075 199.787 154.909 112.807 180.171C112.807 180.171 57.5569 212.071 93.8918 232.61L92.3208 236.382C86.9668 242.55 74.9798 257.182 66.4948 273.634C63.3914 279.645 61.7108 286.288 61.5827 293.051C61.4547 299.814 62.8827 306.517 65.7564 312.64C68.6301 318.764 72.8728 324.145 78.1567 328.369C83.4406 332.592 89.6245 335.545 96.2308 336.999L105.231 338.977L126.499 344.449C126.499 344.449 111.322 296.357 109.561 288.142C107.8 279.927 109.561 276.967 109.561 276.967L115.537 276.904L118.32 272.512C112.12 264.048 118.22 242.119 118.22 242.119L116.845 239.173C122.797 239.764 128.763 238.186 133.645 234.73L141.421 229.33L156.801 225.948C160.85 228.126 165.261 229.549 169.82 230.148C181.832 231.969 194.115 230.189 205.115 225.031L211.173 222.231L201.793 219.412L205.863 219.212C213.255 223.312 226.097 225.297 248.357 219.024L260.137 262.793C260.126 266.456 260.062 270.086 259.976 273.385C257.971 285.36 252.744 296.564 244.855 305.794C208.475 348.907 255.635 363.666 282.583 346.184L282.204 344.778C286.336 346.729 290.909 347.559 295.463 347.185C313.956 346.154 328.321 330.975 329.6 312.501C330.202 303.99 328.917 295.452 325.837 287.495M202.488 219.012C202.24 219.193 201.953 219.315 201.65 219.366L199.182 218.625L198.577 216.755L199.369 216.58L202.078 217.495C202.336 217.553 202.569 217.69 202.744 217.888C202.846 218.074 202.876 218.292 202.829 218.499C202.782 218.706 202.661 218.889 202.489 219.013M199.551 216.54L201.556 216.1C202.249 216.742 202.984 217.336 203.756 217.88L199.551 216.54ZM244.781 215.399L247.252 214.91L247.526 215.926L244.781 215.399ZM252.727 221.775C255.339 227.688 258.595 236.346 259.467 244.391V244.399C257.998 236.647 255.739 229.067 252.726 221.775M282.003 203.273L281.067 201.402C281.226 201.395 281.383 201.368 281.535 201.321L282.335 199.709C281.744 199.937 281.154 200.166 280.565 200.396L279.811 198.888L282.532 198.288L282.003 203.273Z" fill="#FF8D00"/>
<path d="M325.839 287.491C317.016 264.591 293.667 219.099 285.476 203.331L284.821 198.28C284.78 198.256 284.74 198.233 284.7 198.208L284.3 201.074C283.592 199.716 283.083 198.744 282.812 198.227L284.294 197.901C284.064 197.698 283.861 197.468 283.687 197.216C274.044 192.075 199.787 154.909 112.807 180.171C112.807 180.171 57.5569 212.071 93.8918 232.61L92.3208 236.382C86.9668 242.55 74.9798 257.182 66.4948 273.634C63.3914 279.645 61.7108 286.288 61.5827 293.051C61.4547 299.814 62.8827 306.517 65.7564 312.64C68.6301 318.764 72.8728 324.145 78.1567 328.369C83.4406 332.592 89.6245 335.545 96.2308 336.999L105.231 338.977L126.499 344.449C126.499 344.449 111.322 296.357 109.561 288.142C107.8 279.927 109.561 276.967 109.561 276.967L115.537 276.904L118.32 272.512C112.12 264.048 118.22 242.119 118.22 242.119L116.845 239.173C122.797 239.764 128.763 238.186 133.645 234.73L141.421 229.33L156.801 225.948C160.85 228.126 165.261 229.549 169.82 230.148C181.832 231.969 194.114 230.189 205.115 225.031L211.173 222.231L201.793 219.412L205.863 219.212C213.255 223.312 226.097 225.297 248.357 219.024L260.137 262.793C260.126 266.456 260.062 270.086 259.976 273.385C257.971 285.36 252.744 296.564 244.855 305.794C208.475 348.907 255.635 363.666 282.583 346.184L282.204 344.778C286.336 346.729 290.909 347.559 295.463 347.185C313.956 346.154 328.321 330.975 329.6 312.501C330.202 303.99 328.917 295.452 325.837 287.495M202.488 219.012C202.24 219.193 201.953 219.315 201.65 219.366L199.182 218.625L198.577 216.755L199.369 216.58L202.078 217.495C202.336 217.553 202.569 217.69 202.744 217.888C202.846 218.074 202.876 218.292 202.829 218.499C202.782 218.706 202.661 218.889 202.489 219.013M252.727 221.775C255.339 227.688 258.595 236.346 259.467 244.391V244.399C257.998 236.647 255.739 229.067 252.726 221.775M199.551 216.54L201.556 216.1C202.249 216.742 202.984 217.336 203.756 217.88L199.551 216.54ZM244.781 215.399L247.252 214.91L247.526 215.926L244.781 215.399ZM282.003 203.273L281.067 201.402C281.226 201.395 281.383 201.368 281.535 201.321L282.335 199.709C281.744 199.937 281.154 200.166 280.565 200.396L279.811 198.888L282.532 198.288L282.003 203.273Z" stroke="#FF8D00" stroke-width="0.5"/>
<path d="M104.453 241.237C104.02 241.237 103.589 241.163 103.181 241.019C87.0448 235.348 78.3988 227.486 77.4808 217.652C75.6198 197.667 107.029 178.925 110.617 176.852C111.496 176.355 112.537 176.225 113.512 176.491C114.487 176.757 115.317 177.397 115.822 178.272C116.328 179.147 116.467 180.186 116.21 181.163C115.954 182.14 115.321 182.977 114.451 183.49C105.885 188.446 83.9148 204.114 85.1138 216.944C85.7288 223.53 92.6618 229.196 105.72 233.785C106.574 234.085 107.294 234.678 107.753 235.458C108.212 236.238 108.38 237.155 108.228 238.047C108.075 238.939 107.612 239.749 106.921 240.333C106.229 240.916 105.353 241.236 104.448 241.236" fill="#FF8D00"/>
<path d="M104.453 241.237C104.02 241.237 103.589 241.163 103.181 241.019C87.0448 235.348 78.3988 227.486 77.4808 217.652C75.6198 197.667 107.029 178.925 110.617 176.852C111.496 176.355 112.537 176.225 113.512 176.491C114.487 176.757 115.317 177.397 115.822 178.272C116.328 179.147 116.467 180.186 116.21 181.163C115.954 182.14 115.321 182.977 114.451 183.49C105.885 188.446 83.9148 204.114 85.1138 216.944C85.7288 223.53 92.6618 229.196 105.72 233.785C106.574 234.085 107.294 234.678 107.753 235.458C108.212 236.238 108.38 237.155 108.228 238.047C108.075 238.939 107.612 239.749 106.921 240.333C106.229 240.916 105.353 241.236 104.448 241.236" stroke="#FF8D00" stroke-width="0.5"/>
<path d="M119.008 243.115C114.941 243.118 110.921 242.254 107.215 240.582C100.303 237.359 98.3998 232.858 98.0148 229.646C96.8008 219.565 108.771 209.646 110.14 208.546C110.934 207.925 111.941 207.642 112.943 207.758C113.944 207.874 114.86 208.38 115.491 209.166C116.122 209.952 116.418 210.956 116.315 211.959C116.212 212.962 115.718 213.884 114.94 214.525C111.051 217.66 105.086 224.288 105.626 228.734C105.71 229.428 105.968 231.54 110.416 233.615C113.751 235.108 117.417 235.708 121.053 235.355C124.69 235.002 128.172 233.708 131.158 231.602L152.122 217.038C152.957 216.458 153.989 216.234 154.99 216.414C155.991 216.595 156.879 217.166 157.459 218.001C158.039 218.836 158.263 219.868 158.083 220.869C157.902 221.87 157.331 222.758 156.496 223.338L135.56 237.882C130.717 241.295 124.935 243.124 119.01 243.117" fill="#FF8D00"/>
<path d="M119.008 243.115C114.941 243.118 110.921 242.254 107.215 240.582C100.303 237.359 98.3998 232.858 98.0148 229.646C96.8008 219.565 108.771 209.646 110.14 208.546C110.934 207.925 111.941 207.642 112.943 207.758C113.944 207.874 114.86 208.38 115.491 209.166C116.122 209.952 116.418 210.956 116.315 211.959C116.212 212.962 115.718 213.884 114.94 214.525C111.051 217.66 105.086 224.288 105.626 228.734C105.71 229.428 105.968 231.54 110.416 233.615C113.751 235.108 117.417 235.708 121.053 235.355C124.69 235.002 128.172 233.708 131.158 231.602L152.122 217.038C152.957 216.458 153.989 216.234 154.99 216.414C155.991 216.595 156.879 217.166 157.459 218.001C158.039 218.836 158.263 219.868 158.083 220.869C157.902 221.87 157.331 222.758 156.496 223.338L135.56 237.882C130.717 241.295 124.935 243.124 119.01 243.117" stroke="#FF8D00" stroke-width="0.5"/>
<path d="M178.809 234.674C175.515 234.673 172.227 234.424 168.971 233.929C157.571 232.129 149.897 227.758 146.144 220.943C141.22 212.001 145.224 202.477 145.397 202.075C145.797 201.14 146.552 200.403 147.496 200.025C148.439 199.647 149.495 199.659 150.429 200.06C151.364 200.46 152.101 201.215 152.479 202.158C152.857 203.102 152.845 204.157 152.445 205.092C152.388 205.229 149.774 211.714 152.891 217.301C155.459 221.901 161.264 224.947 170.146 226.352C181.401 228.066 192.911 226.395 203.214 221.552L209.294 218.747C209.752 218.527 210.25 218.399 210.758 218.373C211.266 218.347 211.774 218.422 212.252 218.594C212.731 218.766 213.17 219.032 213.545 219.375C213.92 219.719 214.223 220.133 214.436 220.595C214.649 221.057 214.768 221.557 214.786 222.065C214.804 222.573 214.721 223.08 214.541 223.556C214.362 224.032 214.089 224.467 213.739 224.836C213.39 225.205 212.97 225.501 212.505 225.707L206.447 228.507C197.8 232.57 188.363 234.677 178.809 234.678" fill="#FF8D00"/>
<path d="M178.809 234.674C175.515 234.673 172.227 234.424 168.971 233.929C157.571 232.129 149.897 227.758 146.144 220.943C141.22 212.001 145.224 202.477 145.397 202.075C145.797 201.14 146.552 200.403 147.496 200.025C148.439 199.647 149.495 199.659 150.429 200.06C151.364 200.46 152.101 201.215 152.479 202.158C152.857 203.102 152.845 204.157 152.445 205.092C152.388 205.229 149.774 211.714 152.891 217.301C155.459 221.901 161.264 224.947 170.146 226.352C181.401 228.066 192.911 226.395 203.214 221.552L209.294 218.747C209.752 218.527 210.25 218.399 210.758 218.373C211.266 218.347 211.774 218.422 212.252 218.594C212.731 218.766 213.17 219.032 213.545 219.375C213.92 219.719 214.223 220.133 214.436 220.595C214.649 221.057 214.768 221.557 214.786 222.065C214.804 222.573 214.721 223.08 214.541 223.556C214.362 224.032 214.089 224.467 213.739 224.836C213.39 225.205 212.97 225.501 212.505 225.707L206.447 228.507C197.8 232.57 188.363 234.677 178.809 234.678" stroke="#FF8D00" stroke-width="0.5"/>
<path d="M223.024 226.885C214.54 226.885 207.558 225.124 202.124 221.598C199.433 219.94 197.126 217.729 195.354 215.113C193.581 212.496 192.385 209.533 191.844 206.419C191.742 205.414 192.04 204.41 192.675 203.624C193.309 202.838 194.228 202.334 195.232 202.222C196.235 202.109 197.243 202.397 198.035 203.024C198.828 203.65 199.341 204.564 199.464 205.566C199.505 205.866 200.326 211.392 206.479 215.283C212.822 219.297 226.013 222.26 252.836 213.583C253.316 213.422 253.824 213.357 254.33 213.394C254.836 213.43 255.329 213.566 255.782 213.794C256.235 214.023 256.637 214.338 256.967 214.723C257.297 215.108 257.547 215.555 257.704 216.037C257.86 216.52 257.919 217.028 257.877 217.533C257.835 218.039 257.694 218.531 257.46 218.981C257.227 219.431 256.907 219.83 256.519 220.156C256.13 220.482 255.681 220.727 255.197 220.878C242.815 224.884 232.069 226.889 223.024 226.889" fill="#FF8D00"/>
<path d="M223.024 226.885C214.54 226.885 207.558 225.124 202.124 221.598C199.433 219.94 197.126 217.729 195.354 215.113C193.581 212.496 192.385 209.533 191.844 206.419C191.742 205.414 192.04 204.41 192.675 203.624C193.309 202.838 194.228 202.334 195.232 202.222C196.235 202.109 197.243 202.397 198.035 203.024C198.828 203.65 199.341 204.564 199.464 205.566C199.505 205.866 200.326 211.392 206.479 215.283C212.822 219.297 226.013 222.26 252.836 213.583C253.316 213.422 253.824 213.357 254.33 213.394C254.836 213.43 255.329 213.566 255.782 213.794C256.235 214.023 256.637 214.338 256.967 214.723C257.297 215.108 257.547 215.555 257.704 216.037C257.86 216.52 257.919 217.028 257.877 217.533C257.835 218.039 257.694 218.531 257.46 218.981C257.227 219.431 256.907 219.83 256.519 220.156C256.13 220.482 255.681 220.727 255.197 220.878C242.815 224.884 232.069 226.889 223.024 226.889" stroke="#FF8D00" stroke-width="0.5"/>
<path d="M257.63 357.202C247.567 357.202 238.255 354.016 232.719 347.739C227.27 341.561 221.186 327.572 241.652 303.319C275.745 262.919 241.702 208.619 241.352 208.081C240.803 207.225 240.616 206.187 240.833 205.194C241.05 204.2 241.652 203.334 242.508 202.785C243.363 202.236 244.402 202.049 245.395 202.266C246.388 202.483 247.255 203.085 247.804 203.941C254.308 214.776 259.083 226.559 261.955 238.866C268.19 265.678 263.194 289.675 247.509 308.266C235.09 322.983 231.879 335.202 238.467 342.673C246.367 351.628 266.655 351.773 280.221 342.973C280.643 342.69 281.117 342.493 281.616 342.395C282.115 342.297 282.628 342.299 283.127 342.401C283.625 342.503 284.097 342.704 284.517 342.99C284.937 343.277 285.296 343.644 285.573 344.07C285.849 344.497 286.039 344.974 286.129 345.475C286.22 345.975 286.21 346.488 286.1 346.985C285.99 347.481 285.783 347.951 285.49 348.366C285.197 348.782 284.825 349.135 284.394 349.405C276.394 354.497 267.11 357.205 257.627 357.211" fill="#FF8D00"/>
<path d="M257.63 357.202C247.567 357.202 238.255 354.016 232.719 347.739C227.27 341.561 221.186 327.572 241.652 303.319C275.745 262.919 241.702 208.619 241.352 208.081C240.803 207.225 240.616 206.187 240.833 205.194C241.05 204.2 241.652 203.334 242.508 202.785C243.363 202.236 244.402 202.049 245.395 202.266C246.388 202.483 247.255 203.085 247.804 203.941C254.308 214.776 259.083 226.559 261.955 238.866C268.19 265.678 263.194 289.675 247.509 308.266C235.09 322.983 231.879 335.202 238.467 342.673C246.367 351.628 266.655 351.773 280.221 342.973C280.643 342.69 281.117 342.493 281.616 342.395C282.115 342.297 282.628 342.299 283.127 342.401C283.625 342.503 284.097 342.704 284.517 342.99C284.937 343.277 285.296 343.644 285.573 344.07C285.849 344.497 286.039 344.974 286.129 345.475C286.22 345.975 286.21 346.488 286.1 346.985C285.99 347.481 285.783 347.951 285.49 348.366C285.197 348.782 284.825 349.135 284.394 349.405C276.394 354.497 267.11 357.205 257.627 357.211" stroke="#FF8D00" stroke-width="0.5"/>
<path d="M293.269 351.07C273.107 351.07 265.969 334.524 265.025 325.47C264.925 324.463 265.228 323.457 265.867 322.673C266.506 321.888 267.429 321.387 268.436 321.281C269.442 321.174 270.45 321.469 271.239 322.103C272.029 322.736 272.536 323.655 272.65 324.661C272.876 326.688 275.414 344.43 294.981 343.353C311.218 342.447 324.342 329.069 325.508 312.231C326.058 304.282 324.858 296.309 321.994 288.874C311.413 261.415 279.244 200.187 278.92 199.574C278.446 198.674 278.35 197.623 278.651 196.652C278.953 195.681 279.627 194.869 280.527 194.395C281.427 193.922 282.478 193.825 283.449 194.127C284.421 194.428 285.232 195.103 285.706 196.003C287.035 198.531 318.406 258.244 329.145 286.112C332.414 294.597 333.783 303.696 333.155 312.767C331.723 333.446 315.495 349.888 295.408 351.007C294.68 351.048 293.967 351.068 293.269 351.068" fill="#FF8D00"/>
<path d="M293.269 351.07C273.107 351.07 265.969 334.524 265.025 325.47C264.925 324.463 265.228 323.457 265.867 322.673C266.506 321.888 267.429 321.387 268.436 321.281C269.442 321.174 270.45 321.469 271.239 322.103C272.029 322.736 272.536 323.655 272.65 324.661C272.876 326.688 275.414 344.43 294.981 343.353C311.218 342.447 324.342 329.069 325.508 312.231C326.058 304.282 324.858 296.309 321.994 288.874C311.413 261.415 279.244 200.187 278.92 199.574C278.446 198.674 278.35 197.623 278.651 196.652C278.953 195.681 279.627 194.869 280.527 194.395C281.427 193.922 282.478 193.825 283.449 194.127C284.421 194.428 285.232 195.103 285.706 196.003C287.035 198.531 318.406 258.244 329.145 286.112C332.414 294.597 333.783 303.696 333.155 312.767C331.723 333.446 315.495 349.888 295.408 351.007C294.68 351.048 293.967 351.068 293.269 351.068" stroke="#FF8D00" stroke-width="0.5"/>
<path d="M112.541 344.479C112.263 344.479 111.985 344.448 111.714 344.388L95.1368 340.744C87.9569 339.164 81.2362 335.954 75.4936 331.364C69.751 326.773 65.1401 320.925 62.0168 314.269C58.8935 307.614 57.3414 300.33 57.4802 292.979C57.6191 285.629 59.4453 278.409 62.8178 271.876C74.1578 249.886 91.2968 231.429 92.0178 230.654C92.7194 229.943 93.6707 229.534 94.6693 229.514C95.6679 229.494 96.6349 229.864 97.3646 230.546C98.0943 231.228 98.529 232.168 98.5763 233.166C98.6236 234.163 98.2797 235.14 97.6178 235.888C97.4468 236.071 80.4648 254.37 69.6238 275.388C66.7899 280.878 65.2555 286.945 65.139 293.122C65.0225 299.298 66.3271 305.419 68.952 311.012C71.5768 316.604 75.4518 321.518 80.2777 325.375C85.1036 329.232 90.7513 331.929 96.7848 333.256L113.361 336.9C114.283 337.103 115.098 337.64 115.649 338.407C116.2 339.174 116.448 340.117 116.347 341.056C116.245 341.995 115.801 342.863 115.099 343.495C114.397 344.126 113.486 344.476 112.542 344.478" fill="#FF8D00"/>
<path d="M112.541 344.479C112.263 344.479 111.985 344.448 111.714 344.388L95.1368 340.744C87.9569 339.164 81.2362 335.954 75.4936 331.364C69.751 326.773 65.1401 320.925 62.0168 314.269C58.8935 307.614 57.3414 300.33 57.4802 292.979C57.6191 285.629 59.4453 278.409 62.8178 271.876C74.1578 249.886 91.2968 231.429 92.0178 230.654C92.7194 229.943 93.6707 229.534 94.6693 229.514C95.6679 229.494 96.6349 229.864 97.3646 230.546C98.0943 231.228 98.529 232.168 98.5763 233.166C98.6236 234.163 98.2797 235.14 97.6178 235.888C97.4468 236.071 80.4648 254.37 69.6238 275.388C66.7899 280.878 65.2555 286.945 65.139 293.122C65.0225 299.298 66.3271 305.419 68.952 311.012C71.5768 316.604 75.4518 321.518 80.2777 325.375C85.1036 329.232 90.7513 331.929 96.7848 333.256L113.361 336.9C114.283 337.103 115.098 337.64 115.649 338.407C116.2 339.174 116.448 340.117 116.347 341.056C116.245 341.995 115.801 342.863 115.099 343.495C114.397 344.126 113.486 344.476 112.542 344.478" stroke="#FF8D00" stroke-width="0.5"/>
<path d="M179.214 280.8C178.71 280.8 178.212 280.701 177.747 280.509C177.282 280.316 176.859 280.034 176.503 279.678C176.147 279.322 175.865 278.899 175.672 278.434C175.48 277.969 175.381 277.47 175.381 276.967V253.132C175.381 252.115 175.785 251.14 176.504 250.421C177.223 249.702 178.198 249.299 179.214 249.299C180.231 249.299 181.206 249.702 181.925 250.421C182.644 251.14 183.048 252.115 183.048 253.132V271.383L194.283 267.067C195.227 266.723 196.269 266.764 197.184 267.181C198.098 267.598 198.812 268.357 199.173 269.295C199.533 270.234 199.511 271.276 199.11 272.198C198.71 273.119 197.964 273.847 197.032 274.224L180.588 280.542C180.149 280.71 179.684 280.796 179.214 280.796" fill="#FF8D00"/>
<path d="M179.214 280.8C178.71 280.8 178.212 280.701 177.747 280.509C177.282 280.316 176.859 280.034 176.503 279.678C176.147 279.322 175.865 278.899 175.672 278.434C175.48 277.969 175.381 277.47 175.381 276.967V253.132C175.381 252.115 175.785 251.14 176.504 250.421C177.223 249.702 178.198 249.299 179.214 249.299C180.231 249.299 181.206 249.702 181.925 250.421C182.644 251.14 183.048 252.115 183.048 253.132V271.383L194.283 267.067C195.227 266.723 196.269 266.764 197.184 267.181C198.098 267.598 198.812 268.357 199.173 269.295C199.533 270.234 199.511 271.276 199.11 272.198C198.71 273.119 197.964 273.847 197.032 274.224L180.588 280.542C180.149 280.71 179.684 280.796 179.214 280.796" stroke="#FF8D00" stroke-width="0.1"/>
<path d="M156.904 265.254C156.372 265.254 155.842 265.206 155.319 265.11C154.187 264.907 153.107 264.482 152.14 263.859C151.174 263.236 150.341 262.427 149.689 261.48L141.598 249.795C141.043 248.959 140.839 247.939 141.028 246.954C141.217 245.969 141.785 245.097 142.609 244.526C143.434 243.955 144.449 243.729 145.438 243.898C146.427 244.067 147.31 244.617 147.898 245.43L155.989 257.115C156.069 257.233 156.173 257.334 156.293 257.411C156.413 257.489 156.548 257.541 156.689 257.565C156.829 257.593 156.973 257.592 157.112 257.562C157.252 257.531 157.384 257.473 157.5 257.39C157.727 257.234 157.887 256.998 157.945 256.728L160.793 243.583C160.896 243.088 161.096 242.618 161.382 242.201C161.668 241.783 162.033 241.427 162.458 241.151C162.882 240.876 163.357 240.687 163.854 240.596C164.352 240.505 164.862 240.513 165.356 240.62C165.851 240.727 166.319 240.931 166.734 241.22C167.149 241.509 167.503 241.877 167.776 242.303C168.048 242.73 168.233 243.206 168.32 243.704C168.408 244.202 168.396 244.713 168.285 245.206L165.437 258.349C165.013 260.3 163.936 262.047 162.384 263.302C160.831 264.557 158.897 265.244 156.901 265.249" fill="#FF8D00"/>
<path d="M156.904 265.254C156.372 265.254 155.842 265.206 155.319 265.11C154.187 264.907 153.107 264.482 152.14 263.859C151.174 263.236 150.341 262.427 149.689 261.48L141.598 249.795C141.043 248.959 140.839 247.939 141.028 246.954C141.217 245.969 141.785 245.097 142.609 244.526C143.434 243.955 144.449 243.729 145.438 243.898C146.427 244.067 147.31 244.617 147.898 245.43L155.989 257.115C156.069 257.233 156.173 257.334 156.293 257.411C156.413 257.489 156.548 257.541 156.689 257.565C156.829 257.593 156.973 257.592 157.112 257.562C157.252 257.531 157.384 257.473 157.5 257.39C157.727 257.234 157.887 256.998 157.945 256.728L160.793 243.583C160.896 243.088 161.096 242.618 161.382 242.201C161.668 241.783 162.033 241.427 162.458 241.151C162.882 240.876 163.357 240.687 163.854 240.596C164.352 240.505 164.862 240.513 165.356 240.62C165.851 240.727 166.319 240.931 166.734 241.22C167.149 241.509 167.503 241.877 167.776 242.303C168.048 242.73 168.233 243.206 168.32 243.704C168.408 244.202 168.396 244.713 168.285 245.206L165.437 258.349C165.013 260.3 163.936 262.047 162.384 263.302C160.831 264.557 158.897 265.244 156.901 265.249" stroke="#FF8D00" stroke-width="0.1"/>
<path d="M223.048 256.734C221.631 256.736 220.235 256.395 218.979 255.738C217.723 255.082 216.646 254.131 215.839 252.966L207.747 241.283C207.205 240.447 207.009 239.432 207.202 238.455C207.395 237.477 207.961 236.613 208.78 236.045C209.599 235.478 210.607 235.251 211.59 235.414C212.573 235.577 213.454 236.117 214.047 236.918L222.138 248.606C222.258 248.78 222.427 248.915 222.623 248.995C222.82 249.074 223.035 249.095 223.243 249.053C223.451 249.012 223.642 248.911 223.793 248.762C223.944 248.614 224.048 248.424 224.093 248.217L226.942 235.073C227.048 234.581 227.251 234.115 227.537 233.701C227.824 233.287 228.19 232.934 228.613 232.661C229.036 232.389 229.509 232.202 230.004 232.113C230.5 232.023 231.008 232.031 231.5 232.138C231.992 232.244 232.458 232.447 232.872 232.734C233.285 233.02 233.639 233.386 233.911 233.809C234.184 234.232 234.37 234.705 234.46 235.2C234.55 235.696 234.541 236.204 234.435 236.696L231.587 249.839C231.165 251.792 230.087 253.541 228.533 254.796C226.979 256.052 225.042 256.737 223.044 256.739" fill="#FF8D00"/>
<path d="M223.048 256.734C221.631 256.736 220.235 256.395 218.979 255.738C217.723 255.082 216.646 254.131 215.839 252.966L207.747 241.283C207.205 240.447 207.009 239.432 207.202 238.455C207.395 237.477 207.961 236.613 208.78 236.045C209.599 235.478 210.607 235.251 211.59 235.414C212.573 235.577 213.454 236.117 214.047 236.918L222.138 248.606C222.258 248.78 222.427 248.915 222.623 248.995C222.82 249.074 223.035 249.095 223.243 249.053C223.451 249.012 223.642 248.911 223.793 248.762C223.944 248.614 224.048 248.424 224.093 248.217L226.942 235.073C227.048 234.581 227.251 234.115 227.537 233.701C227.824 233.287 228.19 232.934 228.613 232.661C229.036 232.389 229.509 232.202 230.004 232.113C230.5 232.023 231.008 232.031 231.5 232.138C231.992 232.244 232.458 232.447 232.872 232.734C233.285 233.02 233.639 233.386 233.911 233.809C234.184 234.232 234.37 234.705 234.46 235.2C234.55 235.696 234.541 236.204 234.435 236.696L231.587 249.839C231.165 251.792 230.087 253.541 228.533 254.796C226.979 256.052 225.042 256.737 223.044 256.739" stroke="#FF8D00" stroke-width="0.1"/>
<path d="M211.261 299.665C201.207 299.665 196.981 293.317 196.74 292.94C196.202 292.089 196.021 291.06 196.235 290.077C196.449 289.093 197.041 288.233 197.884 287.682C198.727 287.132 199.753 286.935 200.74 287.134C201.727 287.333 202.596 287.913 203.159 288.747C203.446 289.147 208.516 295.771 223.191 288.79C224.109 288.354 225.163 288.3 226.121 288.641C227.08 288.982 227.863 289.689 228.299 290.608C228.736 291.526 228.789 292.58 228.449 293.538C228.108 294.496 227.4 295.28 226.482 295.716C220.368 298.623 215.336 299.666 211.26 299.666" fill="#FF8D00"/>
<path d="M211.261 299.665C201.207 299.665 196.981 293.317 196.74 292.94C196.202 292.089 196.021 291.06 196.235 290.077C196.449 289.093 197.041 288.233 197.884 287.682C198.727 287.132 199.753 286.935 200.74 287.134C201.727 287.333 202.596 287.913 203.159 288.747C203.446 289.147 208.516 295.771 223.191 288.79C224.109 288.354 225.163 288.3 226.121 288.641C227.08 288.982 227.863 289.689 228.299 290.608C228.736 291.526 228.789 292.58 228.449 293.538C228.108 294.496 227.4 295.28 226.482 295.716C220.368 298.623 215.336 299.666 211.26 299.666" stroke="#FF8D00" stroke-width="0.1"/>
<path d="M128.033 352.984C127.224 352.984 126.436 352.728 125.782 352.253C125.127 351.778 124.64 351.109 124.389 350.34L119.966 336.81C115.471 325.102 101.466 286.653 107.18 276.587C107.657 275.703 108.328 274.939 109.141 274.35C109.955 273.761 110.891 273.364 111.88 273.187C118.597 272.033 124.428 278.641 130.267 293.987C132.736 300.614 134.819 307.378 136.507 314.246C136.631 314.739 136.657 315.251 136.582 315.754C136.506 316.256 136.332 316.739 136.069 317.173C135.805 317.608 135.458 317.986 135.047 318.285C134.637 318.584 134.17 318.798 133.676 318.916C133.182 319.033 132.669 319.051 132.167 318.968C131.666 318.886 131.186 318.704 130.756 318.434C130.325 318.165 129.952 317.812 129.659 317.397C129.366 316.981 129.159 316.512 129.049 316.016C127.426 309.454 125.433 302.99 123.079 296.653C118.258 283.996 114.843 281.399 113.65 280.872C113.198 282.529 112.593 288.795 118.617 308.995C122.479 321.943 127.108 334.025 127.154 334.147C127.178 334.206 127.199 334.269 127.219 334.331L131.672 347.953C131.859 348.529 131.908 349.14 131.814 349.738C131.719 350.336 131.485 350.904 131.13 351.394C130.774 351.884 130.308 352.283 129.769 352.558C129.23 352.834 128.633 352.977 128.028 352.978" fill="#FF8D00"/>
<path d="M128.033 352.984C127.224 352.984 126.436 352.728 125.782 352.253C125.127 351.778 124.64 351.109 124.389 350.34L119.966 336.81C115.471 325.102 101.466 286.653 107.18 276.587C107.657 275.703 108.328 274.939 109.141 274.35C109.955 273.761 110.891 273.364 111.88 273.187C118.597 272.033 124.428 278.641 130.267 293.987C132.736 300.614 134.819 307.378 136.507 314.246C136.631 314.739 136.657 315.251 136.582 315.754C136.506 316.256 136.332 316.739 136.069 317.173C135.805 317.608 135.458 317.986 135.047 318.285C134.637 318.584 134.17 318.798 133.676 318.916C133.182 319.033 132.669 319.051 132.167 318.968C131.666 318.886 131.186 318.704 130.756 318.434C130.325 318.165 129.952 317.812 129.659 317.397C129.366 316.981 129.159 316.512 129.049 316.016C127.426 309.454 125.433 302.99 123.079 296.653C118.258 283.996 114.843 281.399 113.65 280.872C113.198 282.529 112.593 288.795 118.617 308.995C122.479 321.943 127.108 334.025 127.154 334.147C127.178 334.206 127.199 334.269 127.219 334.331L131.672 347.953C131.859 348.529 131.908 349.14 131.814 349.738C131.719 350.336 131.485 350.904 131.13 351.394C130.774 351.884 130.308 352.283 129.769 352.558C129.23 352.834 128.633 352.977 128.028 352.978" stroke="#FF8D00" stroke-width="0.5"/>
<path d="M192.684 462.351C192.545 462.351 192.406 462.343 192.268 462.328L144.335 457.121C143.772 457.06 143.231 456.875 142.748 456.58C142.266 456.285 141.854 455.886 141.544 455.414C141.233 454.941 141.031 454.405 140.952 453.845C140.873 453.285 140.919 452.714 141.087 452.174L169.737 359.873L144.347 357.193C143.844 357.143 143.356 356.995 142.911 356.756C142.465 356.517 142.072 356.192 141.753 355.8C141.433 355.409 141.195 354.958 141.05 354.473C140.906 353.989 140.859 353.481 140.912 352.979C140.964 352.476 141.116 351.989 141.358 351.545C141.599 351.101 141.926 350.71 142.32 350.393C142.714 350.076 143.166 349.84 143.651 349.699C144.136 349.557 144.645 349.513 145.147 349.569L175.18 352.739C175.743 352.799 176.286 352.982 176.77 353.277C177.254 353.571 177.667 353.97 177.979 354.443C178.29 354.916 178.493 355.452 178.573 356.013C178.652 356.574 178.607 357.146 178.439 357.687L149.785 450.007L189.912 454.366L221.104 349.16C221.152 348.76 221.282 346.603 219.044 343.398C214.97 337.56 201.705 326.628 158.651 318.998C157.989 318.881 157.37 318.592 156.855 318.16C156.341 317.728 155.949 317.168 155.719 316.537L141.143 276.56C139.98 273.583 137.793 270.745 136.902 270.646C136.91 270.646 135.744 270.972 133.954 274.329C133.475 275.226 132.66 275.896 131.688 276.193C130.715 276.489 129.665 276.386 128.768 275.908C127.871 275.43 127.2 274.615 126.904 273.642C126.608 272.669 126.71 271.619 127.189 270.722C130.048 265.356 133.46 262.755 137.371 262.993C143.958 263.393 147.648 272.122 148.322 273.868L162.172 311.839C205.084 319.739 220.53 331.399 225.908 339.862C229.763 345.929 228.673 350.562 228.537 351.062L196.357 459.604C196.122 460.396 195.637 461.091 194.975 461.585C194.313 462.08 193.509 462.347 192.683 462.348" fill="#FF8D00"/>
<path d="M192.684 462.351C192.545 462.351 192.406 462.343 192.268 462.328L144.335 457.121C143.772 457.06 143.231 456.875 142.748 456.58C142.266 456.285 141.854 455.886 141.544 455.414C141.233 454.941 141.031 454.405 140.952 453.845C140.873 453.285 140.919 452.714 141.087 452.174L169.737 359.873L144.347 357.193C143.844 357.143 143.356 356.995 142.911 356.756C142.465 356.517 142.072 356.192 141.753 355.8C141.433 355.409 141.195 354.958 141.05 354.473C140.906 353.989 140.859 353.481 140.912 352.979C140.964 352.476 141.116 351.989 141.358 351.545C141.599 351.101 141.926 350.71 142.32 350.393C142.714 350.076 143.166 349.84 143.651 349.699C144.136 349.557 144.645 349.513 145.147 349.569L175.18 352.739C175.743 352.799 176.286 352.982 176.77 353.277C177.254 353.571 177.667 353.97 177.979 354.443C178.29 354.916 178.493 355.452 178.573 356.013C178.652 356.574 178.607 357.146 178.439 357.687L149.785 450.007L189.912 454.366L221.104 349.16C221.152 348.76 221.282 346.603 219.044 343.398C214.97 337.56 201.705 326.628 158.651 318.998C157.989 318.881 157.37 318.592 156.855 318.16C156.341 317.728 155.949 317.168 155.719 316.537L141.143 276.56C139.98 273.583 137.793 270.745 136.902 270.646C136.91 270.646 135.744 270.972 133.954 274.329C133.475 275.226 132.66 275.896 131.688 276.193C130.715 276.489 129.665 276.386 128.768 275.908C127.871 275.43 127.2 274.615 126.904 273.642C126.608 272.669 126.71 271.619 127.189 270.722C130.048 265.356 133.46 262.755 137.371 262.993C143.958 263.393 147.648 272.122 148.322 273.868L162.172 311.839C205.084 319.739 220.53 331.399 225.908 339.862C229.763 345.929 228.673 350.562 228.537 351.062L196.357 459.604C196.122 460.396 195.637 461.091 194.975 461.585C194.313 462.08 193.509 462.347 192.683 462.348" stroke="#FF8D00" stroke-width="0.5"/>
<path d="M143.296 312.183C142.415 312.182 141.561 311.878 140.878 311.321C140.195 310.765 139.724 309.99 139.546 309.127C138.126 302.567 136.363 296.086 134.263 289.711C128.433 272.396 124.317 271.803 124.275 271.799C123.21 271.699 122.575 271.849 122.43 272.037C121.604 273.12 122.199 277.208 123.263 280.001C123.616 280.947 123.582 281.995 123.167 282.916C122.752 283.837 121.99 284.557 121.048 284.92C120.105 285.282 119.057 285.258 118.132 284.852C117.207 284.446 116.479 283.691 116.108 282.752C115.464 281.083 112.451 272.501 116.326 267.4C117.641 265.67 120.221 263.7 125.015 264.169C131.186 264.769 136.44 272.125 141.55 287.328C143.743 293.973 145.579 300.731 147.05 307.573C147.165 308.131 147.154 308.707 147.019 309.261C146.883 309.814 146.626 310.33 146.266 310.771C145.907 311.213 145.453 311.568 144.938 311.813C144.424 312.057 143.861 312.183 143.292 312.183" fill="#FF8D00"/>
<path d="M143.296 312.183C142.415 312.182 141.561 311.878 140.878 311.321C140.195 310.765 139.724 309.99 139.546 309.127C138.126 302.567 136.363 296.086 134.263 289.711C128.433 272.396 124.317 271.803 124.275 271.799C123.21 271.699 122.575 271.849 122.43 272.037C121.604 273.12 122.199 277.208 123.263 280.001C123.616 280.947 123.582 281.995 123.167 282.916C122.752 283.837 121.99 284.557 121.048 284.92C120.105 285.282 119.057 285.258 118.132 284.852C117.207 284.446 116.479 283.691 116.108 282.752C115.464 281.083 112.451 272.501 116.326 267.4C117.641 265.67 120.221 263.7 125.015 264.169C131.186 264.769 136.44 272.125 141.55 287.328C143.743 293.973 145.579 300.731 147.05 307.573C147.165 308.131 147.154 308.707 147.019 309.261C146.883 309.814 146.626 310.33 146.266 310.771C145.907 311.213 145.453 311.568 144.938 311.813C144.424 312.057 143.861 312.183 143.292 312.183" stroke="#FF8D00" stroke-width="0.5"/>
<path d="M101.765 532.846C101.136 532.845 100.517 532.689 99.9622 532.393C99.4076 532.097 98.9343 531.668 98.584 531.146C98.2338 530.624 98.0173 530.023 97.9536 529.398C97.8899 528.772 97.9809 528.14 98.2188 527.558L129.237 451.858C129.525 451.154 130.017 450.552 130.648 450.128C131.28 449.704 132.023 449.478 132.784 449.478H144.752C145.768 449.478 146.744 449.882 147.462 450.601C148.181 451.32 148.585 452.295 148.585 453.312C148.585 454.328 148.181 455.303 147.462 456.022C146.744 456.741 145.768 457.145 144.752 457.145H135.352L105.309 530.467C105.02 531.171 104.529 531.774 103.897 532.198C103.265 532.622 102.522 532.848 101.761 532.848" fill="#FF8D00"/>
<path d="M101.765 532.846C101.136 532.845 100.517 532.689 99.9622 532.393C99.4076 532.097 98.9343 531.668 98.584 531.146C98.2338 530.624 98.0173 530.023 97.9536 529.398C97.8899 528.772 97.9809 528.14 98.2188 527.558L129.237 451.858C129.525 451.154 130.017 450.552 130.648 450.128C131.28 449.704 132.023 449.478 132.784 449.478H144.752C145.768 449.478 146.744 449.882 147.462 450.601C148.181 451.32 148.585 452.295 148.585 453.312C148.585 454.328 148.181 455.303 147.462 456.022C146.744 456.741 145.768 457.145 144.752 457.145H135.352L105.309 530.467C105.02 531.171 104.529 531.774 103.897 532.198C103.265 532.622 102.522 532.848 101.761 532.848" stroke="#FF8D00" stroke-width="0.5"/>
<path d="M142.739 590.087C139.041 590.064 135.363 589.56 131.796 588.587C92.3558 578.106 65.2838 533.752 52.6578 508.247C34.4178 471.4 23.3428 428.66 24.4448 399.36C26.5788 342.66 36.1698 337.46 76.4578 324.545C76.9371 324.391 77.442 324.333 77.9437 324.375C78.4453 324.416 78.9339 324.556 79.3816 324.786C79.8292 325.017 80.2271 325.333 80.5525 325.717C80.878 326.101 81.1246 326.545 81.2783 327.024C81.432 327.504 81.4898 328.009 81.4484 328.51C81.407 329.012 81.2671 329.501 81.0369 329.948C80.8066 330.396 80.4905 330.794 80.1065 331.119C79.7225 331.445 79.2781 331.691 78.7988 331.845C40.9408 343.977 34.1198 346.163 32.1068 399.645C31.0648 427.329 42.0858 469.605 59.5288 504.845C71.5798 529.186 97.2478 571.472 133.766 581.175C143.647 583.803 152.187 582.29 159.871 576.554C189.12 554.725 194.959 480.354 195.951 462.344H192.681C191.664 462.344 190.689 461.94 189.97 461.221C189.251 460.502 188.847 459.527 188.847 458.51C188.847 457.494 189.251 456.519 189.97 455.8C190.689 455.081 191.664 454.677 192.681 454.677H199.967C200.479 454.677 200.987 454.78 201.459 454.98C201.931 455.18 202.359 455.472 202.716 455.84C203.073 456.207 203.353 456.643 203.539 457.121C203.726 457.598 203.814 458.108 203.8 458.621C203.686 462.571 200.613 555.708 164.461 582.696C158.234 587.488 150.597 590.085 142.74 590.082" fill="#FF8D00"/>
<path d="M142.739 590.087C139.041 590.064 135.363 589.56 131.796 588.587C92.3558 578.106 65.2838 533.752 52.6578 508.247C34.4178 471.4 23.3428 428.66 24.4448 399.36C26.5788 342.66 36.1698 337.46 76.4578 324.545C76.9371 324.391 77.442 324.333 77.9437 324.375C78.4453 324.416 78.9339 324.556 79.3816 324.786C79.8292 325.017 80.2271 325.333 80.5525 325.717C80.878 326.101 81.1246 326.545 81.2783 327.024C81.432 327.504 81.4898 328.009 81.4484 328.51C81.407 329.012 81.2671 329.501 81.0369 329.948C80.8066 330.396 80.4905 330.794 80.1065 331.119C79.7225 331.445 79.2781 331.691 78.7988 331.845C40.9408 343.977 34.1198 346.163 32.1068 399.645C31.0648 427.329 42.0858 469.605 59.5288 504.845C71.5798 529.186 97.2478 571.472 133.766 581.175C143.647 583.803 152.187 582.29 159.871 576.554C189.12 554.725 194.959 480.354 195.951 462.344H192.681C191.664 462.344 190.689 461.94 189.97 461.221C189.251 460.502 188.847 459.527 188.847 458.51C188.847 457.494 189.251 456.519 189.97 455.8C190.689 455.081 191.664 454.677 192.681 454.677H199.967C200.479 454.677 200.987 454.78 201.459 454.98C201.931 455.18 202.359 455.472 202.716 455.84C203.073 456.207 203.353 456.643 203.539 457.121C203.726 457.598 203.814 458.108 203.8 458.621C203.686 462.571 200.613 555.708 164.461 582.696C158.234 587.488 150.597 590.085 142.74 590.082" stroke="#FF8D00" stroke-width="0.5"/>
<path d="M308.879 576.959C308.298 576.958 307.724 576.826 307.202 576.571C306.679 576.316 306.221 575.947 305.863 575.489C305.504 575.032 305.254 574.499 305.131 573.931C305.008 573.363 305.016 572.774 305.154 572.21C305.575 570.492 347.306 399.986 340.337 368.976C334.017 340.855 317.275 342.576 316.567 342.655C316.068 342.724 315.561 342.694 315.074 342.566C314.587 342.439 314.129 342.217 313.728 341.913C312.918 341.299 312.384 340.389 312.245 339.381C312.106 338.374 312.373 337.353 312.987 336.543C313.601 335.732 314.512 335.199 315.519 335.06C315.76 335.022 339.884 331.995 347.819 367.294C355.179 400.049 314.341 566.951 312.599 574.036C312.394 574.868 311.917 575.608 311.243 576.137C310.569 576.666 309.737 576.955 308.88 576.956" fill="#FF8D00"/>
<path d="M308.879 576.959C308.298 576.958 307.724 576.826 307.202 576.571C306.679 576.316 306.221 575.947 305.863 575.489C305.504 575.032 305.254 574.499 305.131 573.931C305.008 573.363 305.016 572.774 305.154 572.21C305.575 570.492 347.306 399.986 340.337 368.976C334.017 340.855 317.275 342.576 316.567 342.655C316.068 342.724 315.561 342.694 315.074 342.566C314.587 342.439 314.129 342.217 313.728 341.913C312.918 341.299 312.384 340.389 312.245 339.381C312.106 338.374 312.373 337.353 312.987 336.543C313.601 335.732 314.512 335.199 315.519 335.06C315.76 335.022 339.884 331.995 347.819 367.294C355.179 400.049 314.341 566.951 312.599 574.036C312.394 574.868 311.917 575.608 311.243 576.137C310.569 576.666 309.737 576.955 308.88 576.956" stroke="#FF8D00" stroke-width="0.5"/>
<path d="M264.35 511.212C263.602 511.212 262.87 510.994 262.245 510.584C261.619 510.174 261.127 509.59 260.83 508.903C260.532 508.217 260.442 507.459 260.57 506.722C260.698 505.985 261.038 505.302 261.55 504.756C284.331 480.456 295.35 453.934 294.313 425.918C293.534 404.969 285.922 390.945 285.846 390.806C285.389 389.92 285.294 388.892 285.583 387.938C285.871 386.984 286.52 386.18 287.391 385.696C288.262 385.212 289.287 385.086 290.25 385.345C291.212 385.604 292.035 386.228 292.546 387.084C292.891 387.705 301.024 402.563 301.956 425.227C302.813 446.046 297.468 477.653 267.142 509.999C266.783 510.382 266.35 510.687 265.868 510.896C265.386 511.104 264.867 511.211 264.342 511.21" fill="#FF8D00"/>
<path d="M264.35 511.212C263.602 511.212 262.87 510.994 262.245 510.584C261.619 510.174 261.127 509.59 260.83 508.903C260.532 508.217 260.442 507.459 260.57 506.722C260.698 505.985 261.038 505.302 261.55 504.756C284.331 480.456 295.35 453.934 294.313 425.918C293.534 404.969 285.922 390.945 285.846 390.806C285.389 389.92 285.294 388.892 285.583 387.938C285.871 386.984 286.52 386.18 287.391 385.696C288.262 385.212 289.287 385.086 290.25 385.345C291.212 385.604 292.035 386.228 292.546 387.084C292.891 387.705 301.024 402.563 301.956 425.227C302.813 446.046 297.468 477.653 267.142 509.999C266.783 510.382 266.35 510.687 265.868 510.896C265.386 511.104 264.867 511.211 264.342 511.21" stroke="#FF8D00" stroke-width="0.5"/>
<path d="M105.228 576.958H20.5588C19.5421 576.958 18.5671 576.554 17.8481 575.835C17.1292 575.116 16.7253 574.141 16.7253 573.125C16.7253 572.108 17.1292 571.133 17.8481 570.414C18.5671 569.695 19.5421 569.291 20.5588 569.291H105.228C106.245 569.291 107.22 569.695 107.939 570.414C108.657 571.133 109.061 572.108 109.061 573.125C109.061 574.141 108.657 575.116 107.939 575.835C107.22 576.554 106.245 576.958 105.228 576.958Z" fill="#FF8D00" stroke="#FF8D00" stroke-width="0.5"/>
<path d="M493.177 576.958H171.621C170.604 576.958 169.629 576.554 168.91 575.835C168.191 575.116 167.787 574.141 167.787 573.125C167.787 572.108 168.191 571.133 168.91 570.414C169.629 569.695 170.604 569.291 171.621 569.291H493.177C494.194 569.291 495.169 569.695 495.888 570.414C496.606 571.133 497.01 572.108 497.01 573.125C497.01 574.141 496.606 575.116 495.888 575.835C495.169 576.554 494.194 576.958 493.177 576.958Z" fill="#FF8D00" stroke="#FF8D00" stroke-width="0.5"/>
<path d="M-23.6132 571.281H-58.3652C-61.4784 571.277 -64.4631 570.039 -66.6646 567.838C-68.8662 565.637 -70.1049 562.652 -70.1092 559.539V555.526H-80.7772C-83.1542 555.524 -85.4332 554.578 -87.1141 552.898C-88.795 551.217 -89.7405 548.938 -89.7432 546.561V532.48C-89.7432 531.463 -89.3393 530.488 -88.6204 529.769C-87.9014 529.05 -86.9264 528.646 -85.9097 528.646C-84.893 528.646 -83.9179 529.05 -83.199 529.769C-82.4801 530.488 -82.0762 531.463 -82.0762 532.48V546.558C-82.0762 546.903 -81.9392 547.233 -81.6954 547.477C-81.4516 547.721 -81.1209 547.858 -80.7762 547.858H-66.2762C-65.2597 547.858 -64.2849 548.262 -63.5661 548.981C-62.8473 549.7 -62.4434 550.674 -62.4432 551.691V559.539C-62.4421 560.62 -62.0121 561.657 -61.2476 562.422C-60.4831 563.186 -59.4465 563.617 -58.3652 563.618H-23.6152C-23.072 563.618 -22.5342 563.51 -22.0335 563.299C-21.5328 563.089 -21.0792 562.78 -20.6993 562.392C-20.3195 562.004 -20.0211 561.543 -19.8217 561.038C-19.6223 560.533 -19.5259 559.993 -19.5382 559.45V551.689C-19.5379 550.672 -19.134 549.698 -18.4152 548.979C-17.6964 548.26 -16.7217 547.856 -15.7052 547.856H-7.83616C-6.77529 547.856 -5.75789 547.435 -5.00774 546.684C-4.2576 545.934 -3.83616 544.917 -3.83616 543.856V503.21C-3.83669 502.716 -4.033 502.243 -4.38206 501.894C-4.73111 501.544 -5.2044 501.348 -5.69816 501.347H-80.2032C-80.6969 501.348 -81.1702 501.544 -81.5193 501.894C-81.8683 502.243 -82.0646 502.716 -82.0652 503.21L-82.0762 533.398C-82.0762 533.398 -83.7922 537.231 -85.9102 537.231C-86.9267 537.231 -87.9017 536.827 -88.6205 536.108C-89.3393 535.389 -89.7432 534.415 -89.7432 533.398L-89.7322 503.21C-89.7293 500.683 -88.7244 498.261 -86.938 496.475C-85.1517 494.688 -82.7296 493.683 -80.2032 493.68H-5.69816C-3.17171 493.683 -0.749672 494.688 1.03671 496.475C2.82308 498.261 3.82792 500.683 3.83083 503.21V543.852C3.82739 546.945 2.59708 549.911 0.409843 552.098C-1.7774 554.285 -4.74294 555.516 -7.83616 555.519H-11.8722V559.365C-11.8492 560.921 -12.136 562.467 -12.7157 563.911C-13.2955 565.356 -14.1566 566.671 -15.2491 567.78C-16.3417 568.889 -17.6437 569.769 -19.0796 570.37C-20.5155 570.971 -22.0566 571.281 -23.6132 571.281Z" fill="#FF8D00" stroke="#FF8D00" stroke-width="0.5"/>
<path d="M-0.000214577 544.384C-0.836183 544.387 -1.65005 544.116 -2.31778 543.613C-2.98551 543.11 -3.4705 542.402 -3.69884 541.598C-3.92718 540.794 -3.88635 539.937 -3.58258 539.158C-3.27881 538.379 -2.72875 537.721 -2.01622 537.284L11.4738 528.961C11.7758 528.735 12.021 528.442 12.1899 528.105C12.3588 527.768 12.4467 527.396 12.4468 527.019V517.979L-0.953218 514.57C-1.44649 514.451 -1.91125 514.236 -2.32054 513.936C-2.72984 513.636 -3.07552 513.258 -3.33754 512.823C-3.59956 512.389 -3.77271 511.906 -3.84694 511.405C-3.92117 510.903 -3.89501 510.391 -3.76997 509.899C-3.64494 509.407 -3.42352 508.945 -3.11855 508.54C-2.81358 508.134 -2.43112 507.793 -1.99338 507.537C-1.55564 507.28 -1.0713 507.113 -0.568482 507.045C-0.0656617 506.977 0.445634 507.01 0.935775 507.141L15.2688 510.787C16.6532 511.138 17.881 511.941 18.7577 513.068C19.6344 514.196 20.1098 515.584 20.1088 517.012V527.025C20.1082 528.651 19.7148 530.254 18.9622 531.695C18.2095 533.137 17.1199 534.376 15.7858 535.306C15.7278 535.347 15.6678 535.385 15.6068 535.422L2.00677 543.813C1.40332 544.187 0.707552 544.384 -0.00221348 544.384" fill="#FF8D00"/>
<path d="M-0.000214577 544.384C-0.836183 544.387 -1.65005 544.116 -2.31778 543.613C-2.98551 543.11 -3.4705 542.402 -3.69884 541.598C-3.92718 540.794 -3.88635 539.937 -3.58258 539.158C-3.27881 538.379 -2.72875 537.721 -2.01622 537.284L11.4738 528.961C11.7758 528.735 12.021 528.442 12.1899 528.105C12.3588 527.768 12.4467 527.396 12.4468 527.019V517.979L-0.953218 514.57C-1.44649 514.451 -1.91125 514.236 -2.32054 513.936C-2.72984 513.636 -3.07552 513.258 -3.33754 512.823C-3.59956 512.389 -3.77271 511.906 -3.84694 511.405C-3.92117 510.903 -3.89501 510.391 -3.76997 509.899C-3.64494 509.407 -3.42352 508.945 -3.11855 508.54C-2.81358 508.134 -2.43112 507.793 -1.99338 507.537C-1.55564 507.28 -1.0713 507.113 -0.568482 507.045C-0.0656616 506.977 0.445634 507.01 0.935775 507.141L15.2688 510.787C16.6532 511.138 17.881 511.941 18.7577 513.068C19.6344 514.196 20.1098 515.584 20.1088 517.012V527.025C20.1082 528.651 19.7148 530.254 18.9622 531.695C18.2095 533.137 17.1199 534.376 15.7858 535.306C15.7278 535.347 15.6678 535.385 15.6068 535.422L2.00677 543.813C1.40332 544.187 0.707552 544.384 -0.00221348 544.384" stroke="#FF8D00" stroke-width="0.5"/>
<path d="M-65.8102 584.58C-104.65 584.58 -111.893 578.939 -113.628 573.306C-115.31 567.838 -113.539 564.193 -111.756 562.098C-103.948 552.923 -80.1652 555.709 -75.4772 556.36C-74.4843 556.516 -73.5922 557.055 -72.9931 557.862C-72.394 558.669 -72.1357 559.679 -72.2739 560.675C-72.4121 561.67 -72.9357 562.572 -73.7319 563.185C-74.5281 563.798 -75.5334 564.074 -76.5312 563.954C-86.4682 562.58 -102.152 562.639 -105.919 567.068C-106.469 567.714 -107.009 568.75 -106.3 571.048C-106.279 571.117 -103.7 577.724 -56.9232 576.821C-30.3232 576.299 -0.789185 573.639 14.4478 572.099C15.009 572.042 15.5355 571.801 15.9453 571.413C16.355 571.026 16.6251 570.513 16.7132 569.956C16.8013 569.399 16.7026 568.829 16.4325 568.333C16.1624 567.838 15.736 567.446 15.2198 567.219C10.0468 564.934 1.84581 563.845 -9.16419 563.99C-10.1747 563.994 -11.1458 563.598 -11.8662 562.889C-12.5866 562.181 -12.9982 561.216 -13.0114 560.206C-13.0245 559.196 -12.6383 558.221 -11.9366 557.494C-11.2349 556.766 -10.2745 556.346 -9.2642 556.323C2.8468 556.195 12.1358 557.474 18.3148 560.207C20.3795 561.118 22.0848 562.686 23.1646 564.668C24.2444 566.65 24.638 568.933 24.2841 571.162C23.9302 573.39 22.8486 575.439 21.208 576.989C19.5674 578.539 17.4601 579.502 15.2148 579.728C-0.138184 581.279 -29.9032 583.959 -56.7782 584.486C-59.9642 584.553 -62.9765 584.584 -65.8152 584.579" fill="#FF8D00"/>
<path d="M-65.8102 584.58C-104.65 584.58 -111.893 578.939 -113.628 573.306C-115.31 567.838 -113.539 564.193 -111.756 562.098C-103.948 552.923 -80.1652 555.709 -75.4772 556.36C-74.4843 556.516 -73.5922 557.055 -72.9931 557.862C-72.394 558.669 -72.1357 559.679 -72.2739 560.675C-72.4121 561.67 -72.9357 562.572 -73.7319 563.185C-74.5281 563.798 -75.5334 564.074 -76.5312 563.954C-86.4682 562.58 -102.152 562.639 -105.919 567.068C-106.469 567.714 -107.009 568.75 -106.3 571.048C-106.279 571.117 -103.7 577.724 -56.9232 576.821C-30.3232 576.299 -0.789186 573.639 14.4478 572.099C15.009 572.042 15.5355 571.801 15.9453 571.413C16.355 571.026 16.6251 570.513 16.7132 569.956C16.8013 569.399 16.7026 568.829 16.4325 568.333C16.1624 567.838 15.736 567.446 15.2198 567.219C10.0468 564.934 1.84581 563.845 -9.16419 563.99C-10.1747 563.994 -11.1458 563.598 -11.8662 562.889C-12.5866 562.181 -12.9982 561.216 -13.0114 560.206C-13.0245 559.196 -12.6383 558.221 -11.9366 557.494C-11.2349 556.766 -10.2745 556.346 -9.2642 556.323C2.8468 556.195 12.1358 557.474 18.3148 560.207C20.3795 561.118 22.0848 562.686 23.1646 564.668C24.2444 566.65 24.638 568.933 24.2841 571.162C23.9302 573.39 22.8486 575.439 21.208 576.989C19.5674 578.539 17.4601 579.502 15.2148 579.728C-0.138186 581.279 -29.9032 583.959 -56.7782 584.486C-59.9642 584.553 -62.9765 584.584 -65.8152 584.579" stroke="#FF8D00" stroke-width="0.5"/>
<path d="M121.17 478.038C120.364 478.038 119.58 477.784 118.927 477.312C118.274 476.84 117.786 476.175 117.532 475.411L85.6458 379.269C85.4813 378.79 85.4135 378.282 85.4463 377.777C85.4791 377.271 85.6118 376.777 85.8369 376.322C86.0619 375.868 86.3747 375.463 86.7573 375.131C87.1399 374.798 87.5846 374.545 88.0657 374.385C88.5468 374.226 89.0547 374.163 89.5601 374.201C90.0655 374.24 90.5584 374.377 91.0102 374.607C91.462 374.837 91.8637 375.154 92.1922 375.54C92.5206 375.926 92.7693 376.373 92.9238 376.856L124.809 472.997C124.999 473.573 125.05 474.187 124.958 474.786C124.865 475.386 124.632 475.956 124.276 476.448C123.921 476.94 123.454 477.34 122.914 477.617C122.374 477.894 121.776 478.038 121.169 478.039" fill="#FF8D00"/>
<path d="M121.17 478.038C120.364 478.038 119.58 477.784 118.927 477.312C118.274 476.84 117.786 476.175 117.532 475.411L85.6458 379.269C85.4813 378.79 85.4135 378.282 85.4463 377.777C85.4791 377.271 85.6118 376.777 85.8369 376.322C86.0619 375.868 86.3747 375.463 86.7573 375.131C87.1399 374.798 87.5846 374.545 88.0657 374.385C88.5468 374.226 89.0547 374.163 89.5601 374.201C90.0655 374.24 90.5584 374.377 91.0102 374.607C91.462 374.837 91.8637 375.154 92.1922 375.54C92.5206 375.926 92.7693 376.373 92.9238 376.856L124.809 472.997C124.999 473.573 125.05 474.187 124.958 474.786C124.865 475.386 124.632 475.956 124.276 476.448C123.921 476.94 123.454 477.34 122.914 477.617C122.374 477.894 121.776 478.038 121.169 478.039" stroke="#FF8D00" stroke-width="0.5"/>
<path d="M47.5037 431.094H-122.725C-123.599 431.096 -124.439 430.75 -125.058 430.134C-125.678 429.517 -126.028 428.68 -126.031 427.806V56.527C-126.028 55.6528 -125.678 54.8156 -125.058 54.1992C-124.439 53.5828 -123.599 53.2374 -122.725 53.239H165.063C165.937 53.2374 166.776 53.5828 167.396 54.1992C168.016 54.8156 168.366 55.6528 168.369 56.527V134.239C168.354 135.106 167.999 135.932 167.381 136.539C166.762 137.147 165.93 137.488 165.063 137.488C164.196 137.488 163.364 137.147 162.746 136.539C162.128 135.932 161.773 135.106 161.758 134.239V59.814H-119.42V424.514H27.1037C27.9779 424.512 28.817 424.858 29.4368 425.474C30.0567 426.091 30.4066 426.928 30.4097 427.802C30.4097 429.618 27.1037 431.09 27.1037 431.09" fill="#FF8D00"/>
<path d="M47.5037 431.094H-122.725C-123.599 431.096 -124.439 430.75 -125.058 430.134C-125.678 429.517 -126.028 428.68 -126.031 427.806V56.527C-126.028 55.6528 -125.678 54.8156 -125.058 54.1992C-124.439 53.5828 -123.599 53.2374 -122.725 53.239H165.063C165.937 53.2374 166.776 53.5828 167.396 54.1992C168.016 54.8156 168.366 55.6528 168.369 56.527V134.239C168.354 135.106 167.999 135.932 167.381 136.539C166.762 137.147 165.93 137.488 165.063 137.488C164.196 137.488 163.364 137.147 162.746 136.539C162.128 135.932 161.773 135.106 161.758 134.239V59.814H-119.42V424.514H27.1037C27.9779 424.512 28.817 424.858 29.4368 425.474C30.0567 426.091 30.4066 426.928 30.4097 427.802C30.4097 429.618 27.1037 431.09 27.1037 431.09" stroke="#FF8D00" stroke-width="0.5"/>
<path d="M-14.5902 375.299C-63.1902 375.299 -71.4782 368.148 -73.1702 361.843C-78.1922 343.129 -63.7212 203.443 -63.1022 197.512C-63.0161 196.683 -62.6258 195.915 -62.0067 195.357C-61.3876 194.799 -60.5837 194.491 -59.7502 194.491H89.5258C90.4196 194.491 91.2767 194.846 91.9087 195.478C92.5407 196.11 92.8958 196.967 92.8958 197.861C92.8958 198.755 92.5407 199.612 91.9087 200.244C91.2767 200.876 90.4196 201.231 89.5258 201.231H-56.7112C-61.0502 243.438 -70.4652 345.91 -66.6652 360.099C-66.2652 361.592 -61.6572 369.039 -9.87022 368.539C18.1698 368.284 31.2558 365.515 31.5298 365.49C31.9705 365.45 32.4149 365.496 32.8376 365.628C33.2602 365.759 33.6528 365.972 33.993 366.256C34.3332 366.539 34.6142 366.886 34.8201 367.278C35.026 367.67 35.1526 368.098 35.1928 368.539C35.3628 370.393 32.1438 372.202 32.1438 372.202C32.1438 372.202 18.5018 375.021 -9.81222 375.279C-11.4482 375.294 -13.0435 375.301 -14.5982 375.301" fill="#FF8D00"/>
<path d="M-14.5902 375.299C-63.1902 375.299 -71.4782 368.148 -73.1702 361.843C-78.1922 343.129 -63.7212 203.443 -63.1022 197.512C-63.0161 196.683 -62.6258 195.915 -62.0067 195.357C-61.3876 194.799 -60.5837 194.491 -59.7502 194.491H89.5258C90.4196 194.491 91.2767 194.846 91.9087 195.478C92.5407 196.11 92.8958 196.967 92.8958 197.861C92.8958 198.755 92.5407 199.612 91.9087 200.244C91.2767 200.876 90.4196 201.231 89.5258 201.231H-56.7112C-61.0502 243.438 -70.4652 345.91 -66.6652 360.099C-66.2652 361.592 -61.6572 369.039 -9.87022 368.539C18.1698 368.284 31.2558 365.515 31.5298 365.49C31.9705 365.45 32.4149 365.496 32.8376 365.628C33.2602 365.759 33.6528 365.972 33.993 366.256C34.3332 366.539 34.6142 366.886 34.8201 367.278C35.026 367.67 35.1526 368.098 35.1928 368.539C35.3628 370.393 32.1438 372.202 32.1438 372.202C32.1438 372.202 18.5018 375.021 -9.81222 375.279C-11.4482 375.294 -13.0436 375.301 -14.5982 375.301" stroke="#FF8D00" stroke-width="0.5"/>
<path d="M-4.35216 276.697C-6.73589 276.787 -9.11344 276.398 -11.344 275.552C-13.5746 274.707 -15.6129 273.422 -17.3382 271.775C-20.4298 268.515 -22.486 264.412 -23.2472 259.984C-41.3732 279.25 -67.0122 272.384 -67.2972 272.299C-68.1581 272.059 -68.8881 271.486 -69.3268 270.707C-69.7654 269.928 -69.8767 269.007 -69.6362 268.146C-69.3956 267.285 -68.8229 266.555 -68.0441 266.116C-67.2652 265.678 -66.344 265.567 -65.4832 265.807C-64.3392 266.121 -38.5162 272.877 -23.3932 249.213C-22.9884 248.578 -22.3828 248.098 -21.6729 247.847C-20.963 247.597 -20.1897 247.591 -19.4763 247.831C-18.7629 248.072 -18.1505 248.544 -17.7367 249.173C-17.3229 249.802 -17.1315 250.551 -17.1932 251.301C-17.2012 251.401 -17.9321 261.78 -12.6051 266.974C-10.1521 269.369 -6.75015 270.304 -2.20515 269.843C15.3748 268.049 17.6049 240.7 17.6248 240.425C17.6843 239.623 18.0287 238.868 18.5959 238.298C19.1631 237.727 19.9155 237.378 20.7174 237.314C21.5193 237.25 22.3178 237.474 22.9685 237.947C23.6193 238.42 24.0794 239.11 24.2658 239.893C24.3328 240.179 31.3498 268.565 49.2658 265.806C50.8958 264.946 59.6948 259.383 59.6948 239.459C59.6957 238.634 59.9989 237.838 60.5471 237.222C61.0953 236.606 61.8504 236.212 62.6695 236.115C63.4886 236.018 64.3149 236.225 64.9918 236.696C65.6687 237.167 66.1494 237.87 66.3428 238.672C66.5849 239.664 72.5869 263.138 95.6958 264.738C96.1373 264.769 96.5684 264.886 96.9645 265.083C97.3606 265.28 97.714 265.554 98.0045 265.887C98.2951 266.221 98.517 266.609 98.6576 267.028C98.7983 267.448 98.8549 267.891 98.8243 268.333C98.7937 268.774 98.6765 269.205 98.4793 269.601C98.2821 269.997 98.0088 270.351 97.675 270.641C97.3412 270.932 96.9535 271.154 96.534 271.294C96.1144 271.435 95.6713 271.492 95.2298 271.461C79.3618 270.361 70.1348 260.642 65.0968 252.335C61.5289 267.957 52.0289 271.981 51.5349 272.18C51.3204 272.266 51.098 272.33 50.8708 272.371C35.6228 275.093 26.6398 263.011 21.9488 253.145C18.9918 262.891 12.5069 275.115 -1.52115 276.545C-2.46134 276.643 -3.4059 276.692 -4.35115 276.694" fill="#FF8D00"/>
<path d="M-4.35216 276.697C-6.73589 276.787 -9.11344 276.398 -11.344 275.552C-13.5746 274.707 -15.6129 273.422 -17.3382 271.775C-20.4298 268.515 -22.486 264.412 -23.2472 259.984C-41.3732 279.25 -67.0122 272.384 -67.2972 272.299C-68.1581 272.059 -68.8881 271.486 -69.3268 270.707C-69.7654 269.928 -69.8767 269.007 -69.6362 268.146C-69.3956 267.285 -68.8229 266.555 -68.0441 266.116C-67.2652 265.678 -66.344 265.567 -65.4832 265.807C-64.3392 266.121 -38.5162 272.877 -23.3932 249.213C-22.9884 248.578 -22.3828 248.098 -21.6729 247.847C-20.963 247.597 -20.1897 247.591 -19.4763 247.831C-18.7629 248.072 -18.1505 248.544 -17.7367 249.173C-17.3229 249.802 -17.1315 250.551 -17.1932 251.301C-17.2012 251.401 -17.9321 261.78 -12.6051 266.974C-10.1521 269.369 -6.75015 270.304 -2.20515 269.843C15.3748 268.049 17.6048 240.7 17.6248 240.425C17.6843 239.623 18.0287 238.868 18.5959 238.298C19.1631 237.727 19.9155 237.378 20.7174 237.314C21.5193 237.25 22.3178 237.474 22.9685 237.947C23.6193 238.42 24.0794 239.11 24.2658 239.893C24.3328 240.179 31.3498 268.565 49.2658 265.806C50.8958 264.946 59.6948 259.383 59.6948 239.459C59.6957 238.634 59.9989 237.838 60.5471 237.222C61.0953 236.606 61.8504 236.212 62.6695 236.115C63.4886 236.018 64.3149 236.225 64.9918 236.696C65.6687 237.167 66.1494 237.87 66.3428 238.672C66.5848 239.664 72.5868 263.138 95.6958 264.738C96.1373 264.769 96.5684 264.886 96.9645 265.083C97.3606 265.28 97.714 265.554 98.0045 265.887C98.2951 266.221 98.517 266.609 98.6576 267.028C98.7983 267.448 98.8549 267.891 98.8243 268.333C98.7937 268.774 98.6765 269.205 98.4793 269.601C98.2821 269.997 98.0088 270.351 97.675 270.641C97.3413 270.932 96.9535 271.154 96.534 271.294C96.1144 271.435 95.6713 271.492 95.2298 271.461C79.3618 270.361 70.1348 260.642 65.0968 252.335C61.5288 267.957 52.0289 271.981 51.5349 272.18C51.3204 272.266 51.098 272.33 50.8708 272.371C35.6228 275.093 26.6398 263.011 21.9488 253.145C18.9918 262.891 12.5069 275.115 -1.52115 276.545C-2.46134 276.643 -3.4059 276.692 -4.35115 276.694" stroke="#FF8D00" stroke-width="0.5"/>
<path d="M4.0318 201.233C3.18537 201.232 2.37031 200.913 1.74855 200.338C1.12679 199.764 0.743838 198.977 0.675793 198.133C0.637793 197.659 -0.161201 186.439 7.2758 178.484C12.0288 173.402 18.9338 170.914 27.7208 170.991C52.8858 171.305 61.6438 192.269 61.6108 197.597C61.6296 198.066 61.5539 198.534 61.3883 198.973C61.2226 199.412 60.9704 199.813 60.6466 200.152C60.3228 200.492 59.934 200.763 59.5034 200.949C59.0727 201.136 58.609 201.233 58.1398 201.237C57.2461 201.237 56.3891 200.882 55.7571 200.25C55.1252 199.618 54.7701 198.761 54.7698 197.867C54.7699 197.674 54.7863 197.481 54.8188 197.29C54.1338 193.78 47.5638 177.979 27.6378 177.731C20.8078 177.678 15.6038 179.448 12.1998 183.089C6.76879 188.895 7.3858 197.514 7.3928 197.599C7.42795 198.04 7.37584 198.484 7.23947 198.905C7.1031 199.326 6.88514 199.716 6.59802 200.053C6.3109 200.39 5.96024 200.667 5.56608 200.868C5.17192 201.069 4.74197 201.191 4.30079 201.226C4.20979 201.233 4.11979 201.237 4.02879 201.237" fill="#FF8D00"/>
<path d="M4.0318 201.233C3.18537 201.232 2.37031 200.913 1.74855 200.338C1.12679 199.764 0.743838 198.977 0.675793 198.133C0.637793 197.659 -0.161201 186.439 7.2758 178.484C12.0288 173.402 18.9338 170.914 27.7208 170.991C52.8858 171.305 61.6438 192.269 61.6108 197.597C61.6296 198.066 61.5539 198.534 61.3883 198.973C61.2226 199.412 60.9704 199.813 60.6466 200.152C60.3228 200.492 59.934 200.763 59.5034 200.949C59.0727 201.136 58.609 201.233 58.1398 201.237C57.2461 201.237 56.3891 200.882 55.7571 200.25C55.1252 199.618 54.7701 198.761 54.7698 197.867C54.7699 197.674 54.7863 197.481 54.8188 197.29C54.1338 193.78 47.5638 177.979 27.6378 177.731C20.8078 177.678 15.6038 179.448 12.1998 183.089C6.76879 188.895 7.3858 197.514 7.3928 197.599C7.42795 198.04 7.37584 198.484 7.23947 198.905C7.1031 199.326 6.88514 199.716 6.59802 200.053C6.3109 200.39 5.96024 200.667 5.56608 200.868C5.17192 201.069 4.74197 201.191 4.30079 201.226C4.20979 201.233 4.11979 201.237 4.02879 201.237" stroke="#FF8D00" stroke-width="0.5"/>
<path d="M27.6808 177.728C27.1336 177.728 26.5947 177.594 26.1107 177.339C25.6267 177.084 25.2121 176.715 24.9027 176.263C24.5933 175.812 24.3984 175.292 24.3348 174.749C24.2712 174.205 24.3409 173.655 24.5378 173.144C24.6498 172.851 32.6498 151.544 22.9548 140.644C16.1808 133.025 1.42076 131.853 -19.7272 137.244C-20.1562 137.353 -20.6025 137.377 -21.0407 137.314C-21.4789 137.251 -21.9003 137.102 -22.281 136.876C-22.6617 136.65 -22.9941 136.352 -23.2593 135.997C-23.5245 135.643 -23.7173 135.239 -23.8267 134.811C-23.9361 134.382 -23.96 133.935 -23.8969 133.497C-23.8338 133.059 -23.685 132.637 -23.459 132.257C-23.233 131.876 -22.9343 131.544 -22.5799 131.278C-22.2254 131.013 -21.8222 130.82 -21.3932 130.711C2.70676 124.563 19.3318 126.399 28.0068 136.177C40.4348 150.177 31.2228 174.541 30.8248 175.577C30.5789 176.211 30.1471 176.757 29.5858 177.141C29.0246 177.526 28.3601 177.732 27.6798 177.732" fill="#FF8D00"/>
<path d="M27.6808 177.728C27.1336 177.728 26.5948 177.594 26.1107 177.339C25.6267 177.084 25.2121 176.715 24.9027 176.263C24.5933 175.812 24.3984 175.292 24.3348 174.749C24.2712 174.205 24.3409 173.655 24.5378 173.144C24.6498 172.851 32.6498 151.544 22.9548 140.644C16.1808 133.025 1.42076 131.853 -19.7272 137.244C-20.1562 137.353 -20.6025 137.377 -21.0407 137.314C-21.4789 137.251 -21.9003 137.102 -22.281 136.876C-22.6617 136.65 -22.9941 136.352 -23.2593 135.997C-23.5245 135.643 -23.7173 135.239 -23.8267 134.811C-23.9361 134.382 -23.96 133.935 -23.8969 133.497C-23.8338 133.059 -23.685 132.637 -23.459 132.257C-23.233 131.876 -22.9343 131.544 -22.5799 131.278C-22.2254 131.013 -21.8222 130.82 -21.3932 130.711C2.70676 124.563 19.3318 126.399 28.0068 136.177C40.4348 150.177 31.2228 174.541 30.8248 175.577C30.5789 176.211 30.1471 176.757 29.5858 177.141C29.0246 177.526 28.3601 177.732 27.6798 177.732" stroke="#FF8D00" stroke-width="0.5"/>
<path d="M55.9648 329.039C43.1828 329.039 27.0728 327.597 12.5778 325.908C-45.3762 319.149 -69.4102 328.358 -69.6452 328.453C-70.4718 328.775 -71.3919 328.758 -72.2061 328.406C-73.0203 328.054 -73.663 327.396 -73.9948 326.573C-74.3267 325.75 -74.3209 324.83 -73.9788 324.012C-73.6367 323.193 -72.9858 322.543 -72.1672 322.201C-71.1522 321.791 -46.6422 312.22 13.3588 319.213C63.0958 325.013 72.5178 320.938 73.6198 320.313C74.1597 319.705 74.9012 319.313 75.7075 319.209C76.5139 319.105 77.3307 319.295 78.0074 319.746C78.6842 320.197 79.1752 320.877 79.3899 321.661C79.6046 322.445 79.5285 323.281 79.1758 324.013C77.4078 327.713 68.2148 329.039 55.9648 329.039Z" fill="#FF8D00"/>
<path d="M73.0978 321.108V321.1V321.094M55.9648 329.039C43.1828 329.039 27.0728 327.597 12.5778 325.908C-45.3762 319.149 -69.4102 328.358 -69.6452 328.453C-70.4718 328.775 -71.3919 328.758 -72.2061 328.406C-73.0203 328.054 -73.663 327.396 -73.9948 326.573C-74.3267 325.75 -74.3209 324.83 -73.9788 324.012C-73.6367 323.193 -72.9858 322.543 -72.1672 322.201C-71.1522 321.791 -46.6422 312.22 13.3588 319.213C63.0958 325.013 72.5178 320.938 73.6198 320.313C74.1597 319.705 74.9012 319.313 75.7075 319.209C76.5139 319.105 77.3307 319.295 78.0074 319.746C78.6842 320.197 79.1752 320.877 79.3899 321.661C79.6046 322.445 79.5285 323.281 79.1758 324.013C77.4078 327.713 68.2148 329.039 55.9648 329.039Z" stroke="#FF8D00" stroke-width="0.5"/>
<path d="M112.537 180.171C112.537 180.171 196.077 155.823 282.313 197.798C282.313 197.798 346.441 130.439 243.386 101.032C213.672 92.6175 182.452 90.9599 152.014 96.1811C109.171 103.451 58.8788 123.714 112.537 180.171Z" fill="#FF8D00" stroke="#FF8D00" stroke-width="0.5"/>
<path d="M224.841 97.042C224.009 97.0436 223.2 96.7747 222.534 96.2759C221.869 95.7771 221.384 95.0754 221.152 94.2768C220.921 93.4781 220.955 92.6258 221.25 91.8484C221.545 91.071 222.085 90.4107 222.789 89.9671C227.17 87.1891 231.489 83.0081 231.746 81.3371C231.101 80.8543 230.364 80.5104 229.58 80.3271C228.648 79.99 227.654 79.8619 226.667 79.9517C225.681 80.0416 224.726 80.3472 223.871 80.847C219.341 83.503 216.759 91.263 216.147 94.028C216.039 94.5198 215.836 94.9857 215.549 95.3989C215.261 95.8122 214.895 96.1648 214.471 96.4366C214.048 96.7084 213.575 96.8941 213.079 96.983C212.584 97.072 212.076 97.0625 211.584 96.955C211.092 96.8476 210.626 96.6444 210.213 96.3569C209.8 96.0695 209.447 95.7035 209.175 95.2797C208.903 94.856 208.718 94.3829 208.629 93.8875C208.54 93.392 208.549 92.8839 208.657 92.3921C208.95 91.0441 211.757 79.0801 219.97 74.2461C221.739 73.2131 223.707 72.5669 225.744 72.3499C227.782 72.1329 229.842 72.35 231.789 72.987C237.462 74.697 239.035 77.8521 239.355 80.1981C240.331 87.3501 230.055 94.4451 226.882 96.4491C226.27 96.8366 225.562 97.0422 224.838 97.042" fill="#FF8D00"/>
<path d="M224.841 97.042C224.009 97.0436 223.2 96.7747 222.534 96.2759C221.869 95.7771 221.384 95.0754 221.152 94.2768C220.921 93.4781 220.955 92.6258 221.25 91.8484C221.545 91.071 222.085 90.4107 222.789 89.9671C227.17 87.1891 231.489 83.0081 231.746 81.3371C231.101 80.8543 230.364 80.5104 229.58 80.3271C228.648 79.99 227.654 79.8619 226.667 79.9517C225.681 80.0416 224.726 80.3472 223.871 80.847C219.341 83.503 216.759 91.263 216.147 94.028C216.039 94.5198 215.836 94.9857 215.549 95.3989C215.261 95.8122 214.895 96.1648 214.471 96.4366C214.048 96.7084 213.575 96.8941 213.079 96.983C212.584 97.072 212.076 97.0625 211.584 96.955C211.092 96.8476 210.626 96.6444 210.213 96.3569C209.8 96.0695 209.447 95.7035 209.175 95.2797C208.903 94.856 208.718 94.3829 208.629 93.8875C208.54 93.392 208.549 92.8839 208.657 92.3921C208.95 91.0441 211.757 79.0801 219.97 74.2461C221.739 73.2131 223.707 72.5669 225.744 72.3499C227.782 72.1329 229.842 72.35 231.789 72.987C237.462 74.697 239.035 77.8521 239.355 80.1981C240.331 87.3501 230.055 94.4451 226.882 96.4491C226.27 96.8366 225.562 97.0422 224.838 97.042" stroke="#FF8D00" stroke-width="0.5"/>
<path d="M282.311 201.631C281.73 201.632 281.156 201.5 280.634 201.245C196.814 160.445 114.434 183.613 113.606 183.852C112.93 184.048 112.214 184.055 111.535 183.871C110.856 183.688 110.241 183.321 109.757 182.811C89.5848 161.587 81.9158 143.141 86.9628 127.981C92.7338 110.645 114.404 98.6741 151.37 92.4011C182.372 87.127 214.159 88.8151 244.429 97.3431C278.741 107.135 298.908 122.273 304.376 142.343C312.301 171.428 286.203 199.27 285.088 200.443C284.73 200.819 284.299 201.119 283.821 201.324C283.344 201.528 282.829 201.633 282.31 201.633M172.081 169.317C200.593 169.317 240.528 173.84 281.345 193.081C286.845 186.474 302.664 165.13 296.976 144.329C292.249 127.041 273.866 113.714 242.338 104.718C213.169 96.5036 182.539 94.878 152.665 99.9591C129.314 103.922 100.229 112.419 94.2418 130.403C90.2788 142.303 96.8488 157.603 113.766 175.875C120.081 174.275 138.833 170.106 164.988 169.412C167.261 169.352 169.63 169.317 172.081 169.317Z" fill="#FF8D00"/>
<path d="M282.311 201.631C281.73 201.632 281.156 201.5 280.634 201.245C196.814 160.445 114.434 183.613 113.606 183.852C112.93 184.048 112.214 184.055 111.535 183.871C110.856 183.688 110.241 183.321 109.757 182.811C89.5848 161.587 81.9158 143.141 86.9628 127.981C92.7338 110.645 114.404 98.6741 151.37 92.4011C182.372 87.127 214.159 88.8151 244.429 97.3431C278.741 107.135 298.908 122.273 304.376 142.343C312.301 171.428 286.203 199.27 285.088 200.443C284.73 200.819 284.299 201.119 283.821 201.324C283.344 201.528 282.829 201.633 282.31 201.633M172.081 169.317C200.593 169.317 240.528 173.84 281.345 193.081C286.845 186.474 302.664 165.13 296.976 144.329C292.249 127.041 273.866 113.714 242.338 104.718C213.169 96.5036 182.539 94.878 152.665 99.9591C129.314 103.922 100.229 112.419 94.2418 130.403C90.2788 142.303 96.8488 157.603 113.766 175.875C120.081 174.275 138.833 170.106 164.988 169.412C167.261 169.352 169.63 169.317 172.081 169.317Z" stroke="#FF8D00" stroke-width="0.5"/>
</g>
</svg>
