<svg width="100%" height="100%" viewBox="0 0 126 135" fill="none" xmlns="http://www.w3.org/2000/svg">
<path d="M121.438 97.073C117.478 86.796 106.999 66.379 103.323 59.303L103.029 57.036L102.975 57.004L102.796 58.29C102.478 57.68 102.25 57.245 102.128 57.012L102.793 56.866C102.69 56.775 102.599 56.6719 102.521 56.559C98.1929 54.252 64.8649 37.572 25.8319 48.909C25.8319 48.909 1.03195 63.227 17.3429 72.443L16.6429 74.136C12.168 79.2588 8.28043 84.8664 5.05294 90.854C3.65998 93.5515 2.9056 96.533 2.84804 99.5683C2.79049 102.604 3.4313 105.612 4.721 108.36C6.0107 111.108 7.91478 113.523 10.2862 115.419C12.6576 117.314 15.433 118.64 18.3979 119.292L22.4359 120.18L31.9809 122.636C31.9809 122.636 25.1699 101.053 24.3809 97.366C23.5919 93.679 24.3809 92.351 24.3809 92.351L27.0629 92.323L28.3119 90.352C25.5279 86.552 28.2659 76.712 28.2659 76.712L27.6489 75.39C30.3204 75.6553 32.9979 74.9472 35.1889 73.396L38.6789 70.972L45.5709 69.455C47.3883 70.4317 49.3682 71.0698 51.4139 71.338C56.8052 72.1544 62.3175 71.354 67.2539 69.038L69.9729 67.784L65.7649 66.519L67.592 66.428C70.91 68.266 76.6729 69.159 86.6629 66.343L91.9499 85.986C91.9499 87.63 91.9159 89.259 91.8779 90.74C90.9782 96.1144 88.6323 101.143 85.092 105.285C68.765 124.634 89.9299 131.258 102.024 123.412L101.854 122.781C103.709 123.656 105.761 124.029 107.805 123.861C111.815 123.575 115.584 121.836 118.404 118.971C121.224 116.105 122.903 112.31 123.125 108.295C123.395 104.476 122.818 100.644 121.436 97.073M66.0769 66.341C65.9657 66.4225 65.8369 66.4769 65.7009 66.5L64.5939 66.167L64.3219 65.328L64.6769 65.249L65.8929 65.66C66.009 65.6856 66.114 65.7472 66.1929 65.836C66.2373 65.9192 66.25 66.0156 66.2289 66.1075C66.2078 66.1994 66.1542 66.2805 66.0779 66.336M64.76 65.226L65.6599 65.026C65.9701 65.3143 66.2992 65.5815 66.6449 65.826L64.76 65.226ZM85.0599 64.714L86.169 64.495L86.2919 64.951L85.0599 64.714ZM88.626 67.575C90.1197 70.7943 91.1386 74.2132 91.6509 77.725C90.9913 74.2463 89.9774 70.8442 88.6249 67.572M101.764 59.272L101.344 58.432C101.415 58.4289 101.486 58.4168 101.554 58.396L101.913 57.672L101.119 57.98L100.78 57.303L102.001 57.034L101.764 59.272Z" fill="#FF6F00"/>
<path d="M121.438 97.073C117.478 86.796 106.999 66.379 103.323 59.303L103.029 57.036L102.975 57.004L102.796 58.29C102.478 57.68 102.25 57.245 102.128 57.012L102.793 56.866C102.69 56.775 102.599 56.6719 102.521 56.559C98.1929 54.252 64.8649 37.572 25.8319 48.909C25.8319 48.909 1.03195 63.227 17.3429 72.443L16.6429 74.136C12.168 79.2588 8.28043 84.8664 5.05294 90.854C3.65998 93.5515 2.9056 96.533 2.84804 99.5683C2.79049 102.604 3.4313 105.612 4.721 108.36C6.0107 111.108 7.91478 113.523 10.2862 115.419C12.6576 117.314 15.433 118.64 18.3979 119.292L22.4359 120.18L31.9809 122.636C31.9809 122.636 25.1699 101.053 24.3809 97.366C23.5919 93.679 24.3809 92.351 24.3809 92.351L27.0629 92.323L28.3119 90.352C25.5279 86.552 28.2659 76.712 28.2659 76.712L27.6489 75.39C30.3204 75.6553 32.9979 74.9472 35.1889 73.396L38.6789 70.972L45.5709 69.455C47.3883 70.4317 49.3682 71.0698 51.4139 71.338C56.8052 72.1544 62.3175 71.354 67.2539 69.038L69.9729 67.784L65.7649 66.519L67.592 66.428C70.91 68.266 76.6729 69.159 86.6629 66.343L91.9499 85.986C91.9499 87.63 91.9159 89.259 91.8779 90.74C90.9782 96.1144 88.6323 101.143 85.092 105.285C68.765 124.634 89.9299 131.258 102.024 123.412L101.854 122.781C103.709 123.656 105.761 124.029 107.805 123.861C111.815 123.575 115.584 121.836 118.404 118.971C121.224 116.105 122.903 112.31 123.125 108.295C123.395 104.476 122.818 100.644 121.436 97.073M66.0769 66.341C65.9657 66.4225 65.8369 66.4769 65.7009 66.5L64.5939 66.167L64.3219 65.328L64.6769 65.249L65.8929 65.66C66.009 65.6856 66.114 65.7472 66.1929 65.836C66.2373 65.9192 66.25 66.0156 66.2289 66.1075C66.2078 66.1994 66.1542 66.2805 66.0779 66.336M88.626 67.575C90.1197 70.7943 91.1386 74.2132 91.6509 77.725C90.9913 74.2463 89.9774 70.8442 88.6249 67.572M64.76 65.226L65.6599 65.026C65.9701 65.3143 66.2992 65.5815 66.6449 65.826L64.76 65.226ZM85.0599 64.714L86.169 64.495L86.2919 64.951L85.0599 64.714ZM101.764 59.272L101.344 58.432C101.415 58.4289 101.486 58.4168 101.554 58.396L101.913 57.672L101.119 57.98L100.78 57.303L102.001 57.034L101.764 59.272Z" stroke="#FF6F00" stroke-width="0.5"/>
<path d="M22.082 76.314C21.8874 76.3132 21.6943 76.2793 21.511 76.214C14.269 73.669 10.389 70.141 9.97803 65.727C9.14303 56.758 23.239 48.346 24.849 47.417C25.2441 47.1888 25.7136 47.1268 26.1543 47.2448C26.595 47.3627 26.9708 47.6509 27.199 48.046C27.4272 48.441 27.4892 48.9105 27.3712 49.3513C27.2533 49.792 26.9651 50.1678 26.57 50.396C22.726 52.62 12.87 59.652 13.404 65.41C13.68 68.366 16.792 70.91 22.652 72.968C23.0349 73.103 23.3577 73.369 23.5633 73.719C23.769 74.069 23.8443 74.4805 23.776 74.8807C23.7077 75.2808 23.5001 75.6439 23.1899 75.9059C22.8798 76.1678 22.487 76.3116 22.081 76.312" fill="#FF6F00"/>
<path d="M22.082 76.314C21.8874 76.3132 21.6943 76.2793 21.511 76.214C14.269 73.669 10.389 70.141 9.97803 65.727C9.14303 56.758 23.239 48.346 24.849 47.417C25.2441 47.1888 25.7136 47.1268 26.1543 47.2448C26.595 47.3627 26.9708 47.6509 27.199 48.046C27.4272 48.441 27.4892 48.9105 27.3712 49.3513C27.2533 49.792 26.9651 50.1678 26.57 50.396C22.726 52.62 12.87 59.652 13.404 65.41C13.68 68.366 16.792 70.91 22.652 72.968C23.0349 73.103 23.3577 73.369 23.5633 73.719C23.769 74.069 23.8443 74.4805 23.776 74.8807C23.7077 75.2808 23.5001 75.6439 23.1899 75.9059C22.8798 76.1678 22.487 76.3116 22.081 76.312" stroke="#FF6F00" stroke-width="0.5"/>
<path d="M28.6141 77.1581C26.789 77.1594 24.9846 76.7718 23.3211 76.0211C20.2211 74.5741 19.3651 72.5551 19.1911 71.1131C18.6461 66.5891 24.0181 62.1371 24.6331 61.6441C24.8093 61.5023 25.0116 61.3966 25.2286 61.3331C25.4457 61.2695 25.6731 61.2493 25.8979 61.2737C26.1227 61.298 26.3405 61.3664 26.5389 61.4749C26.7373 61.5834 26.9123 61.7299 27.0541 61.9061C27.1958 62.0823 27.3015 62.2846 27.3651 62.5016C27.4286 62.7186 27.4488 62.946 27.4245 63.1708C27.4002 63.3956 27.3318 63.6135 27.2233 63.8119C27.1148 64.0102 26.9683 64.1853 26.7921 64.3271C25.0471 65.7341 22.3701 68.7091 22.6121 70.7041C22.6501 71.0161 22.7651 71.9631 24.7621 72.8941C26.2585 73.5647 27.9036 73.8344 29.5357 73.6766C31.1679 73.5188 32.7309 72.9389 34.0711 71.9941L43.4801 65.4581C43.6654 65.3223 43.8759 65.2249 44.0994 65.1717C44.3228 65.1186 44.5547 65.1107 44.7813 65.1485C45.0078 65.1864 45.2245 65.2692 45.4186 65.3921C45.6126 65.515 45.7801 65.6755 45.9111 65.8642C46.0422 66.0529 46.1341 66.2658 46.1816 66.4906C46.229 66.7153 46.231 66.9473 46.1874 67.1728C46.1437 67.3983 46.0554 67.6129 45.9276 67.8037C45.7998 67.9946 45.635 68.1579 45.4431 68.2841L36.0431 74.8111C33.8695 76.3434 31.2745 77.1644 28.6151 77.1611" fill="#FF6F00"/>
<path d="M28.6141 77.1581C26.789 77.1594 24.9846 76.7718 23.3211 76.0211C20.2211 74.5741 19.3651 72.5551 19.1911 71.1131C18.6461 66.5891 24.0181 62.1371 24.6331 61.6441C24.8093 61.5023 25.0116 61.3966 25.2286 61.3331C25.4457 61.2695 25.6731 61.2493 25.8979 61.2737C26.1227 61.298 26.3405 61.3664 26.5389 61.4749C26.7373 61.5834 26.9123 61.7299 27.0541 61.9061C27.1958 62.0823 27.3015 62.2846 27.3651 62.5016C27.4286 62.7186 27.4488 62.946 27.4245 63.1708C27.4002 63.3956 27.3318 63.6135 27.2233 63.8119C27.1148 64.0102 26.9683 64.1853 26.7921 64.3271C25.0471 65.7341 22.3701 68.7091 22.6121 70.7041C22.6501 71.0161 22.7651 71.9631 24.7621 72.8941C26.2585 73.5647 27.9036 73.8344 29.5357 73.6766C31.1679 73.5188 32.7309 72.9389 34.0711 71.9941L43.4801 65.4581C43.6654 65.3223 43.8759 65.2249 44.0994 65.1717C44.3228 65.1186 44.5547 65.1107 44.7813 65.1485C45.0078 65.1864 45.2245 65.2692 45.4186 65.3921C45.6126 65.515 45.7801 65.6755 45.9111 65.8642C46.0422 66.0529 46.1341 66.2658 46.1816 66.4906C46.229 66.7153 46.231 66.9473 46.1874 67.1728C46.1437 67.3983 46.0554 67.6129 45.9276 67.8037C45.7998 67.9946 45.635 68.1579 45.4431 68.2841L36.0431 74.8111C33.8695 76.3434 31.2745 77.1644 28.6151 77.1611" stroke="#FF6F00" stroke-width="0.5"/>
<path d="M55.4521 73.3711C53.9741 73.3707 52.4983 73.2591 51.0371 73.0371C45.9201 72.2281 42.4771 70.2681 40.7921 67.2091C40.1432 65.9007 39.778 64.4701 39.7203 63.0108C39.6625 61.5516 39.9136 60.0966 40.4571 58.7411C40.6366 58.3216 40.9755 57.9907 41.399 57.8211C41.8226 57.6514 42.2962 57.657 42.7156 57.8366C43.135 58.0161 43.466 58.3549 43.6356 58.7785C43.8052 59.202 43.7996 59.6756 43.6201 60.0951C43.2801 60.9742 43.1225 61.9132 43.1569 62.8551C43.1913 63.797 43.4169 64.7221 43.8201 65.5741C44.9731 67.6391 47.5781 69.0051 51.5641 69.6361C56.6152 70.4055 61.7811 69.6557 66.4051 67.4821L69.1341 66.2231C69.5484 66.032 70.0216 66.0133 70.4496 66.1711C70.8777 66.3289 71.2255 66.6503 71.4166 67.0646C71.6077 67.4788 71.6264 67.952 71.4686 68.3801C71.3107 68.8082 70.9894 69.156 70.5751 69.3471L67.8561 70.6011C63.9764 72.4237 59.7426 73.3691 55.4561 73.3701" fill="#FF6F00"/>
<path d="M55.4521 73.3711C53.9741 73.3707 52.4983 73.2591 51.0371 73.0371C45.9201 72.2281 42.4771 70.2681 40.7921 67.2091C40.1432 65.9007 39.778 64.4701 39.7203 63.0108C39.6625 61.5516 39.9136 60.0966 40.4571 58.7411C40.6366 58.3216 40.9755 57.9907 41.399 57.8211C41.8226 57.6514 42.2962 57.657 42.7156 57.8366C43.135 58.0161 43.466 58.3549 43.6356 58.7785C43.8052 59.202 43.7996 59.6756 43.6201 60.0951C43.2801 60.9742 43.1225 61.9132 43.1569 62.8551C43.1913 63.797 43.4169 64.7221 43.8201 65.5741C44.9731 67.6391 47.5781 69.0051 51.5641 69.6361C56.6152 70.4055 61.7811 69.6557 66.4051 67.4821L69.1341 66.2231C69.5484 66.032 70.0216 66.0133 70.4496 66.1711C70.8777 66.3289 71.2255 66.6503 71.4166 67.0646C71.6077 67.4788 71.6264 67.952 71.4686 68.3801C71.3107 68.8082 70.9894 69.156 70.5751 69.3471L67.8561 70.6011C63.9764 72.4237 59.7426 73.3691 55.4561 73.3701" stroke="#FF6F00" stroke-width="0.5"/>
<path d="M75.296 69.874C72.0052 70.0109 68.7458 69.1863 65.916 67.501C64.7091 66.7571 63.6738 65.7655 62.8786 64.5918C62.0833 63.418 61.5463 62.0888 61.303 60.692C61.2614 60.2432 61.3975 59.7959 61.6821 59.4464C61.9667 59.0968 62.3771 58.8729 62.8251 58.8227C63.2731 58.7725 63.7229 58.9001 64.0778 59.1781C64.4327 59.456 64.6644 59.8621 64.723 60.309C64.9131 61.2158 65.2916 62.0726 65.8339 62.8239C66.3762 63.5751 67.0702 64.2041 67.871 64.67C70.718 66.47 76.638 67.801 88.671 63.906C89.1052 63.7655 89.5774 63.8031 89.9838 64.0107C90.3902 64.2183 90.6975 64.5789 90.838 65.013C90.9786 65.4472 90.9409 65.9194 90.7333 66.3258C90.5257 66.7322 90.1652 67.0395 89.731 67.18C85.0848 68.8145 80.2149 69.7251 75.292 69.88" fill="#FF6F00"/>
<path d="M75.296 69.874C72.0052 70.0109 68.7458 69.1863 65.916 67.501C64.7091 66.7571 63.6738 65.7655 62.8786 64.5918C62.0833 63.418 61.5463 62.0888 61.303 60.692C61.2614 60.2432 61.3975 59.7959 61.6821 59.4464C61.9667 59.0968 62.3771 58.8729 62.8251 58.8227C63.2731 58.7725 63.7229 58.9001 64.0778 59.1781C64.4327 59.456 64.6644 59.8621 64.723 60.309C64.9131 61.2158 65.2916 62.0726 65.8339 62.8239C66.3762 63.5751 67.0702 64.2041 67.871 64.67C70.718 66.47 76.638 67.801 88.671 63.906C89.1052 63.7655 89.5774 63.8031 89.9838 64.0107C90.3902 64.2183 90.6975 64.5789 90.838 65.013C90.9786 65.4472 90.9409 65.9194 90.7333 66.3258C90.5257 66.7322 90.1652 67.0395 89.731 67.18C85.0848 68.8145 80.2149 69.7251 75.292 69.88" stroke="#FF6F00" stroke-width="0.5"/>
<path d="M90.8279 128.359C86.3119 128.359 82.1279 126.929 79.6479 124.112C77.2019 121.339 74.4719 115.061 83.6569 104.177C98.9569 86.044 83.6799 61.677 83.5239 61.435C83.2775 61.0505 83.194 60.5838 83.2917 60.1376C83.3894 59.6915 83.6604 59.3024 84.0449 59.056C84.4295 58.8096 84.8962 58.7261 85.3423 58.8238C85.7885 58.9215 86.1775 59.1924 86.4239 59.577C89.3432 64.4396 91.4859 69.7279 92.7749 75.251C95.5749 87.284 93.3309 98.051 86.2919 106.396C80.7189 112.996 79.2779 118.484 82.2339 121.837C85.7779 125.856 94.8849 125.92 100.973 121.97C101.162 121.842 101.376 121.753 101.6 121.708C101.824 121.663 102.055 121.663 102.28 121.709C102.504 121.754 102.717 121.844 102.906 121.973C103.095 122.102 103.257 122.267 103.381 122.459C103.506 122.651 103.591 122.865 103.631 123.091C103.672 123.316 103.667 123.547 103.617 123.77C103.567 123.994 103.473 124.205 103.341 124.391C103.209 124.578 103.04 124.736 102.846 124.857C99.2553 127.141 95.0884 128.355 90.8329 128.357" fill="#FF6F00"/>
<path d="M90.8279 128.359C86.3119 128.359 82.1279 126.929 79.6479 124.112C77.2019 121.339 74.4719 115.061 83.6569 104.177C98.9569 86.044 83.6799 61.677 83.5239 61.435C83.2775 61.0505 83.194 60.5838 83.2917 60.1376C83.3894 59.6915 83.6604 59.3024 84.0449 59.056C84.4295 58.8096 84.8962 58.7261 85.3423 58.8238C85.7885 58.9215 86.1775 59.1924 86.4239 59.577C89.3432 64.4396 91.4859 69.7279 92.7749 75.251C95.5749 87.284 93.3309 98.051 86.2919 106.396C80.7189 112.996 79.2779 118.484 82.2339 121.837C85.7779 125.856 94.8849 125.92 100.973 121.97C101.162 121.842 101.376 121.753 101.6 121.708C101.824 121.663 102.055 121.663 102.28 121.709C102.504 121.754 102.717 121.844 102.906 121.973C103.095 122.102 103.257 122.267 103.381 122.459C103.506 122.651 103.591 122.865 103.631 123.091C103.672 123.316 103.667 123.547 103.617 123.77C103.567 123.994 103.473 124.205 103.341 124.391C103.209 124.578 103.04 124.736 102.846 124.857C99.2553 127.141 95.0884 128.355 90.8329 128.357" stroke="#FF6F00" stroke-width="0.5"/>
<path d="M106.821 125.609C97.7731 125.609 94.5691 118.183 94.1461 114.121C94.0979 113.667 94.232 113.213 94.5189 112.858C94.8057 112.503 95.2218 112.277 95.6756 112.229C96.1294 112.18 96.5837 112.314 96.9386 112.601C97.2935 112.888 97.52 113.304 97.5681 113.758C97.6681 114.668 98.8091 122.63 107.59 122.147C111.181 121.881 114.552 120.317 117.074 117.747C119.595 115.176 121.094 111.775 121.29 108.18C121.537 104.613 120.999 101.035 119.713 97.698C114.964 85.374 100.527 57.898 100.382 57.62C100.185 57.2176 100.152 56.7542 100.291 56.3283C100.431 55.9023 100.73 55.5474 101.127 55.339C101.524 55.1306 101.986 55.0852 102.416 55.2124C102.846 55.3395 103.209 55.6293 103.428 56.02C104.028 57.154 118.105 83.953 122.928 96.46C124.395 100.268 125.01 104.352 124.728 108.423C124.472 112.854 122.612 117.04 119.494 120.199C116.376 123.357 112.214 125.272 107.787 125.585C107.46 125.603 107.14 125.612 106.827 125.613" fill="#FF6F00"/>
<path d="M106.821 125.609C97.7731 125.609 94.5691 118.183 94.1461 114.121C94.0979 113.667 94.232 113.213 94.5189 112.858C94.8057 112.503 95.2218 112.277 95.6756 112.229C96.1294 112.18 96.5837 112.314 96.9386 112.601C97.2935 112.888 97.52 113.304 97.5681 113.758C97.6681 114.668 98.8091 122.63 107.59 122.147C111.181 121.881 114.552 120.317 117.074 117.747C119.595 115.176 121.094 111.775 121.29 108.18C121.537 104.613 120.999 101.035 119.713 97.698C114.964 85.374 100.527 57.898 100.382 57.62C100.185 57.2176 100.152 56.7542 100.291 56.3283C100.431 55.9023 100.73 55.5474 101.127 55.339C101.524 55.1306 101.986 55.0852 102.416 55.2124C102.846 55.3395 103.209 55.6293 103.428 56.02C104.028 57.154 118.105 83.953 122.928 96.46C124.395 100.268 125.01 104.352 124.728 108.423C124.472 112.854 122.612 117.04 119.494 120.199C116.376 123.357 112.214 125.272 107.787 125.585C107.46 125.603 107.14 125.612 106.827 125.613" stroke="#FF6F00" stroke-width="0.5"/>
<path d="M25.713 122.649C25.5882 122.649 25.4638 122.635 25.342 122.608L17.903 120.973C14.6812 120.263 11.6655 118.823 9.08886 116.762C6.51219 114.702 4.44339 112.077 3.04216 109.09C1.64092 106.104 0.944724 102.835 1.00729 99.5362C1.06986 96.2377 1.88952 92.9976 3.40301 90.0661C7.0057 83.3911 11.4067 77.1788 16.509 71.5661C16.8229 71.2427 17.2512 71.0553 17.7018 71.0442C18.1524 71.0332 18.5893 71.1993 18.9187 71.507C19.2481 71.8146 19.4437 72.2392 19.4634 72.6895C19.4831 73.1398 19.3253 73.5799 19.024 73.9151C14.1489 79.3064 9.9317 85.2577 6.46101 91.6441C5.1894 94.1074 4.50083 96.83 4.44845 99.6017C4.39607 102.373 4.98129 105.12 6.15892 107.63C7.33655 110.139 9.0751 112.345 11.2404 114.076C13.4056 115.807 15.9397 117.017 18.647 117.613L26.086 119.248C26.4984 119.341 26.8622 119.582 27.1081 119.926C27.354 120.27 27.4647 120.692 27.4192 121.112C27.3738 121.533 27.1752 121.921 26.8615 122.205C26.5477 122.488 26.1407 122.646 25.718 122.648" fill="#FF6F00"/>
<path d="M25.713 122.649C25.5882 122.649 25.4638 122.635 25.342 122.608L17.903 120.973C14.6812 120.263 11.6655 118.823 9.08886 116.762C6.51219 114.702 4.44339 112.077 3.04216 109.09C1.64092 106.104 0.944724 102.835 1.00729 99.5362C1.06986 96.2377 1.88952 92.9976 3.40301 90.0661C7.0057 83.3911 11.4067 77.1788 16.509 71.5661C16.8229 71.2427 17.2512 71.0553 17.7018 71.0442C18.1524 71.0332 18.5893 71.1993 18.9187 71.507C19.2481 71.8146 19.4437 72.2392 19.4634 72.6895C19.4831 73.1398 19.3253 73.5799 19.024 73.9151C14.1489 79.3064 9.9317 85.2577 6.46101 91.6441C5.1894 94.1074 4.50083 96.83 4.44845 99.6017C4.39607 102.373 4.98129 105.12 6.15892 107.63C7.33655 110.139 9.0751 112.345 11.2404 114.076C13.4056 115.807 15.9397 117.017 18.647 117.613L26.086 119.248C26.4984 119.341 26.8622 119.582 27.1081 119.926C27.354 120.27 27.4647 120.692 27.4192 121.112C27.3738 121.533 27.1752 121.921 26.8615 122.205C26.5477 122.488 26.1407 122.646 25.718 122.648" stroke="#FF6F00" stroke-width="0.5"/>
<path d="M55.636 94.0699C55.1798 94.0699 54.7423 93.8887 54.4198 93.5662C54.0972 93.2436 53.916 92.8061 53.916 92.3499V81.6499C53.916 81.1936 54.0973 80.756 54.4199 80.4334C54.7426 80.1107 55.1802 79.9294 55.6365 79.9294C56.0928 79.9294 56.5304 80.1107 56.8531 80.4334C57.1757 80.756 57.357 81.1936 57.357 81.6499V89.8429L62.399 87.9059C62.6099 87.8249 62.8347 87.7862 63.0605 87.7921C63.2864 87.7979 63.5089 87.8482 63.7153 87.94C63.9218 88.0319 64.1081 88.1635 64.2636 88.3273C64.4192 88.4912 64.541 88.684 64.622 88.8949C64.703 89.1058 64.7417 89.3306 64.7359 89.5565C64.73 89.7824 64.6797 90.0048 64.5879 90.2113C64.4961 90.4177 64.3645 90.604 64.2006 90.7596C64.0368 90.9151 63.8439 91.0369 63.633 91.1179L56.253 93.9529C56.056 94.0282 55.8469 94.0669 55.636 94.0669" fill="#FF6F00"/>
<path d="M55.636 94.0699C55.1798 94.0699 54.7423 93.8887 54.4198 93.5662C54.0972 93.2436 53.916 92.8061 53.916 92.3499V81.6499C53.916 81.1936 54.0973 80.756 54.4199 80.4334C54.7426 80.1107 55.1802 79.9294 55.6365 79.9294C56.0928 79.9294 56.5304 80.1107 56.8531 80.4334C57.1757 80.756 57.357 81.1936 57.357 81.6499V89.8429L62.399 87.9059C62.6099 87.8249 62.8347 87.7862 63.0605 87.7921C63.2864 87.7979 63.5089 87.8482 63.7153 87.94C63.9218 88.0319 64.1081 88.1635 64.2636 88.3273C64.4192 88.4912 64.541 88.684 64.622 88.8949C64.703 89.1058 64.7417 89.3306 64.7359 89.5565C64.73 89.7824 64.6797 90.0048 64.5879 90.2113C64.4961 90.4177 64.3645 90.604 64.2006 90.7596C64.0368 90.9151 63.8439 91.0369 63.633 91.1179L56.253 93.9529C56.056 94.0282 55.8469 94.0669 55.636 94.0669" stroke="#FF6F00" stroke-width="0.1"/>
<path d="M45.6211 87.0931C45.3826 87.0931 45.1447 87.0717 44.9101 87.0291C44.402 86.9383 43.9171 86.7475 43.4833 86.4679C43.0495 86.1882 42.6755 85.8253 42.3831 85.4001L38.7521 80.1561C38.4923 79.7809 38.3922 79.3179 38.4738 78.869C38.5554 78.42 38.8119 78.0219 39.1871 77.7621C39.5622 77.5023 40.0252 77.4022 40.4742 77.4838C40.9231 77.5653 41.3213 77.8219 41.5811 78.1971L45.2121 83.4411C45.2483 83.4937 45.2948 83.5386 45.3488 83.573C45.4027 83.6073 45.463 83.6305 45.5261 83.6411C45.5889 83.6535 45.6537 83.6529 45.7163 83.6393C45.7789 83.6257 45.838 83.5994 45.8901 83.5621C45.993 83.4916 46.0646 83.3841 46.0901 83.2621L47.3681 77.3621C47.4159 77.1412 47.5067 76.932 47.6354 76.7463C47.764 76.5606 47.928 76.402 48.118 76.2797C48.3079 76.1573 48.5201 76.0736 48.7424 76.0333C48.9647 75.9929 49.1927 75.9968 49.4136 76.0446C49.6344 76.0924 49.8436 76.1832 50.0293 76.3119C50.2151 76.4405 50.3736 76.6045 50.496 76.7945C50.6183 76.9844 50.702 77.1966 50.7424 77.4189C50.7827 77.6412 50.7789 77.8692 50.7311 78.0901L49.4531 83.9901C49.2636 84.8661 48.7804 85.6511 48.0837 86.2149C47.3869 86.7788 46.5184 87.0875 45.6221 87.0901" fill="#FF6F00"/>
<path d="M45.6211 87.0931C45.3826 87.0931 45.1447 87.0717 44.9101 87.0291C44.402 86.9383 43.9171 86.7475 43.4833 86.4679C43.0495 86.1882 42.6755 85.8253 42.3831 85.4001L38.7521 80.1561C38.4923 79.7809 38.3922 79.3179 38.4738 78.869C38.5554 78.42 38.8119 78.0219 39.1871 77.7621C39.5622 77.5023 40.0252 77.4022 40.4742 77.4838C40.9231 77.5653 41.3213 77.8219 41.5811 78.1971L45.2121 83.4411C45.2483 83.4937 45.2948 83.5386 45.3488 83.573C45.4027 83.6073 45.463 83.6305 45.5261 83.6411C45.5889 83.6535 45.6537 83.6529 45.7163 83.6393C45.7789 83.6257 45.838 83.5994 45.8901 83.5621C45.993 83.4916 46.0646 83.3841 46.0901 83.2621L47.3681 77.3621C47.4159 77.1412 47.5067 76.932 47.6354 76.7463C47.764 76.5606 47.928 76.402 48.118 76.2797C48.3079 76.1573 48.5201 76.0736 48.7424 76.0333C48.9647 75.9929 49.1927 75.9968 49.4136 76.0446C49.6344 76.0924 49.8436 76.1832 50.0293 76.3119C50.2151 76.4405 50.3736 76.6045 50.496 76.7945C50.6183 76.9844 50.702 77.1966 50.7424 77.4189C50.7827 77.6412 50.7789 77.8692 50.7311 78.0901L49.4531 83.9901C49.2636 84.8661 48.7804 85.6511 48.0837 86.2149C47.3869 86.7788 46.5184 87.0875 45.6221 87.0901" stroke="#FF6F00" stroke-width="0.1"/>
<path d="M75.3069 83.2701C74.6711 83.2711 74.0445 83.1178 73.481 82.8233C72.9175 82.5287 72.434 82.1018 72.0719 81.5791L68.4409 76.3341C68.1937 75.9587 68.1032 75.5015 68.1887 75.0602C68.2742 74.619 68.5289 74.2287 68.8985 73.9728C69.268 73.7169 69.723 73.6157 70.1661 73.6909C70.6093 73.7661 71.0055 74.0117 71.2699 74.3751L74.9009 79.6201C74.9551 79.698 75.0309 79.7583 75.1188 79.7938C75.2068 79.8293 75.3032 79.8383 75.3963 79.8199C75.4893 79.8014 75.575 79.7562 75.6428 79.6898C75.7105 79.6235 75.7575 79.5388 75.7779 79.4461L77.0569 73.5461C77.1047 73.3253 77.1955 73.1161 77.3242 72.9304C77.4529 72.7447 77.6168 72.5861 77.8068 72.4638C77.9967 72.3414 78.2089 72.2577 78.4312 72.2173C78.6535 72.177 78.8816 72.1808 79.1024 72.2286C79.3232 72.2764 79.5325 72.3673 79.7182 72.4959C79.9039 72.6246 80.0624 72.7886 80.1848 72.9785C80.3071 73.1685 80.3908 73.3806 80.4312 73.6029C80.4715 73.8252 80.4677 74.0533 80.4199 74.2741L79.1419 80.1741C78.9531 81.0511 78.4698 81.837 77.7722 82.4011C77.0746 82.9651 76.205 83.2732 75.3079 83.2741" fill="#FF6F00"/>
<path d="M75.3069 83.2701C74.6711 83.2711 74.0445 83.1178 73.481 82.8233C72.9175 82.5287 72.434 82.1018 72.0719 81.5791L68.4409 76.3341C68.1937 75.9587 68.1032 75.5015 68.1887 75.0602C68.2742 74.619 68.5289 74.2287 68.8985 73.9728C69.268 73.7169 69.723 73.6157 70.1661 73.6909C70.6093 73.7661 71.0055 74.0117 71.2699 74.3751L74.9009 79.6201C74.9551 79.698 75.0309 79.7583 75.1188 79.7938C75.2068 79.8293 75.3032 79.8383 75.3963 79.8199C75.4893 79.8014 75.575 79.7562 75.6428 79.6898C75.7105 79.6235 75.7575 79.5388 75.7779 79.4461L77.0569 73.5461C77.1047 73.3253 77.1955 73.1161 77.3242 72.9304C77.4529 72.7447 77.6168 72.5861 77.8068 72.4638C77.9967 72.3414 78.2089 72.2577 78.4312 72.2173C78.6535 72.177 78.8816 72.1808 79.1024 72.2286C79.3232 72.2764 79.5325 72.3673 79.7182 72.4959C79.9039 72.6246 80.0624 72.7886 80.1848 72.9785C80.3071 73.1685 80.3908 73.3806 80.4312 73.6029C80.4715 73.8252 80.4677 74.0533 80.4199 74.2741L79.1419 80.1741C78.9531 81.0511 78.4698 81.837 77.7722 82.4011C77.0746 82.9651 76.205 83.2732 75.3079 83.2741" stroke="#FF6F00" stroke-width="0.1"/>
<path d="M70.0171 102.535C68.7669 102.603 67.5189 102.364 66.3827 101.838C65.2465 101.312 64.2567 100.515 63.5001 99.5171C63.262 99.1351 63.1829 98.675 63.28 98.2355C63.377 97.7959 63.6424 97.4119 64.0193 97.1657C64.3962 96.9195 64.8545 96.8308 65.296 96.9185C65.7375 97.0063 66.127 97.2635 66.3811 97.6351C66.5101 97.8141 68.7811 100.787 75.3711 97.6541C75.7815 97.4704 76.2475 97.4547 76.6694 97.6102C77.0913 97.7657 77.4356 98.0802 77.6286 98.4863C77.8215 98.8924 77.848 99.3579 77.7021 99.7832C77.5562 100.209 77.2497 100.56 76.8481 100.762C74.731 101.854 72.3969 102.459 70.0161 102.534" fill="#FF6F00"/>
<path d="M70.0171 102.535C68.7669 102.603 67.5189 102.364 66.3827 101.838C65.2465 101.312 64.2567 100.515 63.5001 99.5171C63.262 99.1351 63.1829 98.675 63.28 98.2355C63.377 97.7959 63.6424 97.4119 64.0193 97.1657C64.3962 96.9195 64.8545 96.8308 65.296 96.9185C65.7375 97.0063 66.127 97.2635 66.3811 97.6351C66.5101 97.8141 68.7811 100.787 75.3711 97.6541C75.7815 97.4704 76.2475 97.4547 76.6694 97.6102C77.0913 97.7657 77.4356 98.0802 77.6286 98.4863C77.8215 98.8924 77.848 99.3579 77.7021 99.7832C77.5562 100.209 77.2497 100.56 76.8481 100.762C74.731 101.854 72.3969 102.459 70.0161 102.534" stroke="#FF6F00" stroke-width="0.1"/>
<path d="M32.665 126.466C32.3022 126.466 31.9487 126.351 31.655 126.138C31.3614 125.924 31.1426 125.624 31.0301 125.279L29.045 119.207C27.028 113.953 20.7451 96.697 23.3071 92.18C23.5217 91.7835 23.823 91.4405 24.1884 91.1765C24.5539 90.9125 24.9742 90.7342 25.4181 90.655C28.4331 90.137 31.05 93.103 33.67 99.992C34.7779 102.966 35.7128 106.002 36.4701 109.084C36.5242 109.304 36.5342 109.533 36.4994 109.758C36.4646 109.982 36.3858 110.197 36.2674 110.391C36.1491 110.585 35.9935 110.753 35.8098 110.887C35.626 111.02 35.4176 111.116 35.1967 111.168C34.9758 111.22 34.7467 111.228 34.5227 111.192C34.2986 111.155 34.084 111.075 33.8912 110.955C33.6985 110.835 33.5313 110.678 33.3995 110.493C33.2676 110.308 33.1737 110.099 33.123 109.878C32.3948 106.933 31.5004 104.032 30.4441 101.188C28.2801 95.508 26.7441 94.342 26.2121 94.105C26.0121 94.849 25.738 97.661 28.441 106.726C30.174 112.537 32.251 117.959 32.273 118.014C32.284 118.041 32.2931 118.069 32.3021 118.097L34.3021 124.21C34.3861 124.468 34.4079 124.743 34.3656 125.011C34.3233 125.279 34.2182 125.534 34.0587 125.754C33.8993 125.974 33.6901 126.153 33.4482 126.276C33.2063 126.4 32.9387 126.465 32.6671 126.465" fill="#FF6F00"/>
<path d="M32.665 126.466C32.3022 126.466 31.9487 126.351 31.655 126.138C31.3614 125.924 31.1426 125.624 31.0301 125.279L29.045 119.207C27.028 113.953 20.7451 96.697 23.3071 92.18C23.5217 91.7835 23.823 91.4405 24.1884 91.1765C24.5539 90.9125 24.9742 90.7342 25.4181 90.655C28.4331 90.137 31.05 93.103 33.67 99.992C34.7779 102.966 35.7128 106.002 36.4701 109.084C36.5242 109.304 36.5342 109.533 36.4994 109.758C36.4646 109.982 36.3858 110.197 36.2674 110.391C36.1491 110.585 35.9935 110.753 35.8098 110.887C35.626 111.02 35.4176 111.116 35.1967 111.168C34.9758 111.22 34.7467 111.228 34.5227 111.192C34.2986 111.155 34.084 111.075 33.8912 110.955C33.6985 110.835 33.5313 110.678 33.3995 110.493C33.2676 110.308 33.1737 110.099 33.123 109.878C32.3948 106.933 31.5004 104.032 30.4441 101.188C28.2801 95.508 26.7441 94.342 26.2121 94.105C26.0121 94.849 25.738 97.661 28.441 106.726C30.174 112.537 32.251 117.959 32.273 118.014C32.284 118.041 32.2931 118.069 32.3021 118.097L34.3021 124.21C34.3861 124.468 34.4079 124.743 34.3656 125.011C34.3233 125.279 34.2182 125.534 34.0587 125.754C33.8993 125.974 33.6901 126.153 33.4482 126.276C33.2063 126.4 32.9387 126.465 32.6671 126.465" stroke="#FF6F00" stroke-width="0.5"/>
<path d="M39.514 108.155C39.1186 108.155 38.7354 108.018 38.4289 107.769C38.1224 107.519 37.9112 107.171 37.831 106.784C37.1939 103.84 36.4025 100.931 35.46 98.0701C32.843 90.2991 30.996 90.0331 30.978 90.0311C30.5 89.9851 30.214 90.0541 30.15 90.1381C29.78 90.6241 30.05 92.4591 30.524 93.7121C30.6878 94.1379 30.6757 94.6114 30.4904 95.0283C30.3051 95.4451 29.9618 95.7714 29.536 95.9351C29.1102 96.0989 28.6368 96.0868 28.2199 95.9015C27.803 95.7162 27.4768 95.3729 27.313 94.9471C27.024 94.1981 25.672 90.3471 27.413 88.0571C27.8723 87.4868 28.4771 87.051 29.1636 86.7958C29.85 86.5406 30.5926 86.4754 31.313 86.6071C34.082 86.8751 36.44 90.1781 38.734 97.0011C39.7188 99.9835 40.5434 103.017 41.204 106.087C41.2557 106.337 41.2509 106.596 41.1902 106.844C41.1294 107.093 41.0141 107.324 40.8527 107.522C40.6912 107.72 40.4877 107.88 40.2568 107.99C40.0259 108.099 39.7736 108.156 39.518 108.156" fill="#FF6F00"/>
<path d="M39.514 108.155C39.1186 108.155 38.7354 108.018 38.4289 107.769C38.1224 107.519 37.9112 107.171 37.831 106.784C37.1939 103.84 36.4025 100.931 35.46 98.0701C32.843 90.2991 30.996 90.0331 30.978 90.0311C30.5 89.9851 30.214 90.0541 30.15 90.1381C29.78 90.6241 30.05 92.4591 30.524 93.7121C30.6878 94.1379 30.6757 94.6114 30.4904 95.0283C30.3051 95.4451 29.9618 95.7714 29.536 95.9351C29.1102 96.0989 28.6368 96.0868 28.2199 95.9015C27.803 95.7162 27.4768 95.3729 27.313 94.9471C27.024 94.1981 25.672 90.3471 27.413 88.0571C27.8723 87.4868 28.4771 87.051 29.1636 86.7958C29.85 86.5406 30.5926 86.4754 31.313 86.6071C34.082 86.8751 36.44 90.1781 38.734 97.0011C39.7188 99.9835 40.5434 103.017 41.204 106.087C41.2557 106.337 41.2509 106.596 41.1902 106.844C41.1294 107.093 41.0141 107.324 40.8527 107.522C40.6912 107.72 40.4877 107.88 40.2568 107.99C40.0259 108.099 39.7736 108.156 39.518 108.156" stroke="#FF6F00" stroke-width="0.5"/>
<path d="M25.711 48.9092C25.711 48.9092 63.204 37.9821 101.904 56.8201C101.904 56.8201 130.684 26.5902 84.434 13.3922C71.0987 9.61574 57.0872 8.87189 43.427 11.2152C24.199 14.4782 1.62703 23.5712 25.71 48.9092" fill="#FF6F00"/>
<path d="M25.711 48.9092C25.711 48.9092 63.204 37.9821 101.904 56.8201C101.904 56.8201 130.684 26.5902 84.434 13.3922C71.0987 9.61574 57.0872 8.87189 43.427 11.2152C24.199 14.4782 1.62703 23.5712 25.71 48.9092" stroke="#FF6F00" stroke-width="0.5"/>
<path d="M76.1109 11.6011C75.7378 11.6016 75.3746 11.4809 75.0761 11.257C74.7776 11.0331 74.56 10.7182 74.4561 10.3598C74.3523 10.0014 74.3678 9.6189 74.5003 9.27009C74.6329 8.92129 74.8753 8.62504 75.1909 8.42605C77.1569 7.17905 79.0959 5.30305 79.2109 4.55305C78.9217 4.3365 78.5907 4.18225 78.2389 4.10005C77.8208 3.9489 77.3746 3.89152 76.9319 3.93195C76.4892 3.97239 76.0607 4.10966 75.6769 4.33404C73.6439 5.52604 72.4849 9.00904 72.2109 10.25C72.1136 10.6957 71.8432 11.0845 71.4592 11.3308C71.0752 11.5772 70.6091 11.6609 70.1634 11.5636C69.7177 11.4662 69.3289 11.1958 69.0826 10.8118C68.8363 10.4279 68.7526 9.96175 68.8499 9.51605C68.9809 8.91105 70.2419 3.54205 73.9269 1.37205C74.7204 0.909029 75.6029 0.619219 76.5163 0.521666C77.4298 0.424114 78.3536 0.521028 79.2269 0.806045C81.7729 1.57304 82.4789 2.98904 82.6269 4.04204C83.0649 7.25204 78.4529 10.4361 77.0269 11.3361C76.7527 11.5099 76.4346 11.6021 76.1099 11.602" fill="#FF6F00"/>
<path d="M76.1109 11.6011C75.7378 11.6016 75.3746 11.4809 75.0761 11.257C74.7776 11.0331 74.56 10.7182 74.4561 10.3598C74.3523 10.0014 74.3678 9.6189 74.5003 9.27009C74.6329 8.92129 74.8753 8.62504 75.1909 8.42605C77.1569 7.17905 79.0959 5.30305 79.2109 4.55305C78.9217 4.3365 78.5907 4.18225 78.2389 4.10005C77.8208 3.9489 77.3746 3.89152 76.9319 3.93195C76.4892 3.97239 76.0607 4.10966 75.6769 4.33404C73.6439 5.52604 72.4849 9.00904 72.2109 10.25C72.1136 10.6957 71.8432 11.0845 71.4592 11.3308C71.0752 11.5772 70.6091 11.6609 70.1634 11.5636C69.7177 11.4662 69.3289 11.1958 69.0826 10.8118C68.8363 10.4279 68.7526 9.96175 68.8499 9.51605C68.9809 8.91105 70.2419 3.54205 73.9269 1.37205C74.7204 0.909029 75.6029 0.619219 76.5163 0.521666C77.4298 0.424114 78.3536 0.521028 79.2269 0.806045C81.7729 1.57304 82.4789 2.98904 82.6269 4.04204C83.0649 7.25204 78.4529 10.4361 77.0269 11.3361C76.7527 11.5099 76.4346 11.6021 76.1099 11.602" stroke="#FF6F00" stroke-width="0.5"/>
<path d="M101.903 58.5401C101.642 58.5405 101.385 58.4813 101.15 58.3671C63.5321 40.0571 26.559 50.4542 26.19 50.5612C25.887 50.6492 25.5657 50.6522 25.2611 50.5699C24.9565 50.4875 24.6804 50.3229 24.4631 50.0942C15.4101 40.5692 11.9681 32.2942 14.2331 25.4872C16.8231 17.7072 26.5481 12.3342 43.1381 9.51915C57.0516 7.1522 71.3175 7.90984 84.9021 11.7372C100.302 16.1312 109.352 22.9262 111.802 31.9372C115.358 44.9902 103.646 57.4852 103.146 58.0112C102.985 58.1801 102.792 58.3145 102.577 58.4063C102.363 58.4981 102.132 58.5453 101.899 58.5452M52.427 44.0452C69.3561 43.9667 86.0958 47.6075 101.463 54.7101C103.931 51.7451 111.031 42.1661 108.478 32.8301C106.357 25.0711 98.1061 19.0901 83.9571 15.0531C70.8663 11.3663 57.1195 10.6367 43.712 12.9171C33.232 14.6951 20.1791 18.5091 17.4921 26.5801C15.7141 31.9221 18.6621 38.7852 26.2541 46.9872C33.7916 45.2045 41.498 44.2323 49.242 44.0872C50.262 44.0602 51.3251 44.0452 52.4251 44.0452" fill="#FF6F00"/>
<path d="M101.903 58.5401C101.642 58.5405 101.385 58.4813 101.15 58.3671C63.5321 40.0571 26.559 50.4542 26.19 50.5612C25.887 50.6492 25.5657 50.6522 25.2611 50.5699C24.9565 50.4875 24.6804 50.3229 24.4631 50.0942C15.4101 40.5692 11.9681 32.2942 14.2331 25.4872C16.8231 17.7072 26.5481 12.3342 43.1381 9.51915C57.0516 7.1522 71.3175 7.90984 84.9021 11.7372C100.302 16.1312 109.352 22.9262 111.802 31.9372C115.358 44.9902 103.646 57.4852 103.146 58.0112C102.985 58.1801 102.792 58.3145 102.577 58.4063C102.363 58.4981 102.132 58.5453 101.899 58.5452M52.427 44.0452C69.3561 43.9667 86.0958 47.6075 101.463 54.7101C103.931 51.7451 111.031 42.1661 108.478 32.8301C106.357 25.0711 98.1061 19.0901 83.9571 15.0531C70.8663 11.3663 57.1195 10.6367 43.712 12.9171C33.232 14.6951 20.1791 18.5091 17.4921 26.5801C15.7141 31.9221 18.6621 38.7852 26.2541 46.9872C33.7916 45.2045 41.498 44.2323 49.242 44.0872C50.262 44.0602 51.3251 44.0452 52.4251 44.0452" stroke="#FF6F00" stroke-width="0.5"/>
<mask id="mask0_968_1668" style="mask-type:luminance" maskUnits="userSpaceOnUse" x="11" y="85" width="91" height="50">
<path d="M101.123 85.1841H11.814V135H101.123V85.1841Z" fill="white"/>
</mask>
<g mask="url(#mask0_968_1668)">
<path d="M61.679 175.549C61.6165 175.549 61.5541 175.546 61.492 175.539L39.98 173.202C39.7275 173.175 39.4843 173.092 39.2676 172.96C39.051 172.827 38.8664 172.648 38.727 172.436C38.5876 172.224 38.4969 171.984 38.4615 171.732C38.426 171.481 38.4467 171.225 38.522 170.982L51.38 129.556L39.985 128.356C39.5312 128.308 39.115 128.082 38.828 127.727C38.541 127.373 38.4066 126.918 38.4545 126.465C38.5024 126.011 38.7285 125.595 39.0833 125.308C39.438 125.021 39.8922 124.886 40.346 124.934L53.825 126.356C54.0779 126.383 54.3217 126.465 54.539 126.598C54.7562 126.73 54.9415 126.908 55.0814 127.121C55.2213 127.333 55.3124 127.574 55.3481 127.826C55.3838 128.078 55.3633 128.334 55.288 128.577L42.428 170.009L60.437 171.965L74.437 124.749C74.4462 123.805 74.1182 122.888 73.512 122.163C71.683 119.543 65.73 114.637 46.412 111.213C46.1155 111.161 45.8379 111.032 45.607 110.839C45.376 110.646 45.1998 110.396 45.096 110.113L38.55 92.1691C38.028 90.8331 37.05 89.5591 36.65 89.5151C36.65 89.5151 36.131 89.6621 35.327 91.1681C35.2207 91.3675 35.0761 91.5439 34.9016 91.6874C34.7271 91.8309 34.5261 91.9386 34.31 92.0044C34.0938 92.0702 33.8669 92.0928 33.642 92.0708C33.4172 92.0489 33.1988 91.9829 32.9995 91.8766C32.8001 91.7703 32.6237 91.6258 32.4802 91.4513C32.3367 91.2768 32.229 91.0757 32.1632 90.8596C32.0974 90.6435 32.0748 90.4165 32.0967 90.1916C32.1187 89.9668 32.1847 89.7485 32.291 89.5491C33.574 87.1411 35.105 85.9741 36.86 86.0801C39.816 86.2601 41.472 90.1801 41.775 90.9601L47.989 108.003C67.248 111.547 74.179 116.782 76.589 120.58C77.1136 121.296 77.4885 122.11 77.6912 122.974C77.894 123.838 77.9204 124.734 77.769 125.608L63.327 174.32C63.2213 174.675 63.0037 174.987 62.7066 175.209C62.4095 175.431 62.0487 175.551 61.678 175.551" fill="#FF6F00"/>
<path d="M61.679 175.549C61.6165 175.549 61.5541 175.546 61.492 175.539L39.98 173.202C39.7275 173.175 39.4843 173.092 39.2676 172.96C39.051 172.827 38.8664 172.648 38.727 172.436C38.5876 172.224 38.4969 171.984 38.4615 171.732C38.426 171.481 38.4467 171.225 38.522 170.982L51.38 129.556L39.985 128.356C39.5312 128.308 39.115 128.082 38.828 127.727C38.541 127.373 38.4066 126.918 38.4545 126.465C38.5024 126.011 38.7285 125.595 39.0833 125.308C39.438 125.021 39.8922 124.886 40.346 124.934L53.825 126.356C54.0779 126.383 54.3217 126.465 54.539 126.598C54.7562 126.73 54.9415 126.908 55.0814 127.121C55.2213 127.333 55.3124 127.574 55.3481 127.826C55.3838 128.078 55.3633 128.334 55.288 128.577L42.428 170.009L60.437 171.965L74.437 124.749C74.4462 123.805 74.1182 122.888 73.512 122.163C71.683 119.543 65.73 114.637 46.412 111.213C46.1155 111.161 45.8379 111.032 45.607 110.839C45.376 110.646 45.1998 110.396 45.096 110.113L38.55 92.1691C38.028 90.8331 37.05 89.5591 36.65 89.5151C36.65 89.5151 36.131 89.6621 35.327 91.1681C35.2207 91.3675 35.0761 91.5439 34.9016 91.6874C34.7271 91.8309 34.5261 91.9386 34.31 92.0044C34.0938 92.0702 33.8669 92.0928 33.642 92.0708C33.4172 92.0489 33.1988 91.9829 32.9995 91.8766C32.8001 91.7703 32.6237 91.6258 32.4802 91.4513C32.3367 91.2768 32.229 91.0757 32.1632 90.8596C32.0974 90.6435 32.0748 90.4165 32.0967 90.1916C32.1187 89.9668 32.1847 89.7485 32.291 89.5491C33.574 87.1411 35.105 85.9741 36.86 86.0801C39.816 86.2601 41.472 90.1801 41.775 90.9601L47.989 108.003C67.248 111.547 74.179 116.782 76.589 120.58C77.1136 121.296 77.4885 122.11 77.6912 122.974C77.894 123.838 77.9204 124.734 77.769 125.608L63.327 174.32C63.2213 174.675 63.0037 174.987 62.7066 175.209C62.4095 175.431 62.0487 175.551 61.678 175.551" stroke="#FF6F00" stroke-width="0.5"/>
</g>
</svg>
