<svg width="127" height="137" viewBox="0 0 127 137" fill="none" xmlns="http://www.w3.org/2000/svg">
<path d="M22.4171 77.5449C22.2196 77.5446 22.0235 77.5108 21.8372 77.4449C14.4802 74.8589 10.5372 71.2749 10.1212 66.7909C9.27315 57.6789 23.5921 49.1349 25.2281 48.1909C25.6284 47.9746 26.0973 47.9229 26.5352 48.0468C26.973 48.1706 27.3452 48.4604 27.5728 48.8544C27.8004 49.2484 27.8654 49.7156 27.754 50.1567C27.6426 50.5979 27.3635 50.9782 26.9762 51.2169C23.0712 53.4769 13.0541 60.6169 13.6011 66.4689C13.8821 69.4689 17.0422 72.0549 22.9962 74.1469C23.3876 74.2823 23.7182 74.5522 23.9291 74.9086C24.1401 75.2649 24.2177 75.6846 24.148 76.0929C24.0784 76.5011 23.8661 76.8714 23.5489 77.1377C23.2317 77.404 22.8303 77.549 22.4162 77.5469" fill="#FF6F00"/>
<path d="M22.4171 77.5449C22.2195 77.5446 22.0235 77.5108 21.8372 77.4449C14.4802 74.8589 10.5372 71.2749 10.1212 66.7909C9.27315 57.6789 23.5921 49.1349 25.2281 48.1909C25.6284 47.9746 26.0973 47.9229 26.5352 48.0468C26.973 48.1706 27.3452 48.4604 27.5728 48.8544C27.8004 49.2484 27.8654 49.7156 27.754 50.1567C27.6426 50.5979 27.3635 50.9782 26.9762 51.2169C23.0712 53.4769 13.0541 60.6169 13.6011 66.4689C13.8821 69.4689 17.0422 72.0549 22.9962 74.1469C23.3876 74.2823 23.7182 74.5522 23.9291 74.9086C24.1401 75.2649 24.2177 75.6846 24.148 76.0929C24.0784 76.5011 23.8661 76.8714 23.5489 77.1377C23.2317 77.404 22.8303 77.549 22.4162 77.5469" stroke="#FF6F00" stroke-width="0.5"/>
<path d="M29.0532 78.4019C27.2006 78.4029 25.369 78.0096 23.6802 77.2479C20.5292 75.7779 19.6612 73.7269 19.4802 72.2619C18.9272 67.6619 24.3802 63.1429 25.0082 62.6429C25.3697 62.3526 25.8317 62.2178 26.2926 62.2682C26.7535 62.3185 27.1755 62.5499 27.4657 62.9114C27.756 63.2729 27.8908 63.7349 27.8405 64.1957C27.7901 64.6566 27.5587 65.0786 27.1972 65.3689C25.4242 66.7979 22.7042 69.8199 22.9512 71.8469C22.9892 72.1639 23.1072 73.1259 25.1352 74.0719C26.6557 74.7525 28.3272 75.0258 29.9853 74.8649C31.6434 74.7039 33.231 74.1143 34.5922 73.1539L44.1502 66.5139C44.3386 66.3784 44.552 66.2818 44.778 66.2296C45.0041 66.1775 45.2382 66.1708 45.4669 66.2101C45.6955 66.2494 45.914 66.3338 46.1097 66.4583C46.3054 66.5829 46.4743 66.7452 46.6067 66.9357C46.739 67.1263 46.8321 67.3413 46.8805 67.5681C46.9289 67.795 46.9317 68.0292 46.8886 68.2572C46.8456 68.4852 46.7576 68.7023 46.6298 68.8959C46.502 69.0895 46.3369 69.2557 46.1442 69.3849L36.5993 76.0159C34.3911 77.5724 31.7548 78.4053 29.0532 78.4019Z" fill="#FF6F00" stroke="#FF6F00" stroke-width="0.5"/>
<path d="M56.3161 74.5509C54.8147 74.5504 53.3155 74.4367 51.8311 74.2109C46.6311 73.3889 43.1311 71.3979 41.4241 68.2909C40.7652 66.9622 40.3942 65.5093 40.3354 64.0274C40.2767 62.5454 40.5314 61.0677 41.0831 59.6909C41.2718 59.2744 41.6163 58.9484 42.0426 58.7828C42.4689 58.6173 42.9431 58.6254 43.3635 58.8055C43.7839 58.9855 44.1169 59.3231 44.2913 59.7459C44.4656 60.1686 44.4674 60.6429 44.2961 61.0669C43.9502 61.9598 43.7896 62.9136 43.8239 63.8705C43.8583 64.8274 44.087 65.7672 44.4961 66.6329C45.6671 68.7329 48.3131 70.1189 52.3631 70.7599C57.4943 71.5412 62.742 70.7793 67.4391 68.5709L70.2111 67.2919C70.4195 67.1958 70.6447 67.1417 70.874 67.1326C71.1032 67.1235 71.332 67.1597 71.5473 67.239C71.7626 67.3184 71.9602 67.4393 72.1287 67.595C72.2973 67.7507 72.4335 67.9381 72.5296 68.1464C72.6257 68.3548 72.6799 68.58 72.689 68.8093C72.6981 69.0386 72.6619 69.2674 72.5826 69.4827C72.5032 69.698 72.3822 69.8955 72.2265 70.064C72.0708 70.2326 71.8835 70.3688 71.6751 70.4649L68.9131 71.7389C64.9708 73.591 60.6688 74.5515 56.3131 74.5519" fill="#FF6F00"/>
<path d="M56.3161 74.5509C54.8147 74.5504 53.3155 74.4367 51.8311 74.2109C46.6311 73.3889 43.1311 71.3979 41.4241 68.2909C40.7652 66.9622 40.3942 65.5093 40.3354 64.0274C40.2767 62.5454 40.5314 61.0677 41.0831 59.6909C41.2718 59.2744 41.6163 58.9484 42.0426 58.7828C42.4689 58.6173 42.9431 58.6254 43.3635 58.8055C43.7839 58.9855 44.1169 59.3231 44.2913 59.7459C44.4656 60.1686 44.4674 60.6429 44.2961 61.0669C43.9502 61.9598 43.7896 62.9136 43.8239 63.8705C43.8583 64.8274 44.087 65.7672 44.4961 66.6329C45.6671 68.7329 48.3131 70.1189 52.3631 70.7599C57.4943 71.5412 62.742 70.7793 67.4391 68.5709L70.2111 67.2919C70.4195 67.1958 70.6447 67.1417 70.874 67.1326C71.1032 67.1235 71.332 67.1597 71.5473 67.239C71.7626 67.3184 71.9602 67.4393 72.1287 67.595C72.2973 67.7507 72.4335 67.9381 72.5296 68.1464C72.6257 68.3548 72.6799 68.58 72.689 68.8093C72.698 69.0386 72.6619 69.2674 72.5826 69.4827C72.5032 69.698 72.3822 69.8955 72.2265 70.064C72.0708 70.2326 71.8835 70.3688 71.6751 70.4649L68.9131 71.7389C64.9708 73.591 60.6688 74.5515 56.3131 74.5519" stroke="#FF6F00" stroke-width="0.5"/>
<path d="M76.4745 71.0038C73.1315 71.1431 69.8203 70.3057 66.9455 68.5938C65.7189 67.8379 64.6668 66.8301 63.8588 65.6372C63.0509 64.4443 62.5054 63.0933 62.2585 61.6738C62.2132 61.2164 62.35 60.7595 62.6392 60.4021C62.9283 60.0447 63.3466 59.8157 63.8035 59.7645C64.2603 59.7134 64.719 59.8442 65.08 60.1288C65.4411 60.4134 65.6755 60.8287 65.7325 61.2848C65.9259 62.2062 66.3107 63.0766 66.8619 63.8398C67.4132 64.6029 68.1186 65.2417 68.9325 65.7148C71.8245 67.5448 77.8385 68.8958 90.0675 64.9378C90.2868 64.8638 90.5185 64.8341 90.7494 64.8503C90.9802 64.8666 91.2056 64.9285 91.4123 65.0325C91.619 65.1366 91.803 65.2806 91.9536 65.4563C92.1043 65.632 92.2185 65.8358 92.2897 66.056C92.361 66.2762 92.3878 66.5083 92.3686 66.7389C92.3494 66.9695 92.2846 67.194 92.178 67.3994C92.0714 67.6048 91.925 67.787 91.7474 67.9354C91.5698 68.0838 91.3646 68.1954 91.1435 68.2638C86.4234 69.9232 81.4763 70.8474 76.4755 71.0038" fill="#FF6F00"/>
<path d="M76.4745 71.0038C73.1315 71.1431 69.8203 70.3057 66.9455 68.5938C65.7189 67.8379 64.6668 66.8301 63.8588 65.6372C63.0509 64.4443 62.5054 63.0933 62.2585 61.6738C62.2132 61.2164 62.35 60.7595 62.6392 60.4021C62.9283 60.0447 63.3466 59.8157 63.8035 59.7645C64.2603 59.7134 64.719 59.8442 65.08 60.1288C65.4411 60.4134 65.6755 60.8287 65.7325 61.2848C65.9259 62.2062 66.3107 63.0766 66.8619 63.8398C67.4132 64.6029 68.1186 65.2417 68.9325 65.7148C71.8245 67.5448 77.8385 68.8958 90.0675 64.9378C90.2868 64.8638 90.5185 64.8341 90.7494 64.8503C90.9802 64.8666 91.2056 64.9285 91.4123 65.0325C91.619 65.1366 91.803 65.2806 91.9536 65.4563C92.1043 65.632 92.2185 65.8358 92.2897 66.056C92.361 66.2762 92.3878 66.5083 92.3686 66.7389C92.3494 66.9695 92.2846 67.194 92.178 67.3994C92.0714 67.6048 91.925 67.787 91.7474 67.9354C91.5698 68.0838 91.3646 68.1954 91.1435 68.2638C86.4234 69.9232 81.4763 70.8474 76.4755 71.0038" stroke="#FF6F00" stroke-width="0.5"/>
<path d="M92.2545 130.416C87.6665 130.416 83.4205 128.963 80.8975 126.102C78.4135 123.285 75.6395 116.908 84.9705 105.85C100.515 87.4289 84.9935 62.6769 84.8355 62.4289C84.6023 62.0389 84.5301 61.5735 84.6342 61.1312C84.7383 60.6889 85.0106 60.3045 85.3933 60.0595C85.7759 59.8145 86.239 59.7282 86.6843 59.8188C87.1295 59.9094 87.522 60.1698 87.7785 60.5449C90.7438 65.4848 92.9203 70.8571 94.2295 76.4679C97.0725 88.6919 94.7945 99.6329 87.6435 108.107C81.9815 114.817 80.5175 120.387 83.5215 123.793C87.1215 127.876 96.3725 127.941 102.558 123.928C102.75 123.795 102.967 123.703 103.196 123.656C103.425 123.609 103.661 123.608 103.89 123.654C104.119 123.699 104.337 123.79 104.53 123.922C104.723 124.053 104.889 124.221 105.016 124.418C105.143 124.614 105.229 124.833 105.27 125.063C105.31 125.293 105.305 125.529 105.253 125.757C105.201 125.985 105.103 126.2 104.967 126.39C104.83 126.579 104.657 126.739 104.458 126.861C100.811 129.182 96.5797 130.416 92.2575 130.42" fill="#FF6F00"/>
<path d="M92.2545 130.416C87.6665 130.416 83.4205 128.963 80.8975 126.102C78.4135 123.285 75.6395 116.908 84.9705 105.85C100.515 87.4289 84.9935 62.6769 84.8355 62.4289C84.6023 62.0389 84.5301 61.5735 84.6342 61.1312C84.7383 60.6889 85.0106 60.3045 85.3933 60.0595C85.7759 59.8145 86.239 59.7282 86.6843 59.8188C87.1295 59.9094 87.522 60.1698 87.7785 60.5449C90.7438 65.4848 92.9203 70.8571 94.2295 76.4679C97.0725 88.6919 94.7945 99.6329 87.6435 108.107C81.9815 114.817 80.5175 120.387 83.5215 123.793C87.1215 127.876 96.3725 127.941 102.558 123.928C102.75 123.795 102.967 123.703 103.196 123.656C103.425 123.609 103.661 123.608 103.89 123.654C104.119 123.699 104.337 123.79 104.53 123.922C104.723 124.053 104.889 124.221 105.016 124.418C105.143 124.614 105.229 124.833 105.27 125.063C105.31 125.293 105.305 125.529 105.253 125.757C105.201 125.985 105.103 126.2 104.967 126.39C104.83 126.579 104.657 126.739 104.458 126.861C100.811 129.182 96.5797 130.416 92.2575 130.42" stroke="#FF6F00" stroke-width="0.5"/>
<path d="M108.5 127.62C99.3082 127.62 96.0542 120.076 95.6232 115.95C95.5823 115.493 95.7225 115.038 96.0137 114.684C96.3048 114.33 96.7236 114.104 97.1797 114.056C97.6358 114.007 98.0926 114.14 98.4517 114.425C98.8108 114.711 99.0433 115.126 99.0992 115.581C99.1992 116.505 100.359 124.594 109.28 124.103C112.928 123.833 116.353 122.244 118.915 119.633C121.476 117.021 122.999 113.566 123.198 109.914C123.45 106.29 122.903 102.655 121.598 99.2648C116.774 86.7458 102.108 58.8319 101.96 58.5509C101.744 58.1406 101.7 57.6613 101.838 57.2186C101.975 56.7758 102.283 56.4057 102.693 56.1898C103.103 55.974 103.583 55.9299 104.026 56.0674C104.468 56.2048 104.838 56.5126 105.054 56.9229C105.66 58.0759 119.963 85.2989 124.854 98.0049C126.345 101.874 126.969 106.022 126.682 110.158C126.423 114.659 124.532 118.912 121.365 122.12C118.197 125.329 113.97 127.274 109.472 127.592C109.139 127.611 108.814 127.62 108.497 127.62" fill="#FF6F00"/>
<path d="M108.5 127.62C99.3082 127.62 96.0542 120.076 95.6232 115.95C95.5823 115.493 95.7225 115.038 96.0137 114.684C96.3048 114.33 96.7236 114.104 97.1797 114.056C97.6358 114.007 98.0926 114.14 98.4517 114.425C98.8108 114.711 99.0433 115.126 99.0992 115.581C99.1992 116.505 100.359 124.594 109.28 124.103C112.928 123.833 116.353 122.244 118.915 119.633C121.476 117.021 122.999 113.566 123.198 109.914C123.45 106.29 122.903 102.655 121.598 99.2648C116.774 86.7458 102.108 58.8319 101.96 58.5509C101.744 58.1406 101.7 57.6613 101.838 57.2186C101.975 56.7758 102.283 56.4057 102.693 56.1898C103.103 55.974 103.583 55.9299 104.026 56.0674C104.468 56.2048 104.838 56.5126 105.054 56.9229C105.66 58.0759 119.963 85.2989 124.854 98.0049C126.345 101.874 126.969 106.022 126.682 110.158C126.423 114.659 124.532 118.912 121.365 122.12C118.197 125.329 113.97 127.274 109.472 127.592C109.139 127.611 108.814 127.62 108.497 127.62" stroke="#FF6F00" stroke-width="0.5"/>
<path d="M26.1043 124.616C25.9775 124.616 25.8511 124.602 25.7273 124.575L18.1693 122.913C14.8956 122.193 11.8312 120.729 9.21286 118.636C6.59449 116.543 4.49213 113.877 3.06812 110.842C1.6441 107.808 0.936527 104.486 1.00002 101.135C1.06351 97.7835 1.89637 94.4914 3.4343 91.513C7.09412 84.7318 11.5649 78.4209 16.7483 72.719C17.0659 72.385 17.5025 72.19 17.9632 72.1763C18.4238 72.1626 18.8713 72.3314 19.2081 72.646C19.5449 72.9605 19.7439 73.3954 19.7617 73.8559C19.7796 74.3164 19.6148 74.7653 19.3033 75.105C14.3506 80.5816 10.0663 86.6273 6.5403 93.115C5.24852 95.6175 4.54904 98.3834 4.49587 101.199C4.44269 104.015 5.03724 106.805 6.23362 109.355C7.42999 111.904 9.19619 114.145 11.3959 115.903C13.5956 117.662 16.17 118.891 18.9203 119.497L26.4773 121.158C26.8978 121.251 27.2693 121.495 27.5206 121.845C27.7718 122.195 27.8851 122.625 27.8388 123.053C27.7924 123.481 27.5897 123.877 27.2694 124.165C26.9492 124.453 26.5339 124.612 26.1033 124.613" fill="#FF6F00"/>
<path d="M26.1043 124.616C25.9775 124.616 25.8511 124.602 25.7273 124.575L18.1693 122.913C14.8956 122.193 11.8312 120.729 9.21286 118.636C6.59449 116.543 4.49213 113.877 3.06812 110.842C1.6441 107.808 0.936527 104.486 1.00002 101.135C1.06351 97.7835 1.89637 94.4914 3.4343 91.513C7.09412 84.7318 11.5649 78.4209 16.7483 72.719C17.0659 72.385 17.5025 72.19 17.9632 72.1763C18.4238 72.1626 18.8713 72.3314 19.2081 72.646C19.5449 72.9605 19.7439 73.3954 19.7617 73.8559C19.7796 74.3164 19.6148 74.7653 19.3033 75.105C14.3506 80.5816 10.0663 86.6273 6.5403 93.115C5.24852 95.6175 4.54904 98.3834 4.49587 101.199C4.44269 104.015 5.03724 106.805 6.23362 109.355C7.42999 111.904 9.19619 114.145 11.3959 115.903C13.5956 117.662 16.17 118.891 18.9203 119.497L26.4773 121.158C26.8978 121.251 27.2693 121.495 27.5206 121.845C27.7718 122.195 27.8851 122.625 27.8388 123.053C27.7924 123.481 27.5897 123.877 27.2694 124.165C26.9492 124.453 26.5339 124.612 26.1033 124.613" stroke="#FF6F00" stroke-width="0.5"/>
<path d="M56.5014 95.584C56.2718 95.5841 56.0445 95.539 55.8323 95.4512C55.6202 95.3634 55.4274 95.2346 55.2651 95.0723C55.1028 94.9099 54.974 94.7172 54.8862 94.5051C54.7984 94.2929 54.7533 94.0656 54.7534 93.836V82.97C54.7534 82.5058 54.9378 82.0607 55.266 81.7325C55.5942 81.4043 56.0393 81.22 56.5034 81.22C56.9675 81.22 57.4127 81.4043 57.7408 81.7325C58.069 82.0607 58.2534 82.5058 58.2534 82.97V91.293L63.3754 89.325C63.8058 89.1695 64.2799 89.1889 64.6961 89.3791C65.1122 89.5693 65.4373 89.9152 65.6013 90.3423C65.7653 90.7695 65.7553 91.2439 65.5734 91.6638C65.3915 92.0837 65.0522 92.4155 64.6284 92.588L57.1284 95.468C56.9286 95.5445 56.7154 95.5838 56.5014 95.584Z" fill="#FF6F00" stroke="#FF6F00" stroke-width="0.1"/>
<path d="M46.3304 88.5C46.0879 88.5002 45.8459 88.4785 45.6074 88.4351C45.0913 88.3427 44.5987 88.1488 44.1581 87.8647C43.7175 87.5806 43.3376 87.212 43.0404 86.78L39.3514 81.4521C39.0946 81.0708 38.9983 80.6037 39.0835 80.1519C39.1686 79.7002 39.4282 79.3002 39.8062 79.0385C40.1841 78.7768 40.6499 78.6745 41.1027 78.7538C41.5555 78.8331 41.9588 79.0875 42.2254 79.4621L45.9144 84.7891C45.9511 84.8429 45.9982 84.8888 46.053 84.924C46.1078 84.9593 46.1692 84.9831 46.2334 84.9941C46.2973 85.0067 46.363 85.0062 46.4267 84.9924C46.4903 84.9787 46.5505 84.952 46.6034 84.9141C46.7057 84.843 46.7772 84.7358 46.8034 84.6141L48.1034 78.6211C48.1479 78.3927 48.2375 78.1755 48.367 77.9823C48.4965 77.789 48.6632 77.6236 48.8575 77.4956C49.0517 77.3676 49.2696 77.2797 49.4983 77.237C49.727 77.1943 49.9619 77.1977 50.1892 77.2469C50.4166 77.2962 50.6318 77.3903 50.8223 77.5238C51.0128 77.6573 51.1748 77.8275 51.2987 78.0244C51.4225 78.2213 51.5059 78.441 51.5438 78.6705C51.5817 78.9 51.5734 79.1348 51.5194 79.3611L50.2194 85.3531C50.0266 86.2422 49.536 87.0388 48.8288 87.6111C48.1216 88.1834 47.2401 88.497 46.3304 88.5Z" fill="#FF6F00" stroke="#FF6F00" stroke-width="0.1"/>
<path d="M76.4851 84.6119C75.8391 84.613 75.2024 84.4573 74.6298 84.158C74.0573 83.8587 73.566 83.4249 73.1981 82.8939L69.5091 77.5649C69.2523 77.1836 69.1561 76.7165 69.2412 76.2648C69.3263 75.813 69.5859 75.413 69.9639 75.1513C70.3418 74.8896 70.8076 74.7873 71.2604 74.8666C71.7132 74.9459 72.1166 75.2003 72.3831 75.5749L76.0721 80.9029C76.1282 80.9803 76.2054 81.0399 76.2944 81.0748C76.3834 81.1097 76.4805 81.1184 76.5743 81.0998C76.6681 81.0811 76.7545 81.036 76.8234 80.9697C76.8924 80.9035 76.9408 80.8188 76.9631 80.7259L78.2631 74.7329C78.3076 74.5045 78.3972 74.2874 78.5267 74.0941C78.6562 73.9008 78.8229 73.7354 79.0172 73.6074C79.2115 73.4794 79.4293 73.3915 79.658 73.3488C79.8867 73.3061 80.1216 73.3095 80.3489 73.3587C80.5763 73.408 80.7915 73.5021 80.982 73.6356C81.1726 73.7691 81.3345 73.9393 81.4584 74.1362C81.5823 74.3331 81.6656 74.5528 81.7035 74.7823C81.7414 75.0118 81.7331 75.2466 81.6791 75.4729L80.3791 81.4649C80.1866 82.355 79.6952 83.1525 78.9866 83.7247C78.278 84.2968 77.3949 84.6092 76.4841 84.6099" fill="#FF6F00"/>
<path d="M76.4851 84.6119C75.8391 84.613 75.2024 84.4573 74.6298 84.158C74.0573 83.8587 73.566 83.4249 73.1981 82.8939L69.5091 77.5649C69.2523 77.1836 69.1561 76.7165 69.2412 76.2648C69.3263 75.813 69.5859 75.413 69.9639 75.1513C70.3418 74.8896 70.8076 74.7873 71.2604 74.8666C71.7132 74.9459 72.1166 75.2003 72.3831 75.5749L76.0721 80.9029C76.1282 80.9803 76.2054 81.0399 76.2944 81.0748C76.3834 81.1097 76.4805 81.1184 76.5743 81.0998C76.6681 81.0811 76.7545 81.036 76.8234 80.9697C76.8924 80.9035 76.9408 80.8188 76.9631 80.7259L78.2631 74.7329C78.3076 74.5045 78.3972 74.2874 78.5267 74.0941C78.6562 73.9008 78.8229 73.7354 79.0172 73.6074C79.2115 73.4794 79.4293 73.3915 79.658 73.3488C79.8867 73.3061 80.1216 73.3095 80.3489 73.3587C80.5763 73.408 80.7915 73.5021 80.982 73.6356C81.1726 73.7691 81.3345 73.9393 81.4584 74.1362C81.5823 74.3331 81.6656 74.5528 81.7035 74.7823C81.7414 75.0118 81.7331 75.2466 81.6791 75.4729L80.3791 81.4649C80.1866 82.355 79.6952 83.1525 78.9866 83.7247C78.278 84.2968 77.3949 84.6092 76.4841 84.6099" stroke="#FF6F00" stroke-width="0.1"/>
<path d="M71.1121 104.183C69.842 104.252 68.5744 104.009 67.4202 103.474C66.266 102.94 65.2606 102.13 64.4921 101.117C64.2386 100.729 64.1496 100.256 64.2448 99.802C64.3399 99.3483 64.6115 98.951 64.9996 98.6974C65.3878 98.4439 65.8607 98.3549 66.3145 98.4501C66.7682 98.5453 67.1656 98.8168 67.4191 99.2049C67.5501 99.3869 69.8611 102.405 76.5521 99.2249C76.9709 99.026 77.4515 99.0016 77.8883 99.157C78.3251 99.3125 78.6822 99.6351 78.8811 100.054C79.08 100.473 79.1044 100.953 78.9489 101.39C78.7935 101.827 78.4709 102.184 78.0521 102.383C75.9015 103.492 73.5305 104.107 71.1121 104.183Z" fill="#FF6F00" stroke="#FF6F00" stroke-width="0.1"/>
<path d="M33.1673 128.494C32.7988 128.494 32.4397 128.377 32.1414 128.161C31.8431 127.944 31.6208 127.639 31.5063 127.289L29.4903 121.12C27.4413 115.782 21.0553 98.2528 23.6613 93.6638C23.8793 93.2609 24.1854 92.9124 24.5568 92.6442C24.9282 92.376 25.3553 92.1951 25.8063 92.1148C28.8693 91.5888 31.5273 94.6018 34.1893 101.6C35.3149 104.621 36.2648 107.705 37.0343 110.836C37.1414 111.287 37.0649 111.762 36.8217 112.156C36.5786 112.551 36.1887 112.832 35.7378 112.939C35.287 113.046 34.8121 112.97 34.4176 112.727C34.0231 112.484 33.7413 112.094 33.6343 111.643C32.8944 108.651 31.9856 105.704 30.9123 102.815C28.7123 97.0439 27.1573 95.8608 26.6123 95.6148C26.4063 96.3708 26.1303 99.2268 28.8773 108.437C30.6383 114.337 32.7483 119.848 32.7693 119.904C32.7803 119.931 32.7903 119.959 32.7983 119.988L34.8283 126.198C34.9138 126.46 34.9361 126.739 34.8932 127.012C34.8503 127.284 34.7434 127.543 34.5814 127.766C34.4194 127.99 34.2069 128.172 33.9611 128.297C33.7153 128.423 33.4433 128.489 33.1673 128.489" fill="#FF6F00"/>
<path d="M33.1673 128.494C32.7988 128.494 32.4397 128.377 32.1414 128.161C31.8431 127.944 31.6208 127.639 31.5063 127.289L29.4903 121.12C27.4413 115.782 21.0553 98.2528 23.6613 93.6638C23.8793 93.2609 24.1854 92.9124 24.5568 92.6442C24.9282 92.376 25.3553 92.1951 25.8063 92.1148C28.8693 91.5888 31.5273 94.6018 34.1893 101.6C35.3149 104.621 36.2648 107.705 37.0343 110.836C37.1414 111.287 37.0649 111.762 36.8217 112.156C36.5786 112.551 36.1887 112.832 35.7378 112.939C35.287 113.046 34.8121 112.97 34.4176 112.727C34.0231 112.484 33.7413 112.094 33.6343 111.643C32.8944 108.651 31.9856 105.704 30.9123 102.815C28.7123 97.0439 27.1573 95.8608 26.6123 95.6148C26.4063 96.3708 26.1303 99.2268 28.8773 108.437C30.6383 114.337 32.7483 119.848 32.7693 119.904C32.7803 119.931 32.7903 119.959 32.7983 119.988L34.8283 126.198C34.9138 126.46 34.9361 126.739 34.8932 127.012C34.8503 127.284 34.7434 127.543 34.5814 127.766C34.4194 127.99 34.2069 128.172 33.9611 128.297C33.7153 128.423 33.4433 128.489 33.1673 128.489" stroke="#FF6F00" stroke-width="0.5"/>
<path d="M40.1255 109.892C39.7239 109.892 39.3345 109.753 39.0231 109.499C38.7117 109.245 38.4971 108.892 38.4155 108.499C37.7681 105.508 36.964 102.553 36.0065 99.6469C33.3485 91.7529 31.4715 91.4829 31.4525 91.4809C30.9675 91.4349 30.6765 91.5039 30.6115 91.5889C30.2355 92.0829 30.5065 93.9459 30.9915 95.2199C31.1435 95.6493 31.1218 96.121 30.9312 96.5346C30.7406 96.9483 30.396 97.2712 29.9709 97.4346C29.5458 97.598 29.0736 97.5891 28.655 97.4096C28.2364 97.2302 27.9044 96.8945 27.7296 96.4739C27.4356 95.7129 26.0625 91.8009 27.8295 89.4739C28.2961 88.8946 28.9103 88.452 29.6075 88.1927C30.3046 87.9335 31.0588 87.8672 31.7905 88.0009C34.6035 88.2729 36.9985 91.6279 39.3295 98.5599C40.3303 101.59 41.1682 104.671 41.8395 107.79C41.8918 108.044 41.8868 108.307 41.8249 108.559C41.7631 108.811 41.6459 109.046 41.4819 109.247C41.3179 109.448 41.1111 109.61 40.8767 109.721C40.6423 109.832 40.386 109.89 40.1265 109.89" fill="#FF6F00"/>
<path d="M40.1255 109.892C39.7239 109.892 39.3345 109.753 39.0231 109.499C38.7117 109.245 38.4971 108.892 38.4155 108.499C37.7681 105.508 36.964 102.553 36.0065 99.6469C33.3485 91.7529 31.4715 91.4829 31.4525 91.4809C30.9675 91.4349 30.6765 91.5039 30.6115 91.5889C30.2355 92.0829 30.5065 93.9459 30.9915 95.2199C31.1435 95.6493 31.1218 96.121 30.9312 96.5346C30.7406 96.9483 30.396 97.2712 29.9709 97.4346C29.5458 97.598 29.0736 97.5891 28.655 97.4096C28.2364 97.2302 27.9044 96.8945 27.7296 96.4739C27.4356 95.7129 26.0625 91.8009 27.8295 89.4739C28.2961 88.8946 28.9103 88.452 29.6075 88.1927C30.3046 87.9335 31.0588 87.8672 31.7905 88.0009C34.6035 88.2729 36.9985 91.6279 39.3295 98.5599C40.3303 101.59 41.1682 104.671 41.8395 107.79C41.8918 108.044 41.8868 108.307 41.8249 108.559C41.7631 108.811 41.6459 109.046 41.4819 109.247C41.3179 109.448 41.1111 109.61 40.8767 109.721C40.6423 109.832 40.386 109.89 40.1265 109.89" stroke="#FF6F00" stroke-width="0.5"/>
<path d="M26.1024 49.706C26.1024 49.706 64.1895 38.606 103.502 57.742C103.502 57.742 132.739 27.032 85.7555 13.625C72.2085 9.78846 57.9746 9.03265 44.0975 11.413C24.5645 14.728 1.63647 23.966 26.0975 49.705" fill="#FF6F00"/>
<path d="M26.1024 49.706C26.1024 49.706 64.1895 38.606 103.502 57.742C103.502 57.742 132.739 27.032 85.7555 13.625C72.2085 9.78846 57.9746 9.03265 44.0975 11.413C24.5645 14.728 1.63647 23.966 26.0975 49.705" stroke="#FF6F00" stroke-width="0.5"/>
<path d="M77.3045 11.8049C76.9257 11.805 76.5572 11.682 76.2544 11.4545C75.9516 11.2271 75.7309 10.9074 75.6254 10.5437C75.52 10.18 75.5355 9.7918 75.6697 9.43765C75.8039 9.0835 76.0495 8.7825 76.3695 8.57995C78.3695 7.31395 80.3364 5.40695 80.4524 4.64595C80.1585 4.42595 79.822 4.26932 79.4644 4.18595C79.0401 4.0327 78.5874 3.97449 78.1381 4.01544C77.6888 4.0564 77.254 4.19551 76.8645 4.42295C74.7995 5.63395 73.6225 9.17196 73.3435 10.433C73.2383 10.8794 72.9618 11.2665 72.5737 11.511C72.1857 11.7555 71.7171 11.8376 71.269 11.7397C70.8209 11.6418 70.4293 11.3718 70.1785 10.9878C69.9277 10.6038 69.8379 10.1366 69.9284 9.68695C70.0614 9.07195 71.3424 3.61795 75.0864 1.41395C75.8931 0.942924 76.7905 0.648154 77.7193 0.549045C78.6482 0.449935 79.5875 0.54874 80.4754 0.838954C83.0624 1.61895 83.7754 3.05696 83.9244 4.12696C84.3694 7.38796 79.6844 10.627 78.2374 11.536C77.9587 11.7125 77.6354 11.8061 77.3054 11.8059" fill="#FF6F00"/>
<path d="M77.3045 11.8049C76.9257 11.805 76.5572 11.682 76.2544 11.4545C75.9516 11.2271 75.7309 10.9074 75.6254 10.5437C75.52 10.18 75.5355 9.7918 75.6697 9.43765C75.8039 9.08349 76.0495 8.7825 76.3695 8.57995C78.3695 7.31395 80.3364 5.40695 80.4524 4.64595C80.1585 4.42595 79.822 4.26932 79.4644 4.18595C79.0401 4.0327 78.5874 3.97449 78.1381 4.01544C77.6888 4.0564 77.254 4.19551 76.8645 4.42295C74.7995 5.63395 73.6225 9.17196 73.3435 10.433C73.2383 10.8794 72.9618 11.2665 72.5737 11.511C72.1857 11.7555 71.7171 11.8376 71.269 11.7397C70.8209 11.6418 70.4293 11.3718 70.1785 10.9878C69.9277 10.6038 69.8379 10.1366 69.9284 9.68695C70.0614 9.07195 71.3424 3.61795 75.0864 1.41395C75.8931 0.942924 76.7905 0.648154 77.7193 0.549045C78.6482 0.449935 79.5875 0.54874 80.4754 0.838954C83.0624 1.61895 83.7754 3.05696 83.9244 4.12696C84.3694 7.38796 79.6844 10.627 78.2374 11.536C77.9587 11.7125 77.6354 11.8061 77.3054 11.8059" stroke="#FF6F00" stroke-width="0.5"/>
<path d="M103.505 59.4898C103.241 59.49 102.979 59.4298 102.741 59.3138C64.5263 40.7138 26.9664 51.2748 26.5914 51.3838C26.2835 51.4734 25.9569 51.4765 25.6474 51.3929C25.3379 51.3093 25.0573 51.1422 24.8364 50.9098C15.6364 41.2338 12.1433 32.8238 14.4443 25.9098C17.0753 18.0098 26.9553 12.5488 43.8083 9.68884C57.9428 7.28422 72.4351 8.05381 86.2353 11.9418C101.878 16.4058 111.073 23.3078 113.566 32.4578C117.179 45.7178 105.28 58.4118 104.772 58.9458C104.609 59.1174 104.413 59.254 104.195 59.3474C103.977 59.4407 103.743 59.4888 103.506 59.4888M53.2483 44.7568C70.4463 44.6771 87.4519 48.3755 103.063 55.5908C105.57 52.5788 112.783 42.8478 110.19 33.3638C108.035 25.4818 99.6544 19.4058 85.2803 15.3048C71.9821 11.5597 58.0174 10.8184 44.3974 13.1348C33.7514 14.9418 20.4913 18.8158 17.7613 27.0148C15.9543 32.4418 18.9493 39.4148 26.6613 47.7458C34.3185 45.9345 42.1472 44.9466 50.0143 44.7988C51.0503 44.7708 52.1313 44.7568 53.2483 44.7568Z" fill="#FF6F00"/>
<path d="M103.505 59.4898C103.241 59.49 102.979 59.4298 102.741 59.3138C64.5263 40.7138 26.9664 51.2748 26.5914 51.3838C26.2835 51.4734 25.9569 51.4765 25.6474 51.3929C25.3379 51.3093 25.0573 51.1422 24.8364 50.9098C15.6364 41.2338 12.1433 32.8238 14.4443 25.9098C17.0753 18.0098 26.9553 12.5488 43.8083 9.68884C57.9428 7.28422 72.4351 8.05381 86.2353 11.9418C101.878 16.4058 111.073 23.3078 113.566 32.4578C117.179 45.7178 105.28 58.4118 104.772 58.9458C104.609 59.1174 104.413 59.254 104.195 59.3474C103.977 59.4407 103.743 59.4888 103.506 59.4888M53.2483 44.7568C70.4463 44.6771 87.4519 48.3755 103.063 55.5908C105.57 52.5788 112.783 42.8478 110.19 33.3638C108.035 25.4818 99.6543 19.4058 85.2803 15.3048C71.9821 11.5597 58.0174 10.8184 44.3974 13.1348C33.7514 14.9418 20.4913 18.8158 17.7613 27.0148C15.9543 32.4418 18.9493 39.4148 26.6613 47.7458C34.3185 45.9345 42.1472 44.9466 50.0143 44.7988C51.0503 44.7708 52.1313 44.7568 53.2483 44.7568Z" stroke="#FF6F00" stroke-width="0.5"/>
<mask id="mask0_968_1691" style="mask-type:luminance" maskUnits="userSpaceOnUse" x="12" y="86" width="91" height="51">
<path d="M102.977 86.0889H12.6523V136.999H102.977V86.0889Z" fill="white"/>
</mask>
<g mask="url(#mask0_968_1691)">
<path d="M62.6423 178.355C62.5789 178.355 62.5154 178.351 62.4523 178.344L40.5993 175.97C40.343 175.942 40.096 175.858 39.876 175.723C39.656 175.589 39.4686 175.407 39.327 175.192C39.1855 174.976 39.0933 174.732 39.0573 174.477C39.0212 174.221 39.042 173.961 39.1183 173.715L52.1803 131.632L40.6083 130.41C40.3767 130.39 40.1514 130.324 39.9456 130.216C39.7397 130.108 39.5575 129.96 39.4095 129.781C39.2615 129.602 39.1508 129.395 39.0838 129.172C39.0168 128.95 38.9948 128.716 39.0192 128.485C39.0436 128.254 39.1139 128.03 39.2259 127.826C39.3379 127.622 39.4895 127.443 39.6716 127.299C39.8538 127.154 40.0629 127.047 40.2868 126.985C40.5106 126.922 40.7447 126.905 40.9754 126.934L54.6683 128.379C54.9252 128.406 55.1729 128.49 55.3936 128.624C55.6143 128.758 55.8024 128.94 55.9445 129.156C56.0866 129.371 56.1792 129.616 56.2154 129.872C56.2517 130.128 56.2308 130.388 56.1543 130.635L43.0903 172.725L61.3854 174.712L75.6063 126.747C75.6158 125.787 75.2829 124.856 74.6673 124.12C72.8093 121.459 66.7623 116.474 47.1333 112.996C46.8317 112.943 46.5493 112.811 46.3147 112.614C46.08 112.417 45.9012 112.162 45.7963 111.874L39.1513 93.6479C38.6213 92.2909 37.6244 90.9969 37.2174 90.9479C37.2174 90.9479 36.6893 91.0969 35.8733 92.6269C35.7689 92.8356 35.6238 93.0213 35.4465 93.173C35.2692 93.3248 35.0633 93.4395 34.841 93.5103C34.6186 93.5812 34.3843 93.6069 34.1519 93.5858C33.9195 93.5647 33.6937 93.4972 33.4877 93.3874C33.2818 93.2777 33.0999 93.1278 32.9529 92.9466C32.8058 92.7654 32.6965 92.5566 32.6314 92.3325C32.5663 92.1084 32.5467 91.8735 32.5739 91.6417C32.601 91.4099 32.6743 91.1859 32.7893 90.9829C34.0893 88.5369 35.6483 87.3509 37.4313 87.4589C40.4313 87.6419 42.1163 91.6209 42.4233 92.4169L48.7363 109.73C68.3003 113.33 75.3424 118.648 77.7944 122.506C78.3278 123.233 78.709 124.06 78.9152 124.938C79.1214 125.815 79.1483 126.726 78.9943 127.614L64.3233 177.1C64.2165 177.463 63.9949 177.781 63.6919 178.007C63.3888 178.234 63.0206 178.356 62.6423 178.355Z" fill="#FF6F00" stroke="#FF6F00" stroke-width="0.5"/>
</g>
</svg>
