<svg width="57" height="57" viewBox="0 0 57 57" fill="none" xmlns="http://www.w3.org/2000/svg">
<path d="M30 0H27C12.0883 0 0 12.0883 0 27V30C0 44.9117 12.0883 57 27 57H30C44.9117 57 57 44.9117 57 30V27C57 12.0883 44.9117 0 30 0Z" fill="white"/>
<path d="M30 1H27C12.6406 1 1 12.6406 1 27V30C1 44.3594 12.6406 56 27 56H30C44.3594 56 56 44.3594 56 30V27C56 12.6406 44.3594 1 30 1Z" stroke="#FF8D00" stroke-width="2"/>
<mask id="mask0_968_2626" style="mask-type:luminance" maskUnits="userSpaceOnUse" x="16" y="11" width="25" height="35">
<path d="M40.4186 11.218H16.2676V45.526H40.4186V11.218Z" fill="white"/>
</mask>
<g mask="url(#mask0_968_2626)">
<path d="M39.4116 45.5261C39.2134 45.5262 39.0196 45.4678 38.8546 45.3581L28.3426 38.3731L17.8316 45.3581C17.6799 45.4588 17.5037 45.5165 17.3218 45.5251C17.1398 45.5336 16.959 45.4926 16.7985 45.4066C16.6381 45.3205 16.5039 45.1925 16.4104 45.0362C16.3169 44.8799 16.2676 44.7012 16.2676 44.5191V15.7631C16.2678 14.5574 16.7466 13.4011 17.5988 12.5482C18.451 11.6953 19.6069 11.2154 20.8126 11.2141L35.8736 11.2141C37.0786 11.2154 38.2339 11.6947 39.0859 12.5468C39.938 13.3988 40.4173 14.5541 40.4186 15.7591V44.5191C40.4186 44.7862 40.3125 45.0423 40.1236 45.2312C39.9348 45.42 39.6786 45.5261 39.4116 45.5261ZM20.8126 13.2321C20.1416 13.2329 19.4983 13.4998 19.0238 13.9743C18.5493 14.4488 18.2824 15.0921 18.2816 15.7631V42.6411L27.7816 36.3251C27.9468 36.2153 28.1407 36.1567 28.3391 36.1567C28.5374 36.1567 28.7314 36.2153 28.8966 36.3251L38.3966 42.6411V15.7631C38.396 15.092 38.1292 14.4485 37.6547 13.974C37.1801 13.4995 36.5367 13.2326 35.8656 13.2321H20.8126Z" fill="#FF8D00" stroke="#FF8D00" stroke-linecap="round"/>
</g>
</svg>
