<svg width="current" height="current" viewBox="0 0 57 57" fill="none" xmlns="http://www.w3.org/2000/svg">
<path d="M30 0H27C12.0883 0 0 12.0883 0 27V30C0 44.9117 12.0883 57 27 57H30C44.9117 57 57 44.9117 57 30V27C57 12.0883 44.9117 0 30 0Z" fill="#FF8D00"/>
<path d="M30 1H27C12.6406 1 1 12.6406 1 27V30C1 44.3594 12.6406 56 27 56H30C44.3594 56 56 44.3594 56 30V27C56 12.6406 44.3594 1 30 1Z" stroke="#FF8D00" stroke-width="2"/>
<mask id="mask0_1030_40" style="mask-type:luminance" maskUnits="userSpaceOnUse" x="16" y="11" width="25" height="35">
<path d="M40.9039 11.217H16.7529V45.525H40.9039V11.217Z" fill="white"/>
</mask>
<g mask="url(#mask0_1030_40)">
<path d="M39.8969 45.5251C39.6988 45.5252 39.505 45.4668 39.3399 45.3571L28.8279 38.3721L18.3169 45.3571C18.1652 45.4579 17.989 45.5156 17.8071 45.5241C17.6252 45.5326 17.4444 45.4917 17.2839 45.4056C17.1234 45.3195 16.9893 45.1915 16.8958 45.0352C16.8023 44.879 16.7529 44.7002 16.7529 44.5181V15.7621C16.7532 14.5564 17.232 13.4001 18.0842 12.5472C18.9364 11.6943 20.0922 11.2145 21.2979 11.2131L36.3589 11.2131C37.5639 11.2145 38.7192 11.6937 39.5713 12.5458C40.4233 13.3979 40.9026 14.5531 40.9039 15.7581V44.5181C40.9039 44.7852 40.7978 45.0413 40.609 45.2302C40.4201 45.419 40.164 45.5251 39.8969 45.5251ZM21.2979 13.2311C20.6269 13.2319 19.9836 13.4988 19.5091 13.9733C19.0346 14.4478 18.7677 15.0911 18.7669 15.7621V42.6401L28.2669 36.3241C28.4321 36.2143 28.6261 36.1557 28.8244 36.1557C29.0228 36.1557 29.2167 36.2143 29.3819 36.3241L38.8819 42.6401V15.7621C38.8814 15.091 38.6146 14.4476 38.14 13.973C37.6655 13.4985 37.022 13.2317 36.3509 13.2311H21.2979Z" fill="white" stroke="white" stroke-linecap="round"/>
</g>
</svg>
